M48
; DRILL file {KiCad 9.0.3} date 2025-12-14T09:52:10-0500
; FORMAT={-:-/ absolute / metric / decimal}
; #@! TF.CreationDate,2025-12-14T09:52:10-05:00
; #@! TF.GenerationSoftware,Kicad,Pcbnew,9.0.3
; #@! TF.FileFunction,MixedPlating,1,2
FMAT,2
METRIC
; #@! TA.AperFunction,Plated,PTH,ViaDrill
T1C0.300
; #@! TA.AperFunction,Plated,PTH,ComponentDrill
T2C0.787
; #@! TA.AperFunction,Plated,PTH,ComponentDrill
T3C0.800
; #@! TA.AperFunction,Plated,PTH,ComponentDrill
T4C0.850
; #@! TA.AperFunction,Plated,PTH,ComponentDrill
T5C0.900
; #@! TA.AperFunction,Plated,PTH,ComponentDrill
T6C1.000
%
G90
G05
T1
X125.109Y-102.697
X126.439Y-104.947
X143.389Y-117.667
X145.367Y-98.961
X147.279Y-103.947
X147.619Y-114.495
X148.539Y-100.977
X151.681Y-99.246
X158.315Y-108.533
X161.629Y-104.807
X161.819Y-101.387
X164.139Y-104.807
T2
X133.659Y-105.927
X133.659Y-113.547
X136.199Y-105.927
X136.199Y-113.547
X138.739Y-105.927
X138.739Y-113.547
X141.279Y-105.927
X141.279Y-113.547
X143.819Y-105.927
X143.819Y-113.547
X146.359Y-105.927
X146.359Y-113.547
X148.899Y-105.927
X148.899Y-113.547
X151.439Y-105.927
X151.439Y-113.547
T3
X123.789Y-104.977
X131.409Y-104.977
X137.279Y-102.247
X139.279Y-102.247
X139.469Y-116.247
X147.089Y-116.247
X147.279Y-102.247
X149.279Y-102.247
X154.199Y-99.747
X154.199Y-107.367
X156.739Y-99.747
X156.739Y-107.367
X159.279Y-99.747
X159.279Y-107.367
X161.819Y-99.747
X161.819Y-107.367
T4
X124.989Y-100.609
X127.529Y-100.609
X130.069Y-100.609
T5
X98.279Y-102.747
X100.819Y-102.747
X111.509Y-89.247
X114.049Y-89.247
X115.259Y-99.747
X117.799Y-99.747
X118.759Y-110.097
X121.299Y-110.097
X139.569Y-95.707
X142.109Y-95.707
X144.699Y-95.787
X147.239Y-95.787
X165.259Y-109.997
X167.799Y-109.997
X168.489Y-99.747
X171.029Y-99.747
X171.989Y-89.247
X174.529Y-89.247
X185.739Y-102.767
X188.279Y-102.767
T6
X141.809Y-119.177
X142.909Y-122.757
X144.349Y-119.177
M30
