%TF.GenerationSoftware,KiCad,Pcbnew,9.0.3*%
%TF.CreationDate,2025-12-14T09:52:05-05:00*%
%TF.ProjectId,Blinky,426c696e-6b79-42e6-9b69-6361645f7063,rev?*%
%TF.SameCoordinates,Original*%
%TF.FileFunction,Copper,L1,Top*%
%TF.FilePolarity,Positive*%
%FSLAX46Y46*%
G04 Gerber Fmt 4.6, Leading zero omitted, Abs format (unit mm)*
G04 Created by KiCad (PCBNEW 9.0.3) date 2025-12-14 09:52:05*
%MOMM*%
%LPD*%
G01*
G04 APERTURE LIST*
G04 Aperture macros list*
%AMRoundRect*
0 Rectangle with rounded corners*
0 $1 Rounding radius*
0 $2 $3 $4 $5 $6 $7 $8 $9 X,Y pos of 4 corners*
0 Add a 4 corners polygon primitive as box body*
4,1,4,$2,$3,$4,$5,$6,$7,$8,$9,$2,$3,0*
0 Add four circle primitives for the rounded corners*
1,1,$1+$1,$2,$3*
1,1,$1+$1,$4,$5*
1,1,$1+$1,$6,$7*
1,1,$1+$1,$8,$9*
0 Add four rect primitives between the rounded corners*
20,1,$1+$1,$2,$3,$4,$5,0*
20,1,$1+$1,$4,$5,$6,$7,0*
20,1,$1+$1,$6,$7,$8,$9,0*
20,1,$1+$1,$8,$9,$2,$3,0*%
G04 Aperture macros list end*
%TA.AperFunction,Conductor*%
%ADD10C,0.200000*%
%TD*%
%TA.AperFunction,Conductor*%
%ADD11C,0.508000*%
%TD*%
%TA.AperFunction,ComponentPad*%
%ADD12R,1.800000X1.800000*%
%TD*%
%TA.AperFunction,ComponentPad*%
%ADD13C,1.800000*%
%TD*%
%TA.AperFunction,ComponentPad*%
%ADD14C,1.600000*%
%TD*%
%TA.AperFunction,ComponentPad*%
%ADD15RoundRect,0.250000X-0.550000X-0.550000X0.550000X-0.550000X0.550000X0.550000X-0.550000X0.550000X0*%
%TD*%
%TA.AperFunction,ComponentPad*%
%ADD16RoundRect,0.250000X-0.550000X0.550000X-0.550000X-0.550000X0.550000X-0.550000X0.550000X0.550000X0*%
%TD*%
%TA.AperFunction,ComponentPad*%
%ADD17RoundRect,0.412500X-0.412500X-0.412500X0.412500X-0.412500X0.412500X0.412500X-0.412500X0.412500X0*%
%TD*%
%TA.AperFunction,ComponentPad*%
%ADD18C,1.650000*%
%TD*%
%TA.AperFunction,ComponentPad*%
%ADD19R,1.700000X1.700000*%
%TD*%
%TA.AperFunction,ComponentPad*%
%ADD20C,1.700000*%
%TD*%
%TA.AperFunction,ComponentPad*%
%ADD21R,1.295400X1.295400*%
%TD*%
%TA.AperFunction,ComponentPad*%
%ADD22C,1.295400*%
%TD*%
%TA.AperFunction,ViaPad*%
%ADD23C,0.600000*%
%TD*%
%TA.AperFunction,Conductor*%
%ADD24C,0.254000*%
%TD*%
G04 APERTURE END LIST*
D10*
%TO.N,GND*%
X133088618Y-104756645D02*
X134168618Y-105676645D01*
X132808618Y-106026645D01*
X131768618Y-105516645D01*
X131368618Y-104376645D01*
X131548618Y-103286645D01*
X133088618Y-104756645D01*
%TA.AperFunction,Conductor*%
G36*
X133088618Y-104756645D02*
G01*
X134168618Y-105676645D01*
X132808618Y-106026645D01*
X131768618Y-105516645D01*
X131368618Y-104376645D01*
X131548618Y-103286645D01*
X133088618Y-104756645D01*
G37*
%TD.AperFunction*%
D11*
X161628618Y-104806645D02*
X164138618Y-104806645D01*
%TD*%
D12*
%TO.P,D8,1,K*%
%TO.N,Net-(D1-K)*%
X98278618Y-102746645D03*
D13*
%TO.P,D8,2,A*%
%TO.N,Net-(D8-A)*%
X100818618Y-102746645D03*
%TD*%
D12*
%TO.P,D6,1,K*%
%TO.N,Net-(D1-K)*%
X167798618Y-109996645D03*
D13*
%TO.P,D6,2,A*%
%TO.N,Net-(D6-A)*%
X165258618Y-109996645D03*
%TD*%
D12*
%TO.P,D11,1,K*%
%TO.N,Net-(D1-K)*%
X139568618Y-95706645D03*
D13*
%TO.P,D11,2,A*%
%TO.N,Net-(D11-A)*%
X142108618Y-95706645D03*
%TD*%
D12*
%TO.P,D1,1,K*%
%TO.N,Net-(D1-K)*%
X144698618Y-95786645D03*
D13*
%TO.P,D1,2,A*%
%TO.N,Net-(D1-A)*%
X147238618Y-95786645D03*
%TD*%
D14*
%TO.P,R1,1*%
%TO.N,+5V*%
X139468618Y-116246645D03*
%TO.P,R1,2*%
%TO.N,Net-(U1-DIS)*%
X147088618Y-116246645D03*
%TD*%
D15*
%TO.P,C4,1*%
%TO.N,GND*%
X147278618Y-102246645D03*
D14*
%TO.P,C4,2*%
%TO.N,Net-(U1-CV)*%
X149278618Y-102246645D03*
%TD*%
D12*
%TO.P,D7,1,K*%
%TO.N,Net-(D1-K)*%
X174528618Y-89246645D03*
D13*
%TO.P,D7,2,A*%
%TO.N,Net-(D7-A)*%
X171988618Y-89246645D03*
%TD*%
D16*
%TO.P,U1,1,GND*%
%TO.N,GND*%
X161818618Y-99746645D03*
D14*
%TO.P,U1,2,TR*%
%TO.N,TR*%
X159278618Y-99746645D03*
%TO.P,U1,3,Q*%
%TO.N,OUT*%
X156738618Y-99746645D03*
%TO.P,U1,4,R*%
%TO.N,+5V*%
X154198618Y-99746645D03*
%TO.P,U1,5,CV*%
%TO.N,Net-(U1-CV)*%
X154198618Y-107366645D03*
%TO.P,U1,6,THR*%
%TO.N,TR*%
X156738618Y-107366645D03*
%TO.P,U1,7,DIS*%
%TO.N,Net-(U1-DIS)*%
X159278618Y-107366645D03*
%TO.P,U1,8,VCC*%
%TO.N,+5V*%
X161818618Y-107366645D03*
%TD*%
D15*
%TO.P,C3,1*%
%TO.N,TR*%
X137278618Y-102246645D03*
D14*
%TO.P,C3,2*%
%TO.N,GND*%
X139278618Y-102246645D03*
%TD*%
D12*
%TO.P,D9,1,K*%
%TO.N,Net-(D1-K)*%
X111508618Y-89246645D03*
D13*
%TO.P,D9,2,A*%
%TO.N,Net-(D9-A)*%
X114048618Y-89246645D03*
%TD*%
D17*
%TO.P,RV1,1,1*%
%TO.N,Net-(U1-DIS)*%
X124988618Y-100609145D03*
D18*
%TO.P,RV1,2,2*%
X127528618Y-100609145D03*
%TO.P,RV1,3,3*%
%TO.N,TR*%
X130068618Y-100609145D03*
%TD*%
D19*
%TO.P,TP3,1,1*%
%TO.N,OUT*%
X142908618Y-122756645D03*
%TD*%
%TO.P,J1,1,Pin_1*%
%TO.N,+5V*%
X141808618Y-119176645D03*
D20*
%TO.P,J1,2,Pin_2*%
%TO.N,GND*%
X144348618Y-119176645D03*
%TD*%
D12*
%TO.P,D10,1,K*%
%TO.N,Net-(D1-K)*%
X171028618Y-99746645D03*
D13*
%TO.P,D10,2,A*%
%TO.N,Net-(D10-A)*%
X168488618Y-99746645D03*
%TD*%
D12*
%TO.P,D2,1,K*%
%TO.N,Net-(D1-K)*%
X115258618Y-99746645D03*
D13*
%TO.P,D2,2,A*%
%TO.N,Net-(D2-A)*%
X117798618Y-99746645D03*
%TD*%
D14*
%TO.P,R4,1*%
%TO.N,Net-(D1-K)*%
X123788618Y-104976645D03*
%TO.P,R4,2*%
%TO.N,GND*%
X131408618Y-104976645D03*
%TD*%
D12*
%TO.P,D12,1,K*%
%TO.N,Net-(D1-K)*%
X188278618Y-102766645D03*
D13*
%TO.P,D12,2,A*%
%TO.N,Net-(D12-A)*%
X185738618Y-102766645D03*
%TD*%
D12*
%TO.P,D5,1,K*%
%TO.N,Net-(D1-K)*%
X118758618Y-110096645D03*
D13*
%TO.P,D5,2,A*%
%TO.N,Net-(D5-A)*%
X121298618Y-110096645D03*
%TD*%
D21*
%TO.P,U2,1,Q5*%
%TO.N,Net-(D7-A)*%
X151438618Y-105926645D03*
D22*
%TO.P,U2,2,Q1*%
%TO.N,Net-(D11-A)*%
X148898618Y-105926645D03*
%TO.P,U2,3,Q0*%
%TO.N,Net-(D12-A)*%
X146358618Y-105926645D03*
%TO.P,U2,4,Q2*%
%TO.N,Net-(D10-A)*%
X143818618Y-105926645D03*
%TO.P,U2,5,Q6*%
%TO.N,Net-(D2-A)*%
X141278618Y-105926645D03*
%TO.P,U2,6,Q7*%
%TO.N,Net-(D6-A)*%
X138738618Y-105926645D03*
%TO.P,U2,7,Q3*%
%TO.N,Net-(D9-A)*%
X136198618Y-105926645D03*
%TO.P,U2,8,VSS*%
%TO.N,GND*%
X133658618Y-105926645D03*
%TO.P,U2,9,Q8*%
%TO.N,Net-(D5-A)*%
X133658618Y-113546645D03*
%TO.P,U2,10,Q4*%
%TO.N,Net-(D8-A)*%
X136198618Y-113546645D03*
%TO.P,U2,11,Q9*%
%TO.N,Net-(D1-A)*%
X138738618Y-113546645D03*
%TO.P,U2,12,Cout*%
%TO.N,unconnected-(U2-Cout-Pad12)*%
X141278618Y-113546645D03*
%TO.P,U2,13,CKEN*%
%TO.N,GND*%
X143818618Y-113546645D03*
%TO.P,U2,14,CLK*%
%TO.N,OUT*%
X146358618Y-113546645D03*
%TO.P,U2,15,Reset*%
%TO.N,GND*%
X148898618Y-113546645D03*
%TO.P,U2,16,VDD*%
%TO.N,+5V*%
X151438618Y-113546645D03*
%TD*%
D23*
%TO.N,GND*%
X143388618Y-117666645D03*
X148538618Y-100976645D03*
X147278618Y-103946645D03*
X147618618Y-114495345D03*
X161818618Y-101386645D03*
X126438618Y-104946645D03*
%TO.N,TR*%
X158315408Y-108533435D03*
%TO.N,Net-(D1-K)*%
X145367318Y-98960956D03*
%TO.N,GND*%
X164138618Y-104806645D03*
X125108618Y-102696645D03*
X161628618Y-104806645D03*
%TO.N,Net-(D1-K)*%
X151681090Y-99245645D03*
%TD*%
D10*
%TO.N,GND*%
X143818618Y-117666645D02*
X143908618Y-117756645D01*
X143388618Y-117666645D02*
X143818618Y-117666645D01*
X143008618Y-117666645D02*
X143388618Y-117666645D01*
X143008618Y-117666645D02*
X142938618Y-117736645D01*
D11*
X132678618Y-105166645D02*
X132678618Y-104416645D01*
D10*
X131598618Y-103316645D02*
X131608618Y-103306645D01*
X131598618Y-103336645D02*
X131598618Y-103316645D01*
D11*
X132358618Y-105926645D02*
X131408618Y-104976645D01*
X133658618Y-105926645D02*
X132358618Y-105926645D01*
D24*
X126438618Y-104946645D02*
X125108618Y-103616645D01*
X125108618Y-103616645D02*
X125108618Y-102696645D01*
D10*
%TO.N,OUT*%
X145987618Y-119677645D02*
X145987618Y-113917645D01*
%TO.N,+5V*%
X141808618Y-119176645D02*
X141808618Y-118586645D01*
X151438618Y-113546645D02*
X153988618Y-110996645D01*
X145965653Y-112597945D02*
X150489918Y-112597945D01*
X145278618Y-116246645D02*
X145278618Y-113284980D01*
X158188618Y-110996645D02*
X161818618Y-107366645D01*
X141808618Y-118586645D02*
X139468618Y-116246645D01*
X150489918Y-112597945D02*
X151438618Y-113546645D01*
X140268617Y-117046644D02*
X144478619Y-117046644D01*
X153988618Y-110996645D02*
X158188618Y-110996645D01*
%TO.N,OUT*%
X145987618Y-113917645D02*
X146358618Y-113546645D01*
%TO.N,+5V*%
X139468618Y-116246645D02*
X140268617Y-117046644D01*
%TO.N,OUT*%
X142908618Y-122756645D02*
X145987618Y-119677645D01*
%TO.N,Net-(D12-A)*%
X150716953Y-102766645D02*
X147556953Y-105926645D01*
X185738618Y-102766645D02*
X150716953Y-102766645D01*
%TO.N,Net-(D11-A)*%
X144767318Y-98365345D02*
X142108618Y-95706645D01*
%TO.N,Net-(D10-A)*%
X186236089Y-103967645D02*
X155862118Y-103967645D01*
%TO.N,Net-(D11-A)*%
X144767318Y-106244110D02*
X144767318Y-98365345D01*
X149847318Y-104977945D02*
X152387318Y-104977945D01*
X148898618Y-105926645D02*
X149847318Y-104977945D01*
%TO.N,Net-(D10-A)*%
X155862118Y-103967645D02*
X151734118Y-108095645D01*
X168488618Y-99746645D02*
X170307618Y-101565645D01*
%TO.N,Net-(D9-A)*%
X124285118Y-99483145D02*
X130535023Y-99483145D01*
%TO.N,Net-(D10-A)*%
X186939618Y-102269174D02*
X186939618Y-103264116D01*
%TO.N,Net-(D9-A)*%
X130535023Y-99483145D02*
X136198618Y-105146740D01*
%TO.N,Net-(D8-A)*%
X134648618Y-111996645D02*
X118256618Y-111996645D01*
%TO.N,Net-(D9-A)*%
X114048618Y-89246645D02*
X124285118Y-99483145D01*
%TO.N,Net-(D8-A)*%
X117272872Y-110428547D02*
X109590970Y-102746645D01*
%TO.N,Net-(D11-A)*%
X151568018Y-107694645D02*
X146217853Y-107694645D01*
%TO.N,Net-(D10-A)*%
X186236089Y-101565645D02*
X186939618Y-102269174D01*
X145987618Y-108095645D02*
X143818618Y-105926645D01*
X170307618Y-101565645D02*
X186236089Y-101565645D01*
%TO.N,Net-(D11-A)*%
X152387318Y-106875345D02*
X151568018Y-107694645D01*
X146217853Y-107694645D02*
X144767318Y-106244110D01*
%TO.N,Net-(U1-DIS)*%
X160379618Y-106265645D02*
X159278618Y-107366645D01*
X151832257Y-114455817D02*
X152024000Y-114322269D01*
X162919618Y-106910595D02*
X162274668Y-106265645D01*
X162274668Y-106265645D02*
X160379618Y-106265645D01*
X152024000Y-114322269D02*
X154849624Y-111496645D01*
%TO.N,Net-(D10-A)*%
X186939618Y-103264116D02*
X186236089Y-103967645D01*
X151734118Y-108095645D02*
X145987618Y-108095645D01*
%TO.N,Net-(U1-DIS)*%
X159245668Y-111496645D02*
X162919618Y-107822695D01*
%TO.N,Net-(D12-A)*%
X147556953Y-105926645D02*
X146358618Y-105926645D01*
%TO.N,Net-(D1-K)*%
X151887618Y-99245645D02*
X155007618Y-102365645D01*
X174528618Y-89246645D02*
X174758618Y-89246645D01*
%TO.N,Net-(D8-A)*%
X109590970Y-102746645D02*
X100818618Y-102746645D01*
%TO.N,Net-(D6-A)*%
X158177618Y-107822695D02*
X157503668Y-108496645D01*
%TO.N,Net-(D7-A)*%
X148993458Y-98645645D02*
X145409918Y-102229185D01*
X150776618Y-107293645D02*
X151438618Y-106631645D01*
%TO.N,Net-(D6-A)*%
X165258618Y-108682495D02*
X162440768Y-105864645D01*
%TO.N,Net-(D8-A)*%
X117272872Y-111012899D02*
X117272872Y-110428547D01*
%TO.N,Net-(D7-A)*%
X145409918Y-106319610D02*
X146383953Y-107293645D01*
%TO.N,Net-(D8-A)*%
X118256618Y-111996645D02*
X117272872Y-111012899D01*
%TO.N,Net-(D6-A)*%
X162440768Y-105864645D02*
X159223568Y-105864645D01*
X159223568Y-105864645D02*
X158177618Y-106910595D01*
%TO.N,Net-(D8-A)*%
X136198618Y-113546645D02*
X134648618Y-111996645D01*
%TO.N,Net-(D7-A)*%
X146383953Y-107293645D02*
X150776618Y-107293645D01*
X151438618Y-106631645D02*
X151438618Y-105926645D01*
X162589618Y-98645645D02*
X148993458Y-98645645D01*
X145409918Y-102229185D02*
X145409918Y-106319610D01*
%TO.N,Net-(D6-A)*%
X158177618Y-106910595D02*
X158177618Y-107822695D01*
X157503668Y-108496645D02*
X141308618Y-108496645D01*
X141308618Y-108496645D02*
X138738618Y-105926645D01*
X165258618Y-109996645D02*
X165258618Y-108682495D01*
%TO.N,Net-(D1-K)*%
X126088318Y-107276345D02*
X136757683Y-107276345D01*
X137679618Y-106354410D02*
X137679618Y-105402695D01*
%TO.N,TR*%
X127244368Y-106875345D02*
X136591583Y-106875345D01*
X135805653Y-106875345D02*
X136591583Y-106875345D01*
X122687618Y-104520595D02*
X123332568Y-103875645D01*
%TO.N,Net-(U1-DIS)*%
X154849624Y-111496645D02*
X159245668Y-111496645D01*
%TO.N,TR*%
X123332568Y-103875645D02*
X124244668Y-103875645D01*
X122687618Y-105432695D02*
X122687618Y-104520595D01*
X158315408Y-108533435D02*
X157752198Y-109096645D01*
%TO.N,+5V*%
X145278618Y-113284980D02*
X145965653Y-112597945D01*
%TO.N,TR*%
X137278618Y-106188310D02*
X137278618Y-102246645D01*
%TO.N,Net-(D7-A)*%
X171988618Y-89246645D02*
X162589618Y-98645645D01*
%TO.N,TR*%
X124244668Y-103875645D02*
X127244368Y-106875345D01*
X135249918Y-106319610D02*
X135805653Y-106875345D01*
X157752198Y-109096645D02*
X126351568Y-109096645D01*
X130068618Y-100609145D02*
X135249918Y-105790445D01*
X126351568Y-109096645D02*
X122687618Y-105432695D01*
%TO.N,Net-(D1-K)*%
X140528618Y-96666645D02*
X139568618Y-95706645D01*
%TO.N,Net-(D11-A)*%
X152387318Y-104977945D02*
X152387318Y-106875345D01*
%TO.N,Net-(D1-K)*%
X155007618Y-102365645D02*
X164171147Y-102365645D01*
X145367318Y-98960956D02*
X145367318Y-96455345D01*
%TO.N,Net-(U1-DIS)*%
X162919618Y-107822695D02*
X162919618Y-106910595D01*
%TO.N,Net-(D1-K)*%
X171028618Y-99746645D02*
X185258618Y-99746645D01*
X140778618Y-94496645D02*
X143408618Y-94496645D01*
X164171147Y-102365645D02*
X167991147Y-98545645D01*
X123788618Y-104976645D02*
X126088318Y-107276345D01*
X137679618Y-105402695D02*
X140528618Y-102553695D01*
X115258618Y-99746645D02*
X101278618Y-99746645D01*
X145367318Y-96455345D02*
X144698618Y-95786645D01*
%TO.N,+5V*%
X144478619Y-117046644D02*
X145278618Y-116246645D01*
%TO.N,Net-(D1-K)*%
X98278618Y-98988256D02*
X98278618Y-102746645D01*
X174758618Y-89246645D02*
X185268618Y-99756645D01*
X111508618Y-89246645D02*
X108020229Y-89246645D01*
X169827618Y-98545645D02*
X171028618Y-99746645D01*
X151681090Y-99245645D02*
X151887618Y-99245645D01*
X139568618Y-95706645D02*
X140778618Y-94496645D01*
X136757683Y-107276345D02*
X137679618Y-106354410D01*
%TO.N,Net-(U1-DIS)*%
X151633988Y-114579438D02*
X151832257Y-114455817D01*
%TO.N,Net-(D1-K)*%
X185268618Y-99756645D02*
X188278618Y-102766645D01*
%TO.N,Net-(U1-DIS)*%
X147088618Y-116246645D02*
X148755825Y-114579438D01*
X148755825Y-114579438D02*
X151633988Y-114579438D01*
%TO.N,Net-(D1-K)*%
X185258618Y-99746645D02*
X185268618Y-99756645D01*
X108020229Y-89246645D02*
X98278618Y-98988256D01*
X167991147Y-98545645D02*
X169827618Y-98545645D01*
%TO.N,TR*%
X135249918Y-105790445D02*
X135249918Y-106319610D01*
%TO.N,Net-(D1-K)*%
X143408618Y-94496645D02*
X144698618Y-95786645D01*
X101278618Y-99746645D02*
X98278618Y-102746645D01*
%TO.N,TR*%
X136591583Y-106875345D02*
X137278618Y-106188310D01*
%TO.N,Net-(D9-A)*%
X136198618Y-105146740D02*
X136198618Y-105926645D01*
%TO.N,Net-(D1-K)*%
X140528618Y-102553695D02*
X140528618Y-96666645D01*
D11*
%TO.N,GND*%
X132733618Y-104471645D02*
X131598618Y-103336645D01*
X132733618Y-104471645D02*
X133008618Y-104746645D01*
D10*
X132678618Y-104416645D02*
X132733618Y-104471645D01*
%TD*%
%TA.AperFunction,Conductor*%
%TO.N,GND*%
G36*
X110051158Y-89866830D02*
G01*
X110096913Y-89919634D01*
X110108119Y-89971145D01*
X110108119Y-90194521D01*
X110114526Y-90254128D01*
X110164820Y-90388973D01*
X110164824Y-90388980D01*
X110251070Y-90504189D01*
X110251073Y-90504192D01*
X110366282Y-90590438D01*
X110366289Y-90590442D01*
X110501135Y-90640736D01*
X110501134Y-90640736D01*
X110508062Y-90641480D01*
X110560745Y-90647145D01*
X112456490Y-90647144D01*
X112516101Y-90640736D01*
X112650949Y-90590441D01*
X112766164Y-90504191D01*
X112852414Y-90388976D01*
X112857044Y-90376563D01*
X112882219Y-90309065D01*
X112924089Y-90253131D01*
X112989554Y-90228713D01*
X113057827Y-90243564D01*
X113086082Y-90264716D01*
X113136254Y-90314888D01*
X113136259Y-90314892D01*
X113287785Y-90424981D01*
X113314596Y-90444460D01*
X113432575Y-90504574D01*
X113511011Y-90544540D01*
X113511014Y-90544541D01*
X113578143Y-90566352D01*
X113720667Y-90612660D01*
X113938396Y-90647145D01*
X113938397Y-90647145D01*
X114158839Y-90647145D01*
X114158840Y-90647145D01*
X114376569Y-90612660D01*
X114446823Y-90589832D01*
X114516662Y-90587837D01*
X114572821Y-90620083D01*
X123690229Y-99737491D01*
X123723714Y-99798814D01*
X123719268Y-99860981D01*
X123720746Y-99861377D01*
X123719064Y-99867651D01*
X123719064Y-99867653D01*
X123690615Y-99973826D01*
X123669390Y-100053037D01*
X123663118Y-100132735D01*
X123663118Y-101085554D01*
X123669390Y-101165254D01*
X123717945Y-101346460D01*
X123719064Y-101350637D01*
X123806194Y-101521639D01*
X123841332Y-101565031D01*
X123926972Y-101670790D01*
X123998642Y-101728826D01*
X124076124Y-101791569D01*
X124247126Y-101878699D01*
X124432507Y-101928372D01*
X124512216Y-101934645D01*
X124512224Y-101934645D01*
X125465012Y-101934645D01*
X125465020Y-101934645D01*
X125544729Y-101928372D01*
X125730110Y-101878699D01*
X125901112Y-101791569D01*
X126050263Y-101670790D01*
X126171042Y-101521639D01*
X126236698Y-101392781D01*
X126284672Y-101341985D01*
X126352493Y-101325190D01*
X126418628Y-101347727D01*
X126447497Y-101376186D01*
X126517583Y-101472650D01*
X126665113Y-101620180D01*
X126833904Y-101742815D01*
X126896235Y-101774574D01*
X127019797Y-101837532D01*
X127019799Y-101837532D01*
X127019802Y-101837534D01*
X127117666Y-101869332D01*
X127218228Y-101902007D01*
X127424294Y-101934645D01*
X127424299Y-101934645D01*
X127632942Y-101934645D01*
X127839007Y-101902007D01*
X127910741Y-101878699D01*
X128037434Y-101837534D01*
X128223332Y-101742815D01*
X128392123Y-101620180D01*
X128539653Y-101472650D01*
X128662288Y-101303859D01*
X128688133Y-101253135D01*
X128736107Y-101202339D01*
X128803928Y-101185543D01*
X128870063Y-101208080D01*
X128909103Y-101253135D01*
X128934946Y-101303857D01*
X128988316Y-101377313D01*
X129057583Y-101472650D01*
X129205113Y-101620180D01*
X129373904Y-101742815D01*
X129436235Y-101774574D01*
X129559797Y-101837532D01*
X129559799Y-101837532D01*
X129559802Y-101837534D01*
X129657666Y-101869332D01*
X129758228Y-101902007D01*
X129964294Y-101934645D01*
X129964299Y-101934645D01*
X130172942Y-101934645D01*
X130266605Y-101919809D01*
X130379007Y-101902007D01*
X130407303Y-101892812D01*
X130477141Y-101890817D01*
X130533300Y-101923063D01*
X132383972Y-103773735D01*
X132417457Y-103835058D01*
X132412473Y-103904750D01*
X132370601Y-103960683D01*
X132305137Y-103985100D01*
X132236864Y-103970248D01*
X132223405Y-103961734D01*
X132089967Y-103864785D01*
X131907649Y-103771889D01*
X131713035Y-103708654D01*
X131510935Y-103676645D01*
X131306301Y-103676645D01*
X131104200Y-103708654D01*
X130909586Y-103771889D01*
X130727262Y-103864788D01*
X130682695Y-103897168D01*
X130682695Y-103897169D01*
X131362172Y-104576645D01*
X131355957Y-104576645D01*
X131254224Y-104603904D01*
X131163012Y-104656565D01*
X131088538Y-104731039D01*
X131035877Y-104822251D01*
X131008618Y-104923984D01*
X131008618Y-104930198D01*
X130329142Y-104250722D01*
X130329141Y-104250722D01*
X130296761Y-104295289D01*
X130203862Y-104477613D01*
X130140627Y-104672227D01*
X130108618Y-104874327D01*
X130108618Y-105078962D01*
X130140627Y-105281062D01*
X130203862Y-105475676D01*
X130296759Y-105657995D01*
X130296765Y-105658004D01*
X130329141Y-105702566D01*
X130329142Y-105702567D01*
X131008618Y-105023091D01*
X131008618Y-105029306D01*
X131035877Y-105131039D01*
X131088538Y-105222251D01*
X131163012Y-105296725D01*
X131254224Y-105349386D01*
X131355957Y-105376645D01*
X131362171Y-105376645D01*
X130682694Y-106056119D01*
X130683079Y-106061010D01*
X130717663Y-106105858D01*
X130723641Y-106175471D01*
X130691035Y-106237266D01*
X130630196Y-106271623D01*
X130602111Y-106274845D01*
X127544465Y-106274845D01*
X127477426Y-106255160D01*
X127456784Y-106238526D01*
X125319929Y-104101671D01*
X127395352Y-104101671D01*
X127403470Y-104109789D01*
X127416107Y-104124585D01*
X127522504Y-104271029D01*
X127532671Y-104287619D01*
X127614850Y-104448903D01*
X127622296Y-104466880D01*
X127678232Y-104639035D01*
X127682774Y-104657955D01*
X127711091Y-104836740D01*
X127712618Y-104856138D01*
X127712618Y-105037152D01*
X127711091Y-105056551D01*
X127707686Y-105078044D01*
X127906487Y-105276845D01*
X128729393Y-105276845D01*
X128729393Y-104101671D01*
X127395352Y-104101671D01*
X125319929Y-104101671D01*
X124732258Y-103514000D01*
X124732256Y-103513997D01*
X124613385Y-103395126D01*
X124613377Y-103395120D01*
X124523401Y-103343173D01*
X124523400Y-103343173D01*
X124476453Y-103316068D01*
X124323725Y-103275144D01*
X124165611Y-103275144D01*
X124158015Y-103275144D01*
X124157999Y-103275145D01*
X123419237Y-103275145D01*
X123419221Y-103275144D01*
X123411625Y-103275144D01*
X123253511Y-103275144D01*
X123100783Y-103316068D01*
X123100781Y-103316068D01*
X123100781Y-103316069D01*
X123093637Y-103320194D01*
X123053836Y-103343173D01*
X123053835Y-103343173D01*
X122963858Y-103395120D01*
X122963850Y-103395126D01*
X122207097Y-104151879D01*
X122193309Y-104175763D01*
X122179645Y-104199430D01*
X122166212Y-104222697D01*
X122128729Y-104287619D01*
X122128041Y-104288810D01*
X122087117Y-104441538D01*
X122087117Y-104441540D01*
X122087117Y-104609641D01*
X122087118Y-104609654D01*
X122087118Y-105346025D01*
X122087117Y-105346043D01*
X122087117Y-105511749D01*
X122087116Y-105511749D01*
X122087117Y-105511752D01*
X122128041Y-105664480D01*
X122144662Y-105693268D01*
X122148087Y-105699199D01*
X122148088Y-105699203D01*
X122207093Y-105801404D01*
X122207099Y-105801412D01*
X122325967Y-105920280D01*
X122325972Y-105920284D01*
X125982852Y-109577165D01*
X125982854Y-109577166D01*
X125982858Y-109577169D01*
X126119777Y-109656218D01*
X126119780Y-109656220D01*
X126119784Y-109656222D01*
X126272511Y-109697146D01*
X126272513Y-109697146D01*
X126438222Y-109697146D01*
X126438238Y-109697145D01*
X157665529Y-109697145D01*
X157665545Y-109697146D01*
X157673141Y-109697146D01*
X157831252Y-109697146D01*
X157831255Y-109697146D01*
X157983983Y-109656222D01*
X158012063Y-109640010D01*
X158039085Y-109624409D01*
X158039096Y-109624401D01*
X158039108Y-109624395D01*
X158120914Y-109577165D01*
X158232718Y-109465361D01*
X158232718Y-109465359D01*
X158242924Y-109455154D01*
X158242928Y-109455149D01*
X158265842Y-109432235D01*
X158330070Y-109368007D01*
X158391392Y-109334523D01*
X158393559Y-109334072D01*
X158394248Y-109333935D01*
X158394250Y-109333935D01*
X158548905Y-109303172D01*
X158694587Y-109242829D01*
X158825697Y-109155224D01*
X158937197Y-109043724D01*
X159024802Y-108912614D01*
X159085145Y-108766932D01*
X159085147Y-108766921D01*
X159086914Y-108761099D01*
X159088026Y-108761436D01*
X159117527Y-108705042D01*
X159178243Y-108670468D01*
X159206758Y-108667145D01*
X159369520Y-108667145D01*
X159436559Y-108686830D01*
X159482314Y-108739634D01*
X159492258Y-108808792D01*
X159463233Y-108872348D01*
X159457201Y-108878826D01*
X157976202Y-110359826D01*
X157914879Y-110393311D01*
X157888521Y-110396145D01*
X154075288Y-110396145D01*
X154075272Y-110396144D01*
X154067676Y-110396144D01*
X153909561Y-110396144D01*
X153843946Y-110413726D01*
X153756832Y-110437068D01*
X153756827Y-110437071D01*
X153619908Y-110516120D01*
X153619900Y-110516126D01*
X151753736Y-112382290D01*
X151692413Y-112415775D01*
X151646658Y-112417082D01*
X151528983Y-112398445D01*
X151348253Y-112398445D01*
X151270468Y-112410765D01*
X151230576Y-112417083D01*
X151161282Y-112408127D01*
X151123498Y-112382290D01*
X150977508Y-112236300D01*
X150977506Y-112236297D01*
X150858635Y-112117426D01*
X150858634Y-112117425D01*
X150771822Y-112067305D01*
X150771822Y-112067304D01*
X150771818Y-112067303D01*
X150721703Y-112038368D01*
X150568975Y-111997444D01*
X150410861Y-111997444D01*
X150403265Y-111997444D01*
X150403249Y-111997445D01*
X146044710Y-111997445D01*
X145886595Y-111997445D01*
X145733868Y-112038368D01*
X145733867Y-112038368D01*
X145733865Y-112038369D01*
X145733862Y-112038370D01*
X145683749Y-112067304D01*
X145683748Y-112067305D01*
X145640342Y-112092365D01*
X145596938Y-112117424D01*
X145596935Y-112117426D01*
X144798099Y-112916263D01*
X144793152Y-112922710D01*
X144792722Y-112922380D01*
X144780472Y-112938342D01*
X144212318Y-113506498D01*
X144212318Y-113494813D01*
X144185488Y-113394683D01*
X144133656Y-113304908D01*
X144060355Y-113231607D01*
X143970580Y-113179775D01*
X143870450Y-113152945D01*
X143858765Y-113152945D01*
X144435504Y-112576204D01*
X144435504Y-112576203D01*
X144420147Y-112565046D01*
X144259184Y-112483031D01*
X144087368Y-112427204D01*
X143908949Y-112398945D01*
X143728287Y-112398945D01*
X143549867Y-112427204D01*
X143378051Y-112483031D01*
X143217094Y-112565042D01*
X143217090Y-112565045D01*
X143201730Y-112576203D01*
X143201730Y-112576204D01*
X143778472Y-113152945D01*
X143766786Y-113152945D01*
X143666656Y-113179775D01*
X143576881Y-113231607D01*
X143503580Y-113304908D01*
X143451748Y-113394683D01*
X143424918Y-113494813D01*
X143424918Y-113506498D01*
X142848177Y-112929757D01*
X142848176Y-112929757D01*
X142837018Y-112945117D01*
X142837015Y-112945121D01*
X142755004Y-113106078D01*
X142699177Y-113277893D01*
X142671343Y-113453627D01*
X142641413Y-113516761D01*
X142594041Y-113546257D01*
X142643733Y-113579204D01*
X142671343Y-113639662D01*
X142699177Y-113815396D01*
X142755004Y-113987211D01*
X142837019Y-114148174D01*
X142848176Y-114163531D01*
X142848177Y-114163531D01*
X143424918Y-113586790D01*
X143424918Y-113598477D01*
X143451748Y-113698607D01*
X143503580Y-113788382D01*
X143576881Y-113861683D01*
X143666656Y-113913515D01*
X143766786Y-113940345D01*
X143778471Y-113940345D01*
X143201730Y-114517083D01*
X143201730Y-114517084D01*
X143217095Y-114528247D01*
X143378051Y-114610258D01*
X143549867Y-114666085D01*
X143728287Y-114694345D01*
X143908949Y-114694345D01*
X144087368Y-114666085D01*
X144259184Y-114610258D01*
X144420148Y-114528243D01*
X144481232Y-114483863D01*
X144547038Y-114460382D01*
X144615092Y-114476207D01*
X144663787Y-114526312D01*
X144678118Y-114584180D01*
X144678118Y-115946548D01*
X144658433Y-116013587D01*
X144641799Y-116034229D01*
X144266203Y-116409825D01*
X144204880Y-116443310D01*
X144178522Y-116446144D01*
X140893118Y-116446144D01*
X140826079Y-116426459D01*
X140780324Y-116373655D01*
X140769118Y-116322144D01*
X140769118Y-116144293D01*
X140737095Y-115942110D01*
X140673836Y-115747421D01*
X140613565Y-115629134D01*
X140580905Y-115565035D01*
X140573174Y-115554394D01*
X140460589Y-115399431D01*
X140315831Y-115254673D01*
X140150231Y-115134360D01*
X140150230Y-115134359D01*
X140150228Y-115134358D01*
X140072258Y-115094630D01*
X139967841Y-115041426D01*
X139773152Y-114978167D01*
X139596300Y-114950157D01*
X139570970Y-114946145D01*
X139366266Y-114946145D01*
X139341947Y-114949996D01*
X139164083Y-114978167D01*
X138969394Y-115041426D01*
X138787004Y-115134360D01*
X138621404Y-115254673D01*
X138476646Y-115399431D01*
X138356333Y-115565031D01*
X138263399Y-115747421D01*
X138200140Y-115942110D01*
X138168118Y-116144293D01*
X138168118Y-116348996D01*
X138200140Y-116551179D01*
X138263399Y-116745868D01*
X138327309Y-116871298D01*
X138348437Y-116912763D01*
X138356333Y-116928258D01*
X138476646Y-117093858D01*
X138621404Y-117238616D01*
X138752466Y-117333836D01*
X138787008Y-117358932D01*
X138877706Y-117405145D01*
X138969394Y-117451863D01*
X138969396Y-117451863D01*
X138969399Y-117451865D01*
X139073755Y-117485772D01*
X139164083Y-117515122D01*
X139240113Y-117527164D01*
X139366266Y-117547145D01*
X139366267Y-117547145D01*
X139570969Y-117547145D01*
X139570970Y-117547145D01*
X139773152Y-117515122D01*
X139787460Y-117510472D01*
X139829661Y-117509266D01*
X139829661Y-117508286D01*
X139829662Y-117508286D01*
X139832703Y-117509179D01*
X139857297Y-117508476D01*
X139885546Y-117524695D01*
X139896701Y-117527971D01*
X139910208Y-117538855D01*
X139913459Y-117540722D01*
X139917337Y-117544600D01*
X139917343Y-117544605D01*
X140442779Y-118070041D01*
X140476264Y-118131364D01*
X140471280Y-118201054D01*
X140464527Y-118219159D01*
X140464526Y-118219161D01*
X140458119Y-118278761D01*
X140458119Y-118278768D01*
X140458118Y-118278780D01*
X140458118Y-120074515D01*
X140458119Y-120074521D01*
X140464526Y-120134128D01*
X140514820Y-120268973D01*
X140514824Y-120268980D01*
X140601070Y-120384189D01*
X140601073Y-120384192D01*
X140716282Y-120470438D01*
X140716289Y-120470442D01*
X140851135Y-120520736D01*
X140851134Y-120520736D01*
X140858062Y-120521480D01*
X140910745Y-120527145D01*
X142706490Y-120527144D01*
X142766101Y-120520736D01*
X142900949Y-120470441D01*
X143016164Y-120384191D01*
X143102414Y-120268976D01*
X143152709Y-120134128D01*
X143159118Y-120074518D01*
X143159117Y-120063957D01*
X143178797Y-119996920D01*
X143195436Y-119976271D01*
X143865655Y-119306053D01*
X143882693Y-119369638D01*
X143948519Y-119483652D01*
X144041611Y-119576744D01*
X144155625Y-119642570D01*
X144219207Y-119659607D01*
X143586900Y-120291914D01*
X143586900Y-120291915D01*
X143641067Y-120331269D01*
X143830400Y-120427740D01*
X144032488Y-120493402D01*
X144042587Y-120495002D01*
X144105721Y-120524931D01*
X144142653Y-120584242D01*
X144141655Y-120654105D01*
X144110870Y-120705156D01*
X143446200Y-121369826D01*
X143384877Y-121403311D01*
X143358519Y-121406145D01*
X142010747Y-121406145D01*
X142010741Y-121406146D01*
X141951134Y-121412553D01*
X141816289Y-121462847D01*
X141816282Y-121462851D01*
X141701073Y-121549097D01*
X141701070Y-121549100D01*
X141614824Y-121664309D01*
X141614820Y-121664316D01*
X141564526Y-121799162D01*
X141558119Y-121858761D01*
X141558118Y-121858780D01*
X141558118Y-122068010D01*
X141538433Y-122135049D01*
X141485629Y-122180804D01*
X141416471Y-122190748D01*
X141352915Y-122161723D01*
X141337782Y-122146083D01*
X141105012Y-121858865D01*
X141102119Y-121855154D01*
X140687618Y-121302039D01*
X140685811Y-121299563D01*
X140588784Y-121163039D01*
X140585235Y-121157764D01*
X140558481Y-121115700D01*
X140558480Y-121115698D01*
X140558477Y-121115695D01*
X140558301Y-121115485D01*
X140541498Y-121096446D01*
X140541320Y-121096254D01*
X140502905Y-121064475D01*
X140498108Y-121060295D01*
X140488446Y-121051429D01*
X140474336Y-121035396D01*
X140471547Y-121032377D01*
X140432565Y-120999948D01*
X140428028Y-120995983D01*
X140384674Y-120956198D01*
X140384969Y-120955875D01*
X140367740Y-120939805D01*
X140293183Y-120847843D01*
X140292668Y-120847204D01*
X140035429Y-120525587D01*
X140024580Y-120508577D01*
X140021712Y-120504309D01*
X140021710Y-120504304D01*
X140012099Y-120493402D01*
X139988030Y-120466099D01*
X139984210Y-120461551D01*
X139952399Y-120421779D01*
X139952394Y-120421775D01*
X139948727Y-120418252D01*
X139933799Y-120404585D01*
X139869164Y-120331269D01*
X139598819Y-120024612D01*
X139590184Y-120012257D01*
X139589879Y-120012480D01*
X139585099Y-120005901D01*
X139563533Y-119983179D01*
X139547629Y-119966420D01*
X139544591Y-119963100D01*
X139508572Y-119922243D01*
X139508565Y-119922238D01*
X139502446Y-119916900D01*
X139502694Y-119916615D01*
X139491151Y-119906912D01*
X138505056Y-118867885D01*
X138496144Y-118856065D01*
X138495800Y-118856335D01*
X138490794Y-118849933D01*
X138451643Y-118811493D01*
X138448610Y-118808408D01*
X138410804Y-118768574D01*
X138410801Y-118768572D01*
X138404488Y-118763460D01*
X138404762Y-118763121D01*
X138393096Y-118754010D01*
X138235934Y-118599704D01*
X137344688Y-117724656D01*
X137335610Y-117713436D01*
X137335212Y-117713770D01*
X137329994Y-117707539D01*
X137329992Y-117707537D01*
X137329991Y-117707535D01*
X137289146Y-117670028D01*
X137286143Y-117667176D01*
X137246562Y-117628313D01*
X137240074Y-117623429D01*
X137240383Y-117623017D01*
X137228701Y-117614521D01*
X136823595Y-117242521D01*
X136813377Y-117230792D01*
X136813175Y-117230976D01*
X136807713Y-117224949D01*
X136766803Y-117190240D01*
X136763156Y-117187020D01*
X136723670Y-117150761D01*
X136723667Y-117150759D01*
X136723665Y-117150757D01*
X136723662Y-117150755D01*
X136717015Y-117146090D01*
X136717171Y-117145867D01*
X136704266Y-117137183D01*
X136353177Y-116839315D01*
X136348274Y-116834926D01*
X136105882Y-116606087D01*
X136105725Y-116605938D01*
X136029623Y-116533840D01*
X136022868Y-116526921D01*
X135995033Y-116496092D01*
X135995029Y-116496089D01*
X135988024Y-116491553D01*
X135970141Y-116477487D01*
X135964092Y-116471756D01*
X135927575Y-116451968D01*
X135919262Y-116447034D01*
X135917887Y-116446144D01*
X135823181Y-116384826D01*
X135818045Y-116381315D01*
X135487726Y-116143115D01*
X135485694Y-116141618D01*
X134804676Y-115629134D01*
X134749589Y-115587680D01*
X134730730Y-115570139D01*
X134730271Y-115569613D01*
X134730268Y-115569611D01*
X134689527Y-115542255D01*
X134684092Y-115538389D01*
X134644868Y-115508872D01*
X134644865Y-115508870D01*
X134644196Y-115508601D01*
X134621452Y-115496548D01*
X133750969Y-114912074D01*
X133706284Y-114858361D01*
X133697733Y-114789017D01*
X133728029Y-114726057D01*
X133787554Y-114689472D01*
X133800682Y-114686656D01*
X133897040Y-114671394D01*
X133927484Y-114666573D01*
X133927484Y-114666572D01*
X133927489Y-114666572D01*
X134099374Y-114610723D01*
X134260406Y-114528673D01*
X134354401Y-114460382D01*
X134406614Y-114422448D01*
X134406616Y-114422445D01*
X134406620Y-114422443D01*
X134534416Y-114294647D01*
X134534418Y-114294643D01*
X134534421Y-114294641D01*
X134581003Y-114230524D01*
X134640646Y-114148433D01*
X134722696Y-113987401D01*
X134778545Y-113815516D01*
X134806145Y-113641257D01*
X134836074Y-113578123D01*
X134895386Y-113541192D01*
X134965248Y-113542190D01*
X135023481Y-113580800D01*
X135051091Y-113641258D01*
X135078690Y-113815512D01*
X135078690Y-113815514D01*
X135078691Y-113815516D01*
X135134540Y-113987401D01*
X135216458Y-114148174D01*
X135216592Y-114148436D01*
X135322814Y-114294641D01*
X135450621Y-114422448D01*
X135580878Y-114517083D01*
X135596830Y-114528673D01*
X135757862Y-114610723D01*
X135929747Y-114666572D01*
X136108253Y-114694845D01*
X136108254Y-114694845D01*
X136288982Y-114694845D01*
X136288983Y-114694845D01*
X136467489Y-114666572D01*
X136639374Y-114610723D01*
X136800406Y-114528673D01*
X136894401Y-114460382D01*
X136946614Y-114422448D01*
X136946616Y-114422445D01*
X136946620Y-114422443D01*
X137074416Y-114294647D01*
X137074418Y-114294643D01*
X137074421Y-114294641D01*
X137121003Y-114230524D01*
X137180646Y-114148433D01*
X137262696Y-113987401D01*
X137318545Y-113815516D01*
X137346145Y-113641257D01*
X137376074Y-113578123D01*
X137425928Y-113547081D01*
X137424610Y-113546207D01*
X137511307Y-113546207D01*
X137563481Y-113580800D01*
X137591091Y-113641258D01*
X137618690Y-113815512D01*
X137618690Y-113815514D01*
X137618691Y-113815516D01*
X137674540Y-113987401D01*
X137756458Y-114148174D01*
X137756592Y-114148436D01*
X137862814Y-114294641D01*
X137990621Y-114422448D01*
X138120878Y-114517083D01*
X138136830Y-114528673D01*
X138297862Y-114610723D01*
X138469747Y-114666572D01*
X138648253Y-114694845D01*
X138648254Y-114694845D01*
X138828982Y-114694845D01*
X138828983Y-114694845D01*
X139007489Y-114666572D01*
X139179374Y-114610723D01*
X139340406Y-114528673D01*
X139434401Y-114460382D01*
X139486614Y-114422448D01*
X139486616Y-114422445D01*
X139486620Y-114422443D01*
X139614416Y-114294647D01*
X139614418Y-114294643D01*
X139614421Y-114294641D01*
X139661003Y-114230524D01*
X139720646Y-114148433D01*
X139802696Y-113987401D01*
X139858545Y-113815516D01*
X139886145Y-113641257D01*
X139916074Y-113578123D01*
X139965928Y-113547081D01*
X139964610Y-113546207D01*
X140051307Y-113546207D01*
X140103481Y-113580800D01*
X140131091Y-113641258D01*
X140158690Y-113815512D01*
X140158690Y-113815514D01*
X140158691Y-113815516D01*
X140214540Y-113987401D01*
X140296458Y-114148174D01*
X140296592Y-114148436D01*
X140402814Y-114294641D01*
X140530621Y-114422448D01*
X140660878Y-114517083D01*
X140676830Y-114528673D01*
X140837862Y-114610723D01*
X141009747Y-114666572D01*
X141188253Y-114694845D01*
X141188254Y-114694845D01*
X141368982Y-114694845D01*
X141368983Y-114694845D01*
X141547489Y-114666572D01*
X141719374Y-114610723D01*
X141880406Y-114528673D01*
X141974401Y-114460382D01*
X142026614Y-114422448D01*
X142026616Y-114422445D01*
X142026620Y-114422443D01*
X142154416Y-114294647D01*
X142154418Y-114294643D01*
X142154421Y-114294641D01*
X142201003Y-114230524D01*
X142260646Y-114148433D01*
X142342696Y-113987401D01*
X142398545Y-113815516D01*
X142426398Y-113639660D01*
X142456326Y-113576529D01*
X142503698Y-113547031D01*
X142454007Y-113514084D01*
X142426397Y-113453628D01*
X142398545Y-113277774D01*
X142342696Y-113105889D01*
X142260646Y-112944857D01*
X142239872Y-112916264D01*
X142154421Y-112798648D01*
X142026614Y-112670841D01*
X141880409Y-112564619D01*
X141880408Y-112564618D01*
X141880406Y-112564617D01*
X141719374Y-112482567D01*
X141547489Y-112426718D01*
X141547487Y-112426717D01*
X141547485Y-112426717D01*
X141422850Y-112406976D01*
X141368983Y-112398445D01*
X141188253Y-112398445D01*
X141146872Y-112404999D01*
X141009750Y-112426717D01*
X140837859Y-112482568D01*
X140676826Y-112564619D01*
X140530621Y-112670841D01*
X140402814Y-112798648D01*
X140296592Y-112944853D01*
X140214541Y-113105886D01*
X140214540Y-113105888D01*
X140214540Y-113105889D01*
X140206065Y-113131971D01*
X140158690Y-113277777D01*
X140131091Y-113452031D01*
X140101162Y-113515166D01*
X140051307Y-113546207D01*
X139964610Y-113546207D01*
X139913755Y-113512489D01*
X139886145Y-113452031D01*
X139878476Y-113403612D01*
X139858545Y-113277774D01*
X139802696Y-113105889D01*
X139720646Y-112944857D01*
X139699872Y-112916264D01*
X139614421Y-112798648D01*
X139486614Y-112670841D01*
X139340409Y-112564619D01*
X139340408Y-112564618D01*
X139340406Y-112564617D01*
X139179374Y-112482567D01*
X139007489Y-112426718D01*
X139007487Y-112426717D01*
X139007485Y-112426717D01*
X138882850Y-112406976D01*
X138828983Y-112398445D01*
X138648253Y-112398445D01*
X138606872Y-112404999D01*
X138469750Y-112426717D01*
X138297859Y-112482568D01*
X138136826Y-112564619D01*
X137990621Y-112670841D01*
X137862814Y-112798648D01*
X137756592Y-112944853D01*
X137674541Y-113105886D01*
X137674540Y-113105888D01*
X137674540Y-113105889D01*
X137666065Y-113131971D01*
X137618690Y-113277777D01*
X137591091Y-113452031D01*
X137561162Y-113515166D01*
X137511307Y-113546207D01*
X137424610Y-113546207D01*
X137373755Y-113512489D01*
X137346145Y-113452031D01*
X137338476Y-113403612D01*
X137318545Y-113277774D01*
X137262696Y-113105889D01*
X137180646Y-112944857D01*
X137159872Y-112916264D01*
X137074421Y-112798648D01*
X136946614Y-112670841D01*
X136800409Y-112564619D01*
X136800408Y-112564618D01*
X136800406Y-112564617D01*
X136639374Y-112482567D01*
X136467489Y-112426718D01*
X136467487Y-112426717D01*
X136467485Y-112426717D01*
X136342850Y-112406976D01*
X136288983Y-112398445D01*
X136108253Y-112398445D01*
X136030468Y-112410765D01*
X135990576Y-112417083D01*
X135921282Y-112408127D01*
X135883498Y-112382290D01*
X135136208Y-111635000D01*
X135136206Y-111634997D01*
X135017335Y-111516126D01*
X135017327Y-111516120D01*
X134890484Y-111442888D01*
X134890478Y-111442885D01*
X134880405Y-111437068D01*
X134819311Y-111420698D01*
X134727675Y-111396144D01*
X134569561Y-111396144D01*
X134561965Y-111396144D01*
X134561949Y-111396145D01*
X122274317Y-111396145D01*
X122207278Y-111376460D01*
X122161523Y-111323656D01*
X122151579Y-111254498D01*
X122180604Y-111190942D01*
X122201433Y-111171826D01*
X122210979Y-111164890D01*
X122210979Y-111164889D01*
X122210983Y-111164887D01*
X122366860Y-111009010D01*
X122496433Y-110830667D01*
X122596513Y-110634251D01*
X122664633Y-110424596D01*
X122699118Y-110206867D01*
X122699118Y-109986423D01*
X122664633Y-109768694D01*
X122617748Y-109624395D01*
X122596514Y-109559041D01*
X122596513Y-109559038D01*
X122548781Y-109465361D01*
X122496433Y-109362623D01*
X122461243Y-109314188D01*
X122366865Y-109184286D01*
X122366861Y-109184281D01*
X122210981Y-109028401D01*
X122210976Y-109028397D01*
X122032643Y-108898832D01*
X122032642Y-108898831D01*
X122032640Y-108898830D01*
X121969714Y-108866767D01*
X121836224Y-108798749D01*
X121836221Y-108798748D01*
X121626570Y-108730630D01*
X121465013Y-108705042D01*
X121408840Y-108696145D01*
X121188396Y-108696145D01*
X121132223Y-108705042D01*
X120970665Y-108730630D01*
X120761014Y-108798748D01*
X120761011Y-108798749D01*
X120564592Y-108898832D01*
X120386259Y-109028397D01*
X120386254Y-109028401D01*
X120336081Y-109078574D01*
X120274758Y-109112058D01*
X120205066Y-109107073D01*
X120149133Y-109065202D01*
X120132219Y-109034225D01*
X120102415Y-108954316D01*
X120102411Y-108954309D01*
X120016165Y-108839100D01*
X120016162Y-108839097D01*
X119900953Y-108752851D01*
X119900946Y-108752847D01*
X119766100Y-108702553D01*
X119766101Y-108702553D01*
X119706501Y-108696146D01*
X119706499Y-108696145D01*
X119706491Y-108696145D01*
X119706482Y-108696145D01*
X117810747Y-108696145D01*
X117810741Y-108696146D01*
X117751134Y-108702553D01*
X117616289Y-108752847D01*
X117616282Y-108752851D01*
X117501073Y-108839097D01*
X117501070Y-108839100D01*
X117414824Y-108954309D01*
X117414820Y-108954316D01*
X117364526Y-109089162D01*
X117358119Y-109148761D01*
X117358118Y-109148780D01*
X117358118Y-109365196D01*
X117338433Y-109432235D01*
X117285629Y-109477990D01*
X117216471Y-109487934D01*
X117152915Y-109458909D01*
X117146437Y-109452877D01*
X115526576Y-107833016D01*
X117227393Y-107833016D01*
X117234116Y-107830232D01*
X117431600Y-107756576D01*
X117438939Y-107754097D01*
X117483790Y-107740492D01*
X117491266Y-107738477D01*
X117551981Y-107724129D01*
X117559573Y-107722584D01*
X117605778Y-107714673D01*
X117613451Y-107713604D01*
X117717374Y-107702433D01*
X117720679Y-107702123D01*
X117740719Y-107700510D01*
X117744040Y-107700287D01*
X117770723Y-107698859D01*
X117774036Y-107698726D01*
X117789895Y-107698302D01*
X119727393Y-107698302D01*
X119743292Y-107698729D01*
X119746612Y-107698862D01*
X119773298Y-107700294D01*
X119776607Y-107700516D01*
X119796600Y-107702126D01*
X119799903Y-107702437D01*
X119903793Y-107713607D01*
X119911461Y-107714674D01*
X119957647Y-107722581D01*
X119965237Y-107724126D01*
X120025948Y-107738471D01*
X120033427Y-107740487D01*
X120078290Y-107754095D01*
X120085630Y-107756574D01*
X120283120Y-107830232D01*
X120291300Y-107833620D01*
X120340037Y-107855878D01*
X120347951Y-107859840D01*
X120378961Y-107876773D01*
X120397214Y-107869213D01*
X120401745Y-107867439D01*
X120429377Y-107857245D01*
X120433979Y-107855650D01*
X120680922Y-107775415D01*
X120685582Y-107774001D01*
X120713949Y-107766001D01*
X120718664Y-107764771D01*
X120756780Y-107755622D01*
X120761535Y-107754579D01*
X120790407Y-107748837D01*
X120795196Y-107747982D01*
X121051624Y-107707368D01*
X121056447Y-107706701D01*
X121085680Y-107703241D01*
X121090518Y-107702764D01*
X121129597Y-107699686D01*
X121134462Y-107699399D01*
X121163914Y-107698241D01*
X121168786Y-107698145D01*
X121229393Y-107698145D01*
X121229393Y-106601671D01*
X119727393Y-106601671D01*
X119727393Y-107698302D01*
X117789895Y-107698302D01*
X117794084Y-107698190D01*
X117797398Y-107698146D01*
X118729393Y-107698145D01*
X118729393Y-106601671D01*
X117227393Y-106601671D01*
X117227393Y-107833016D01*
X115526576Y-107833016D01*
X113297231Y-105603671D01*
X114727393Y-105603671D01*
X116229393Y-105603671D01*
X117227393Y-105603671D01*
X118729393Y-105603671D01*
X119727393Y-105603671D01*
X121092804Y-105603671D01*
X121092596Y-105601559D01*
X121089383Y-105552549D01*
X121089117Y-105544437D01*
X121089117Y-105325280D01*
X121089118Y-105325241D01*
X121089118Y-104640655D01*
X121089117Y-104640631D01*
X121089117Y-104408853D01*
X121089383Y-104400741D01*
X121092596Y-104351731D01*
X121093391Y-104343654D01*
X121101924Y-104278854D01*
X121103246Y-104270850D01*
X121112825Y-104222697D01*
X121114667Y-104214796D01*
X121144979Y-104101671D01*
X119727393Y-104101671D01*
X119727393Y-105603671D01*
X118729393Y-105603671D01*
X118729393Y-104101671D01*
X117227393Y-104101671D01*
X117227393Y-105603671D01*
X116229393Y-105603671D01*
X116229393Y-104101671D01*
X114727393Y-104101671D01*
X114727393Y-105603671D01*
X113297231Y-105603671D01*
X110797231Y-103103671D01*
X112227393Y-103103671D01*
X113729393Y-103103671D01*
X113729393Y-102145144D01*
X114727393Y-102145144D01*
X114727393Y-103103671D01*
X116229393Y-103103671D01*
X116229393Y-102144933D01*
X116223152Y-102145100D01*
X116219838Y-102145144D01*
X114727393Y-102145144D01*
X113729393Y-102145144D01*
X113729393Y-102080614D01*
X117227393Y-102080614D01*
X117227393Y-103103671D01*
X118729393Y-103103671D01*
X119727393Y-103103671D01*
X121229393Y-103103671D01*
X121229393Y-102913898D01*
X127227393Y-102913898D01*
X127227393Y-103103671D01*
X128729393Y-103103671D01*
X128729393Y-102603181D01*
X128728063Y-102603996D01*
X128723868Y-102606456D01*
X128698172Y-102620847D01*
X128693876Y-102623143D01*
X128473040Y-102735664D01*
X128468655Y-102737790D01*
X128441881Y-102750132D01*
X128437415Y-102752086D01*
X128401199Y-102767084D01*
X128396668Y-102768857D01*
X128369059Y-102779041D01*
X128364465Y-102780634D01*
X128128756Y-102857222D01*
X128124093Y-102858636D01*
X128095714Y-102866639D01*
X128090995Y-102867870D01*
X128052876Y-102877018D01*
X128048126Y-102878060D01*
X128019264Y-102883800D01*
X128014475Y-102884655D01*
X127769692Y-102923426D01*
X127764862Y-102924094D01*
X127735589Y-102927557D01*
X127730745Y-102928034D01*
X127691665Y-102931108D01*
X127686806Y-102931395D01*
X127657392Y-102932550D01*
X127652527Y-102932645D01*
X127404709Y-102932645D01*
X127399844Y-102932550D01*
X127370430Y-102931395D01*
X127365571Y-102931108D01*
X127326491Y-102928034D01*
X127321647Y-102927557D01*
X127292374Y-102924094D01*
X127287544Y-102923426D01*
X127227393Y-102913898D01*
X121229393Y-102913898D01*
X121229393Y-102720200D01*
X122227393Y-102720200D01*
X122281265Y-102666328D01*
X122287186Y-102660782D01*
X122324097Y-102628411D01*
X122330367Y-102623265D01*
X122382220Y-102583474D01*
X122388819Y-102578745D01*
X122429658Y-102551457D01*
X122436550Y-102547172D01*
X122554838Y-102478878D01*
X122630084Y-102435434D01*
X122637242Y-102431608D01*
X122681299Y-102409882D01*
X122688694Y-102406532D01*
X122749081Y-102381522D01*
X122756672Y-102378665D01*
X122803157Y-102362886D01*
X122810920Y-102360531D01*
X123026769Y-102302694D01*
X123034670Y-102300852D01*
X123082823Y-102291273D01*
X123090827Y-102289951D01*
X123139033Y-102283603D01*
X123014154Y-102129388D01*
X123010203Y-102124240D01*
X122987123Y-102092474D01*
X122983446Y-102087124D01*
X122954974Y-102043283D01*
X122951581Y-102037746D01*
X122931936Y-102003720D01*
X122928838Y-101998015D01*
X122817974Y-101780433D01*
X122815179Y-101774574D01*
X122799205Y-101738696D01*
X122796722Y-101732699D01*
X122777987Y-101683895D01*
X122775820Y-101677776D01*
X122763680Y-101640415D01*
X122761835Y-101634188D01*
X122753122Y-101601671D01*
X122227393Y-101601671D01*
X122227393Y-102720200D01*
X121229393Y-102720200D01*
X121229393Y-101601671D01*
X119727393Y-101601671D01*
X119727393Y-103103671D01*
X118729393Y-103103671D01*
X118729393Y-101961911D01*
X118700022Y-101974077D01*
X118695491Y-101975851D01*
X118667859Y-101986045D01*
X118663257Y-101987640D01*
X118416314Y-102067875D01*
X118411654Y-102069289D01*
X118383287Y-102077289D01*
X118378572Y-102078519D01*
X118340456Y-102087668D01*
X118335701Y-102088711D01*
X118306829Y-102094453D01*
X118302040Y-102095308D01*
X118045612Y-102135922D01*
X118040789Y-102136589D01*
X118011556Y-102140049D01*
X118006718Y-102140526D01*
X117967639Y-102143604D01*
X117962774Y-102143891D01*
X117933322Y-102145049D01*
X117928450Y-102145145D01*
X117668786Y-102145145D01*
X117663914Y-102145049D01*
X117634462Y-102143891D01*
X117629597Y-102143604D01*
X117590518Y-102140526D01*
X117585680Y-102140049D01*
X117556447Y-102136589D01*
X117551624Y-102135922D01*
X117295196Y-102095308D01*
X117290407Y-102094453D01*
X117261535Y-102088711D01*
X117256780Y-102087668D01*
X117227393Y-102080614D01*
X113729393Y-102080614D01*
X113729393Y-102011101D01*
X113725936Y-102009670D01*
X113677199Y-101987412D01*
X113669285Y-101983450D01*
X113606695Y-101949273D01*
X113599081Y-101944755D01*
X113554014Y-101915791D01*
X113546744Y-101910743D01*
X113374445Y-101781759D01*
X113367554Y-101776206D01*
X113327069Y-101741126D01*
X113320590Y-101735094D01*
X113270169Y-101684673D01*
X113264137Y-101678194D01*
X113229057Y-101637709D01*
X113223504Y-101630818D01*
X113201684Y-101601671D01*
X112227393Y-101601671D01*
X112227393Y-103103671D01*
X110797231Y-103103671D01*
X110078560Y-102385000D01*
X110078558Y-102384997D01*
X109959687Y-102266126D01*
X109959686Y-102266125D01*
X109860809Y-102209039D01*
X109860808Y-102209038D01*
X109822753Y-102187067D01*
X109766851Y-102172088D01*
X109670027Y-102146144D01*
X109511913Y-102146144D01*
X109504317Y-102146144D01*
X109504301Y-102146145D01*
X102160454Y-102146145D01*
X102093415Y-102126460D01*
X102049970Y-102078441D01*
X102016432Y-102012621D01*
X101886865Y-101834286D01*
X101886861Y-101834281D01*
X101730981Y-101678401D01*
X101730976Y-101678397D01*
X101552643Y-101548832D01*
X101552642Y-101548831D01*
X101552640Y-101548830D01*
X101489714Y-101516767D01*
X101356224Y-101448749D01*
X101356221Y-101448748D01*
X101146570Y-101380630D01*
X101037704Y-101363387D01*
X100928840Y-101346145D01*
X100827715Y-101346145D01*
X100760676Y-101326460D01*
X100714921Y-101273656D01*
X100704977Y-101204498D01*
X100734002Y-101140942D01*
X100740034Y-101134464D01*
X101015567Y-100858932D01*
X101491035Y-100383464D01*
X101552358Y-100349979D01*
X101578716Y-100347145D01*
X113734119Y-100347145D01*
X113801158Y-100366830D01*
X113846913Y-100419634D01*
X113858119Y-100471145D01*
X113858119Y-100694521D01*
X113864526Y-100754128D01*
X113914820Y-100888973D01*
X113914824Y-100888980D01*
X114001070Y-101004189D01*
X114001073Y-101004192D01*
X114116282Y-101090438D01*
X114116289Y-101090442D01*
X114251135Y-101140736D01*
X114251134Y-101140736D01*
X114258062Y-101141480D01*
X114310745Y-101147145D01*
X116206490Y-101147144D01*
X116266101Y-101140736D01*
X116400949Y-101090441D01*
X116516164Y-101004191D01*
X116602414Y-100888976D01*
X116604091Y-100884479D01*
X116632219Y-100809065D01*
X116674089Y-100753131D01*
X116739554Y-100728713D01*
X116807827Y-100743564D01*
X116836082Y-100764716D01*
X116886254Y-100814888D01*
X116886259Y-100814892D01*
X116988206Y-100888960D01*
X117064596Y-100944460D01*
X117186145Y-101006393D01*
X117261011Y-101044540D01*
X117261014Y-101044541D01*
X117328143Y-101066352D01*
X117470667Y-101112660D01*
X117688396Y-101147145D01*
X117688397Y-101147145D01*
X117908839Y-101147145D01*
X117908840Y-101147145D01*
X118126569Y-101112660D01*
X118336224Y-101044540D01*
X118532640Y-100944460D01*
X118710983Y-100814887D01*
X118866860Y-100659010D01*
X118907066Y-100603671D01*
X120042087Y-100603671D01*
X121229393Y-100603671D01*
X121229393Y-99101671D01*
X120110985Y-99101671D01*
X120119848Y-99128949D01*
X120121262Y-99133609D01*
X120129262Y-99161976D01*
X120130492Y-99166691D01*
X120139641Y-99204807D01*
X120140684Y-99209562D01*
X120146426Y-99238434D01*
X120147281Y-99243223D01*
X120187895Y-99499651D01*
X120188562Y-99504474D01*
X120192022Y-99533707D01*
X120192499Y-99538545D01*
X120195577Y-99577624D01*
X120195864Y-99582489D01*
X120197022Y-99611941D01*
X120197118Y-99616813D01*
X120197118Y-99876477D01*
X120197022Y-99881349D01*
X120195864Y-99910801D01*
X120195577Y-99915666D01*
X120192499Y-99954745D01*
X120192022Y-99959583D01*
X120188562Y-99988816D01*
X120187895Y-99993639D01*
X120147281Y-100250067D01*
X120146426Y-100254856D01*
X120140684Y-100283728D01*
X120139641Y-100288483D01*
X120130492Y-100326599D01*
X120129262Y-100331314D01*
X120121262Y-100359681D01*
X120119848Y-100364341D01*
X120042087Y-100603671D01*
X118907066Y-100603671D01*
X118996433Y-100480667D01*
X119096513Y-100284251D01*
X119164633Y-100074596D01*
X119199118Y-99856867D01*
X119199118Y-99636423D01*
X119164633Y-99418694D01*
X119126124Y-99300174D01*
X119096514Y-99209041D01*
X119096513Y-99209038D01*
X119046543Y-99110968D01*
X118996433Y-99012623D01*
X118979878Y-98989837D01*
X118866865Y-98834286D01*
X118866861Y-98834281D01*
X118710981Y-98678401D01*
X118710976Y-98678397D01*
X118532643Y-98548832D01*
X118532642Y-98548831D01*
X118532640Y-98548830D01*
X118415409Y-98489097D01*
X118336224Y-98448749D01*
X118336221Y-98448748D01*
X118126570Y-98380630D01*
X118017704Y-98363387D01*
X117908840Y-98346145D01*
X117688396Y-98346145D01*
X117615819Y-98357640D01*
X117470665Y-98380630D01*
X117261014Y-98448748D01*
X117261011Y-98448749D01*
X117064592Y-98548832D01*
X116886259Y-98678397D01*
X116886254Y-98678401D01*
X116836081Y-98728574D01*
X116774758Y-98762058D01*
X116705066Y-98757073D01*
X116649133Y-98715202D01*
X116632219Y-98684225D01*
X116602415Y-98604316D01*
X116602411Y-98604309D01*
X116516165Y-98489100D01*
X116516162Y-98489097D01*
X116400953Y-98402851D01*
X116400946Y-98402847D01*
X116266100Y-98352553D01*
X116266101Y-98352553D01*
X116206501Y-98346146D01*
X116206499Y-98346145D01*
X116206491Y-98346145D01*
X116206482Y-98346145D01*
X114310747Y-98346145D01*
X114310741Y-98346146D01*
X114251134Y-98352553D01*
X114116289Y-98402847D01*
X114116282Y-98402851D01*
X114001073Y-98489097D01*
X114001070Y-98489100D01*
X113914824Y-98604309D01*
X113914820Y-98604316D01*
X113864526Y-98739162D01*
X113858119Y-98798761D01*
X113858119Y-98798768D01*
X113858118Y-98798780D01*
X113858118Y-99022145D01*
X113838433Y-99089184D01*
X113785629Y-99134939D01*
X113734118Y-99146145D01*
X101365288Y-99146145D01*
X101365272Y-99146144D01*
X101357676Y-99146144D01*
X101199561Y-99146144D01*
X101123197Y-99166606D01*
X101046832Y-99187068D01*
X101046827Y-99187071D01*
X100909908Y-99266120D01*
X100909900Y-99266126D01*
X99090799Y-101085228D01*
X99029476Y-101118713D01*
X98959784Y-101113729D01*
X98903851Y-101071857D01*
X98879434Y-101006393D01*
X98879118Y-100997547D01*
X98879118Y-99288353D01*
X98898803Y-99221314D01*
X98915437Y-99200672D01*
X100816010Y-97300099D01*
X102227393Y-97300099D01*
X102227393Y-98103671D01*
X103729393Y-98103671D01*
X104727393Y-98103671D01*
X106229393Y-98103671D01*
X107227393Y-98103671D01*
X108729393Y-98103671D01*
X109727393Y-98103671D01*
X111229393Y-98103671D01*
X112227393Y-98103671D01*
X113051103Y-98103671D01*
X113055990Y-98094722D01*
X113060508Y-98087108D01*
X113089472Y-98042041D01*
X113094520Y-98034771D01*
X113223504Y-97862472D01*
X113229057Y-97855581D01*
X113264137Y-97815096D01*
X113270169Y-97808617D01*
X113320590Y-97758196D01*
X113327069Y-97752164D01*
X113367554Y-97717084D01*
X113374445Y-97711531D01*
X113546744Y-97582547D01*
X113554014Y-97577499D01*
X113599081Y-97548535D01*
X113606695Y-97544017D01*
X113669285Y-97509840D01*
X113677199Y-97505878D01*
X113725936Y-97483620D01*
X113729393Y-97482188D01*
X113729393Y-97412675D01*
X117227393Y-97412675D01*
X117256780Y-97405622D01*
X117261535Y-97404579D01*
X117290407Y-97398837D01*
X117295196Y-97397982D01*
X117551624Y-97357368D01*
X117556447Y-97356701D01*
X117585680Y-97353241D01*
X117590518Y-97352764D01*
X117629597Y-97349686D01*
X117634462Y-97349399D01*
X117663914Y-97348241D01*
X117668786Y-97348145D01*
X117928450Y-97348145D01*
X117933322Y-97348241D01*
X117962774Y-97349399D01*
X117967639Y-97349686D01*
X118006718Y-97352764D01*
X118011556Y-97353241D01*
X118040789Y-97356701D01*
X118045612Y-97357368D01*
X118302040Y-97397982D01*
X118306829Y-97398837D01*
X118335701Y-97404579D01*
X118340456Y-97405622D01*
X118378572Y-97414771D01*
X118383287Y-97416001D01*
X118411654Y-97424001D01*
X118416314Y-97425415D01*
X118663257Y-97505650D01*
X118667859Y-97507245D01*
X118695491Y-97517439D01*
X118700022Y-97519213D01*
X118729393Y-97531378D01*
X118729393Y-96601671D01*
X117227393Y-96601671D01*
X117227393Y-97412675D01*
X113729393Y-97412675D01*
X113729393Y-97348145D01*
X114727393Y-97348145D01*
X116219866Y-97348145D01*
X116223190Y-97348190D01*
X116229393Y-97348356D01*
X116229393Y-96601671D01*
X114727393Y-96601671D01*
X114727393Y-97348145D01*
X113729393Y-97348145D01*
X113729393Y-96601671D01*
X112227393Y-96601671D01*
X112227393Y-98103671D01*
X111229393Y-98103671D01*
X111229393Y-96601671D01*
X109727393Y-96601671D01*
X109727393Y-98103671D01*
X108729393Y-98103671D01*
X108729393Y-96601671D01*
X107227393Y-96601671D01*
X107227393Y-98103671D01*
X106229393Y-98103671D01*
X106229393Y-96601671D01*
X104727393Y-96601671D01*
X104727393Y-98103671D01*
X103729393Y-98103671D01*
X103729393Y-96601671D01*
X102925821Y-96601671D01*
X102227393Y-97300099D01*
X100816010Y-97300099D01*
X103316010Y-94800099D01*
X104727393Y-94800099D01*
X104727393Y-95603671D01*
X106229393Y-95603671D01*
X107227393Y-95603671D01*
X108729393Y-95603671D01*
X109727393Y-95603671D01*
X111229393Y-95603671D01*
X112227393Y-95603671D01*
X113729393Y-95603671D01*
X114727393Y-95603671D01*
X116229393Y-95603671D01*
X116229393Y-94101671D01*
X114727393Y-94101671D01*
X114727393Y-95603671D01*
X113729393Y-95603671D01*
X113729393Y-94101671D01*
X112227393Y-94101671D01*
X112227393Y-95603671D01*
X111229393Y-95603671D01*
X111229393Y-94101671D01*
X109727393Y-94101671D01*
X109727393Y-95603671D01*
X108729393Y-95603671D01*
X108729393Y-94101671D01*
X107227393Y-94101671D01*
X107227393Y-95603671D01*
X106229393Y-95603671D01*
X106229393Y-94101671D01*
X105425822Y-94101671D01*
X104727393Y-94800099D01*
X103316010Y-94800099D01*
X105816010Y-92300099D01*
X107227393Y-92300099D01*
X107227393Y-93103671D01*
X108729393Y-93103671D01*
X109727393Y-93103671D01*
X111229393Y-93103671D01*
X111229393Y-91645144D01*
X112227393Y-91645144D01*
X112227393Y-93103671D01*
X113729393Y-93103671D01*
X113729393Y-91624481D01*
X113585370Y-91601671D01*
X112787162Y-91601671D01*
X112783447Y-91602798D01*
X112775970Y-91604813D01*
X112715255Y-91619161D01*
X112707663Y-91620706D01*
X112661458Y-91628617D01*
X112653785Y-91629686D01*
X112549862Y-91640857D01*
X112546557Y-91641167D01*
X112526517Y-91642780D01*
X112523196Y-91643003D01*
X112496513Y-91644431D01*
X112493200Y-91644564D01*
X112473152Y-91645100D01*
X112469838Y-91645144D01*
X112227393Y-91645144D01*
X111229393Y-91645144D01*
X110547370Y-91645145D01*
X110544046Y-91645100D01*
X110523944Y-91644561D01*
X110520624Y-91644428D01*
X110493938Y-91642996D01*
X110490629Y-91642774D01*
X110470636Y-91641164D01*
X110467333Y-91640853D01*
X110363443Y-91629683D01*
X110355775Y-91628616D01*
X110309589Y-91620709D01*
X110301999Y-91619164D01*
X110241288Y-91604819D01*
X110233810Y-91602804D01*
X110230075Y-91601671D01*
X109727393Y-91601671D01*
X109727393Y-93103671D01*
X108729393Y-93103671D01*
X108729393Y-91601671D01*
X107925822Y-91601671D01*
X107227393Y-92300099D01*
X105816010Y-92300099D01*
X108232645Y-89883464D01*
X108293968Y-89849979D01*
X108320326Y-89847145D01*
X109984119Y-89847145D01*
X110051158Y-89866830D01*
G37*
%TD.AperFunction*%
%TA.AperFunction,Conductor*%
G36*
X143971379Y-117666829D02*
G01*
X144017134Y-117719633D01*
X144027078Y-117788791D01*
X143998053Y-117852347D01*
X143942658Y-117889075D01*
X143830400Y-117925549D01*
X143641057Y-118022025D01*
X143586900Y-118061372D01*
X143586900Y-118061373D01*
X144219209Y-118693682D01*
X144155625Y-118710720D01*
X144041611Y-118776546D01*
X143948519Y-118869638D01*
X143882693Y-118983652D01*
X143865655Y-119047236D01*
X143195436Y-118377017D01*
X143161951Y-118315694D01*
X143159117Y-118289336D01*
X143159117Y-118278774D01*
X143159116Y-118278768D01*
X143159115Y-118278761D01*
X143152709Y-118219162D01*
X143145955Y-118201054D01*
X143102415Y-118084316D01*
X143102411Y-118084309D01*
X143016165Y-117969100D01*
X143016162Y-117969097D01*
X142900953Y-117882851D01*
X142895686Y-117879975D01*
X142846282Y-117830568D01*
X142831432Y-117762295D01*
X142855851Y-117696831D01*
X142911785Y-117654961D01*
X142955116Y-117647144D01*
X143904340Y-117647144D01*
X143971379Y-117666829D01*
G37*
%TD.AperFunction*%
%TA.AperFunction,Conductor*%
G36*
X147665500Y-113540595D02*
G01*
X147723733Y-113579204D01*
X147751343Y-113639662D01*
X147779177Y-113815396D01*
X147835004Y-113987211D01*
X147917019Y-114148174D01*
X147928176Y-114163531D01*
X147928177Y-114163531D01*
X148504918Y-113586790D01*
X148504918Y-113598477D01*
X148531748Y-113698607D01*
X148583580Y-113788382D01*
X148656881Y-113861683D01*
X148746656Y-113913515D01*
X148846786Y-113940345D01*
X148858472Y-113940345D01*
X148856199Y-113942618D01*
X148794876Y-113976103D01*
X148768518Y-113978937D01*
X148676768Y-113978937D01*
X148603345Y-113998611D01*
X148524039Y-114019861D01*
X148524034Y-114019864D01*
X148387115Y-114098913D01*
X148387107Y-114098919D01*
X147533459Y-114952566D01*
X147472136Y-114986051D01*
X147407463Y-114982817D01*
X147393153Y-114978168D01*
X147292061Y-114962156D01*
X147190970Y-114946145D01*
X146986266Y-114946145D01*
X146960936Y-114950157D01*
X146784082Y-114978168D01*
X146784075Y-114978169D01*
X146750435Y-114989100D01*
X146680594Y-114991095D01*
X146620762Y-114955014D01*
X146589934Y-114892313D01*
X146588118Y-114871169D01*
X146588118Y-114769455D01*
X146607803Y-114702416D01*
X146660607Y-114656661D01*
X146673790Y-114651527D01*
X146799374Y-114610723D01*
X146960406Y-114528673D01*
X147054401Y-114460382D01*
X147106614Y-114422448D01*
X147106616Y-114422445D01*
X147106620Y-114422443D01*
X147234416Y-114294647D01*
X147234418Y-114294643D01*
X147234421Y-114294641D01*
X147281003Y-114230524D01*
X147340646Y-114148433D01*
X147422696Y-113987401D01*
X147478545Y-113815516D01*
X147506398Y-113639660D01*
X147536326Y-113576529D01*
X147595637Y-113539597D01*
X147665500Y-113540595D01*
G37*
%TD.AperFunction*%
%TA.AperFunction,Conductor*%
G36*
X167858683Y-83859212D02*
G01*
X168165764Y-83954258D01*
X168169128Y-83955354D01*
X169188124Y-84303590D01*
X169189683Y-84304135D01*
X170233876Y-84678331D01*
X170236903Y-84679462D01*
X171329414Y-85104276D01*
X171332202Y-85105399D01*
X172435068Y-85565453D01*
X172437847Y-85566653D01*
X173508834Y-86044921D01*
X173511543Y-86046170D01*
X174566349Y-86548533D01*
X174568300Y-86549484D01*
X175411122Y-86970191D01*
X175615015Y-87071967D01*
X175617225Y-87073098D01*
X176499773Y-87535932D01*
X176503848Y-87538167D01*
X177082581Y-87869898D01*
X177082788Y-87870018D01*
X177325771Y-88010502D01*
X177329425Y-88012936D01*
X177390389Y-88047861D01*
X177390709Y-88048045D01*
X177446705Y-88080420D01*
X177446710Y-88080421D01*
X177451492Y-88083186D01*
X177455416Y-88085114D01*
X178140039Y-88477323D01*
X178144399Y-88479941D01*
X179398201Y-89268903D01*
X179401413Y-89270995D01*
X179784534Y-89529124D01*
X180409714Y-89950342D01*
X180413326Y-89952871D01*
X181244209Y-90556721D01*
X181245468Y-90557648D01*
X181532418Y-90771769D01*
X181804438Y-90974750D01*
X181806425Y-90976264D01*
X182064070Y-91176919D01*
X182458114Y-91483801D01*
X182463104Y-91487900D01*
X182614659Y-91619161D01*
X182861549Y-91832992D01*
X182867439Y-91838766D01*
X182869964Y-91840920D01*
X182869965Y-91840921D01*
X182897455Y-91864369D01*
X182918286Y-91882137D01*
X182918996Y-91882747D01*
X182969556Y-91926537D01*
X182976145Y-91931488D01*
X183063607Y-92006090D01*
X183080948Y-92024216D01*
X183082423Y-92026109D01*
X183120257Y-92054695D01*
X183125977Y-92059289D01*
X183159723Y-92088074D01*
X183162053Y-92090061D01*
X183164216Y-92091091D01*
X183185649Y-92104106D01*
X183304000Y-92193532D01*
X183311348Y-92199542D01*
X183592402Y-92447954D01*
X183595853Y-92451123D01*
X183720978Y-92570519D01*
X184425897Y-93243161D01*
X184428383Y-93245600D01*
X184957054Y-93779221D01*
X185311608Y-94137096D01*
X185348518Y-94174351D01*
X185351389Y-94177347D01*
X185838929Y-94703644D01*
X186096643Y-94981844D01*
X186100361Y-94986045D01*
X186851756Y-95874624D01*
X186854739Y-95878291D01*
X187315032Y-96466723D01*
X187317786Y-96470381D01*
X187563876Y-96810113D01*
X187938872Y-97327804D01*
X187943297Y-97334342D01*
X188099949Y-97582547D01*
X188118103Y-97611311D01*
X188118249Y-97611544D01*
X188291928Y-97888088D01*
X188293166Y-97890372D01*
X188331360Y-97950875D01*
X188331513Y-97951117D01*
X188369765Y-98012024D01*
X188371275Y-98014106D01*
X188642657Y-98444008D01*
X188645162Y-98448154D01*
X188847777Y-98798773D01*
X188983871Y-99034280D01*
X188984119Y-99034712D01*
X189238464Y-99479146D01*
X189246812Y-99493732D01*
X189249948Y-99499568D01*
X189312990Y-99624817D01*
X189524442Y-100044920D01*
X189526494Y-100049200D01*
X189724711Y-100483656D01*
X189804714Y-100659010D01*
X189811054Y-100672905D01*
X189812595Y-100676428D01*
X189844483Y-100752492D01*
X190093803Y-101347209D01*
X190095722Y-101352070D01*
X190617292Y-102759814D01*
X190619128Y-102765138D01*
X190832876Y-103433799D01*
X190834234Y-103438345D01*
X191006850Y-104059320D01*
X191008235Y-104064782D01*
X191211689Y-104950917D01*
X191212502Y-104954728D01*
X191393757Y-105876003D01*
X191394502Y-105880165D01*
X191427262Y-106082963D01*
X191418520Y-106152284D01*
X191373689Y-106205874D01*
X191307001Y-106226719D01*
X191277804Y-106223753D01*
X190299852Y-106005197D01*
X190286430Y-106000530D01*
X190286252Y-106001072D01*
X190278542Y-105998529D01*
X190278540Y-105998528D01*
X190278537Y-105998527D01*
X190278536Y-105998527D01*
X190223676Y-105988107D01*
X190219772Y-105987300D01*
X190165274Y-105975121D01*
X190157185Y-105974400D01*
X190157235Y-105973835D01*
X190143061Y-105972796D01*
X189620317Y-105873517D01*
X189605104Y-105868844D01*
X189605051Y-105869033D01*
X189597245Y-105866809D01*
X189572870Y-105863211D01*
X189544733Y-105859057D01*
X189539743Y-105858215D01*
X189487613Y-105848315D01*
X189479500Y-105847854D01*
X189479511Y-105847658D01*
X189463615Y-105847081D01*
X188497239Y-105704418D01*
X188483148Y-105701494D01*
X188482485Y-105701315D01*
X188421810Y-105693268D01*
X188420007Y-105693016D01*
X188359270Y-105684050D01*
X188358574Y-105684040D01*
X188344226Y-105682978D01*
X186902674Y-105491779D01*
X186894287Y-105490137D01*
X186855579Y-105485312D01*
X186828148Y-105481892D01*
X186827296Y-105481782D01*
X186761239Y-105473020D01*
X186752684Y-105472483D01*
X185629057Y-105332404D01*
X185615942Y-105330048D01*
X185609776Y-105328594D01*
X185609771Y-105328593D01*
X185609770Y-105328593D01*
X185581665Y-105325751D01*
X185551438Y-105322694D01*
X185548578Y-105322371D01*
X185490385Y-105315117D01*
X185484063Y-105315160D01*
X185470747Y-105314534D01*
X184819573Y-105248689D01*
X184799355Y-105244431D01*
X184794716Y-105243570D01*
X184743948Y-105240897D01*
X184737997Y-105240440D01*
X184687395Y-105235324D01*
X184687394Y-105235324D01*
X184687393Y-105235324D01*
X184682689Y-105235466D01*
X184662048Y-105236584D01*
X183842914Y-105193451D01*
X183828531Y-105191036D01*
X183828459Y-105191517D01*
X183820422Y-105190307D01*
X183765209Y-105189287D01*
X183760982Y-105189137D01*
X183716081Y-105186773D01*
X183705818Y-105186233D01*
X183705817Y-105186233D01*
X183697719Y-105186868D01*
X183697681Y-105186384D01*
X183683166Y-105187771D01*
X182708586Y-105169765D01*
X182695572Y-105168838D01*
X182687667Y-105167854D01*
X182629773Y-105168267D01*
X182626602Y-105168249D01*
X182568715Y-105167180D01*
X182560800Y-105168074D01*
X182547783Y-105168853D01*
X181416215Y-105176935D01*
X181402411Y-105176263D01*
X181398811Y-105175885D01*
X181338987Y-105177464D01*
X181336604Y-105177504D01*
X181276676Y-105177932D01*
X181273074Y-105178433D01*
X181259293Y-105179568D01*
X179992575Y-105213005D01*
X179979115Y-105211794D01*
X179979061Y-105212516D01*
X179970961Y-105211899D01*
X179914088Y-105215027D01*
X179910556Y-105215171D01*
X179860447Y-105216494D01*
X179853581Y-105216676D01*
X179853577Y-105216677D01*
X179845557Y-105217949D01*
X179845443Y-105217231D01*
X179832126Y-105219535D01*
X179168583Y-105256030D01*
X179147906Y-105255439D01*
X179134385Y-105253917D01*
X179134382Y-105253917D01*
X179098492Y-105259329D01*
X179086816Y-105260528D01*
X179050579Y-105262521D01*
X179050570Y-105262523D01*
X179037648Y-105266758D01*
X179017523Y-105271538D01*
X177762190Y-105460832D01*
X177747062Y-105461399D01*
X177747083Y-105461760D01*
X177738971Y-105462213D01*
X177685610Y-105472294D01*
X177681085Y-105473062D01*
X177627361Y-105481164D01*
X177619555Y-105483414D01*
X177619455Y-105483067D01*
X177604985Y-105487526D01*
X176643638Y-105669154D01*
X176618530Y-105671292D01*
X176616440Y-105671256D01*
X176616429Y-105671258D01*
X176570116Y-105682831D01*
X176563079Y-105684374D01*
X176534183Y-105689834D01*
X176517343Y-105693016D01*
X176516189Y-105693234D01*
X176514303Y-105694142D01*
X176490609Y-105702701D01*
X175706593Y-105898632D01*
X175683444Y-105902139D01*
X175676804Y-105902509D01*
X175676801Y-105902510D01*
X175676798Y-105902511D01*
X175644223Y-105913216D01*
X175635754Y-105915999D01*
X175627112Y-105918495D01*
X175585192Y-105928972D01*
X175585184Y-105928976D01*
X175579369Y-105932203D01*
X175557918Y-105941579D01*
X174876414Y-106165550D01*
X174863003Y-106168292D01*
X174863151Y-106168963D01*
X174855214Y-106170705D01*
X174824199Y-106181920D01*
X174801862Y-106189996D01*
X174798440Y-106191177D01*
X174744569Y-106208881D01*
X174737250Y-106212403D01*
X174736952Y-106211783D01*
X174724708Y-106217893D01*
X174169179Y-106418761D01*
X174146381Y-106424628D01*
X174140123Y-106425617D01*
X174140117Y-106425619D01*
X174100353Y-106443308D01*
X174092123Y-106446622D01*
X174051198Y-106461420D01*
X174051197Y-106461421D01*
X174046001Y-106465043D01*
X174025503Y-106476607D01*
X173710403Y-106616787D01*
X173688336Y-106624211D01*
X173681539Y-106625806D01*
X173681537Y-106625806D01*
X173681536Y-106625807D01*
X173681534Y-106625807D01*
X173681529Y-106625810D01*
X173643737Y-106646077D01*
X173635538Y-106650093D01*
X173596380Y-106667513D01*
X173596378Y-106667515D01*
X173590950Y-106671907D01*
X173571558Y-106684787D01*
X173040587Y-106969549D01*
X173025186Y-106975769D01*
X173025206Y-106975814D01*
X173017737Y-106979025D01*
X172973139Y-107005580D01*
X172968311Y-107008311D01*
X172922567Y-107032845D01*
X172915972Y-107037585D01*
X172915943Y-107037545D01*
X172902679Y-107047534D01*
X172455343Y-107313892D01*
X172434643Y-107323751D01*
X172427230Y-107326472D01*
X172427229Y-107326473D01*
X172392912Y-107350643D01*
X172384949Y-107355807D01*
X172348887Y-107377279D01*
X172343383Y-107382933D01*
X172325938Y-107397812D01*
X172089688Y-107564204D01*
X172078179Y-107571402D01*
X172073804Y-107573815D01*
X172026091Y-107608961D01*
X172023955Y-107610500D01*
X171975524Y-107644612D01*
X171971857Y-107647990D01*
X171961394Y-107656619D01*
X171775875Y-107793279D01*
X171757144Y-107804670D01*
X171747774Y-107809287D01*
X171747767Y-107809291D01*
X171718113Y-107835277D01*
X171709939Y-107841850D01*
X171678184Y-107865243D01*
X171678178Y-107865249D01*
X171671656Y-107873411D01*
X171656511Y-107889259D01*
X171389087Y-108123604D01*
X171368088Y-108138458D01*
X171367453Y-108138814D01*
X171367449Y-108138817D01*
X171332336Y-108173097D01*
X171327441Y-108177626D01*
X171290522Y-108209979D01*
X171290518Y-108209984D01*
X171290112Y-108210592D01*
X171273671Y-108230371D01*
X170986715Y-108510524D01*
X170966321Y-108526629D01*
X170966274Y-108526658D01*
X170966269Y-108526662D01*
X170932503Y-108563221D01*
X170928054Y-108567795D01*
X170917145Y-108578446D01*
X170892457Y-108602548D01*
X170892430Y-108602595D01*
X170876895Y-108623431D01*
X170602237Y-108920821D01*
X170585868Y-108935645D01*
X170577853Y-108941697D01*
X170577852Y-108941697D01*
X170553353Y-108973116D01*
X170546664Y-108980993D01*
X170519644Y-109010250D01*
X170514967Y-109019148D01*
X170502994Y-109037699D01*
X170377527Y-109198607D01*
X170361775Y-109215345D01*
X170355972Y-109220463D01*
X170332673Y-109255549D01*
X170327166Y-109263194D01*
X170301254Y-109296428D01*
X170301253Y-109296430D01*
X170298232Y-109303564D01*
X170287347Y-109323805D01*
X170145881Y-109536844D01*
X170131508Y-109554668D01*
X170125959Y-109560377D01*
X170125957Y-109560379D01*
X170105519Y-109596968D01*
X170100565Y-109605089D01*
X170077376Y-109640010D01*
X170077376Y-109640011D01*
X170074842Y-109647547D01*
X170065566Y-109668491D01*
X169708950Y-110306902D01*
X169696354Y-110325331D01*
X169690352Y-110332607D01*
X169690347Y-110332614D01*
X169673559Y-110369414D01*
X169669004Y-110378412D01*
X169649279Y-110413726D01*
X169646969Y-110422864D01*
X169639570Y-110443927D01*
X169435934Y-110890336D01*
X169390201Y-110943160D01*
X169323170Y-110962873D01*
X169256122Y-110943217D01*
X169210345Y-110890433D01*
X169199117Y-110838877D01*
X169199117Y-109048773D01*
X169192709Y-108989162D01*
X169192223Y-108987860D01*
X169142415Y-108854316D01*
X169142411Y-108854309D01*
X169056165Y-108739100D01*
X169056162Y-108739097D01*
X168940953Y-108652851D01*
X168940946Y-108652847D01*
X168806100Y-108602553D01*
X168806101Y-108602553D01*
X168746501Y-108596146D01*
X168746499Y-108596145D01*
X168746491Y-108596145D01*
X168746482Y-108596145D01*
X166850747Y-108596145D01*
X166850741Y-108596146D01*
X166791134Y-108602553D01*
X166656289Y-108652847D01*
X166656282Y-108652851D01*
X166541073Y-108739097D01*
X166541070Y-108739100D01*
X166454824Y-108854309D01*
X166454821Y-108854314D01*
X166425016Y-108934226D01*
X166383144Y-108990159D01*
X166317680Y-109014576D01*
X166249407Y-108999724D01*
X166221153Y-108978573D01*
X166170981Y-108928401D01*
X166170976Y-108928397D01*
X165992641Y-108798830D01*
X165926823Y-108765293D01*
X165876027Y-108717318D01*
X165859119Y-108654809D01*
X165859119Y-108603439D01*
X165858882Y-108602553D01*
X165818195Y-108450711D01*
X165757618Y-108345787D01*
X165739142Y-108313785D01*
X165739136Y-108313777D01*
X165425119Y-107999760D01*
X169727393Y-107999760D01*
X169730167Y-108002164D01*
X169736646Y-108008196D01*
X169787067Y-108058617D01*
X169793099Y-108065096D01*
X169826524Y-108103671D01*
X169998410Y-108103671D01*
X170111102Y-107981652D01*
X170128248Y-107959855D01*
X170133469Y-107953646D01*
X170166286Y-107917119D01*
X170171903Y-107911264D01*
X170214708Y-107869473D01*
X170255287Y-107825538D01*
X170260982Y-107819762D01*
X170296576Y-107785954D01*
X170302636Y-107780564D01*
X170323953Y-107762817D01*
X170541666Y-107550264D01*
X170562021Y-107527076D01*
X170567565Y-107521163D01*
X170602278Y-107486477D01*
X170608198Y-107480936D01*
X170652012Y-107442538D01*
X170693669Y-107401872D01*
X170699654Y-107396399D01*
X170736949Y-107364475D01*
X170743280Y-107359405D01*
X170767963Y-107340929D01*
X170953843Y-107178042D01*
X170957268Y-107174289D01*
X170962928Y-107168479D01*
X171010023Y-107123198D01*
X171016049Y-107117772D01*
X171053579Y-107086138D01*
X171059947Y-107081118D01*
X171088214Y-107060292D01*
X171114627Y-107037149D01*
X171120902Y-107032004D01*
X171159876Y-107002124D01*
X171166473Y-106997400D01*
X171220811Y-106961125D01*
X171227690Y-106956851D01*
X171229393Y-106955868D01*
X171229393Y-106601671D01*
X169727393Y-106601671D01*
X169727393Y-107999760D01*
X165425119Y-107999760D01*
X165023504Y-107598145D01*
X167227393Y-107598145D01*
X168729393Y-107598145D01*
X168729393Y-106601671D01*
X167227393Y-106601671D01*
X167227393Y-107598145D01*
X165023504Y-107598145D01*
X164334029Y-106908670D01*
X162928357Y-105502999D01*
X162928356Y-105502997D01*
X162809485Y-105384126D01*
X162809484Y-105384125D01*
X162706828Y-105324857D01*
X162672553Y-105305068D01*
X162519825Y-105264144D01*
X162361711Y-105264144D01*
X162354115Y-105264144D01*
X162354099Y-105264145D01*
X159310238Y-105264145D01*
X159310222Y-105264144D01*
X159302626Y-105264144D01*
X159144511Y-105264144D01*
X159081374Y-105281062D01*
X158991782Y-105305068D01*
X158991777Y-105305071D01*
X158854858Y-105384120D01*
X158854850Y-105384126D01*
X157812748Y-106426228D01*
X157751425Y-106459713D01*
X157681733Y-106454729D01*
X157637386Y-106426228D01*
X157585831Y-106374673D01*
X157420231Y-106254360D01*
X157420230Y-106254359D01*
X157420228Y-106254358D01*
X157360162Y-106223753D01*
X157237841Y-106161426D01*
X157043152Y-106098167D01*
X156863049Y-106069642D01*
X156840970Y-106066145D01*
X156636266Y-106066145D01*
X156614187Y-106069642D01*
X156434083Y-106098167D01*
X156239394Y-106161426D01*
X156057004Y-106254360D01*
X155891404Y-106374673D01*
X155746646Y-106519431D01*
X155626333Y-106685031D01*
X155579103Y-106777725D01*
X155531128Y-106828521D01*
X155463307Y-106845316D01*
X155397172Y-106822779D01*
X155358133Y-106777725D01*
X155357501Y-106776485D01*
X155310905Y-106685035D01*
X155291337Y-106658102D01*
X155190589Y-106519431D01*
X155045831Y-106374673D01*
X154880231Y-106254360D01*
X154880230Y-106254359D01*
X154880228Y-106254358D01*
X154730487Y-106178061D01*
X154679691Y-106130086D01*
X154662896Y-106062265D01*
X154685433Y-105996130D01*
X154699094Y-105979902D01*
X156074535Y-104604464D01*
X156135858Y-104570979D01*
X156162216Y-104568145D01*
X186149420Y-104568145D01*
X186149436Y-104568146D01*
X186157032Y-104568146D01*
X186315143Y-104568146D01*
X186315146Y-104568146D01*
X186467874Y-104527222D01*
X186521733Y-104496126D01*
X186604805Y-104448165D01*
X186716609Y-104336361D01*
X186716609Y-104336359D01*
X186726813Y-104326156D01*
X186726817Y-104326151D01*
X186949503Y-104103464D01*
X187010824Y-104069981D01*
X187080516Y-104074965D01*
X187111493Y-104091881D01*
X187136282Y-104110438D01*
X187136289Y-104110442D01*
X187271135Y-104160736D01*
X187271134Y-104160736D01*
X187278062Y-104161480D01*
X187330745Y-104167145D01*
X189226490Y-104167144D01*
X189286101Y-104160736D01*
X189420949Y-104110441D01*
X189536164Y-104024191D01*
X189622414Y-103908976D01*
X189672709Y-103774128D01*
X189679118Y-103714518D01*
X189679117Y-101818773D01*
X189672709Y-101759162D01*
X189667598Y-101745460D01*
X189622415Y-101624316D01*
X189622411Y-101624309D01*
X189536165Y-101509100D01*
X189536162Y-101509097D01*
X189420953Y-101422851D01*
X189420946Y-101422847D01*
X189286100Y-101372553D01*
X189286101Y-101372553D01*
X189226501Y-101366146D01*
X189226499Y-101366145D01*
X189226491Y-101366145D01*
X189226483Y-101366145D01*
X187778715Y-101366145D01*
X187711676Y-101346460D01*
X187691034Y-101329826D01*
X185816009Y-99454801D01*
X187227393Y-99454801D01*
X188140737Y-100368145D01*
X188569842Y-100368145D01*
X188369010Y-99969140D01*
X188118934Y-99532166D01*
X187870161Y-99101671D01*
X187227393Y-99101671D01*
X187227393Y-99454801D01*
X185816009Y-99454801D01*
X185756208Y-99395000D01*
X185756206Y-99394997D01*
X183316008Y-96954799D01*
X184727393Y-96954799D01*
X185876265Y-98103671D01*
X186229393Y-98103671D01*
X186229393Y-96698654D01*
X186153529Y-96601671D01*
X184727393Y-96601671D01*
X184727393Y-96954799D01*
X183316008Y-96954799D01*
X180816008Y-94454799D01*
X182227393Y-94454799D01*
X183376265Y-95603671D01*
X183729393Y-95603671D01*
X183729393Y-94101671D01*
X182227393Y-94101671D01*
X182227393Y-94454799D01*
X180816008Y-94454799D01*
X178316008Y-91954799D01*
X179727393Y-91954799D01*
X180876265Y-93103671D01*
X181229393Y-93103671D01*
X181229393Y-91791825D01*
X181200349Y-91769206D01*
X180975830Y-91601671D01*
X179727393Y-91601671D01*
X179727393Y-91954799D01*
X178316008Y-91954799D01*
X175965436Y-89604227D01*
X175931951Y-89542904D01*
X175929117Y-89516546D01*
X175929117Y-89454799D01*
X177227393Y-89454799D01*
X178376265Y-90603671D01*
X178729393Y-90603671D01*
X178729393Y-90027197D01*
X177628194Y-89334262D01*
X177227393Y-89104651D01*
X177227393Y-89454799D01*
X175929117Y-89454799D01*
X175929117Y-88298774D01*
X175929116Y-88298768D01*
X175929115Y-88298761D01*
X175922709Y-88239162D01*
X175920497Y-88233232D01*
X175872415Y-88104316D01*
X175872411Y-88104309D01*
X175786165Y-87989100D01*
X175786162Y-87989097D01*
X175670953Y-87902851D01*
X175670946Y-87902847D01*
X175536100Y-87852553D01*
X175536101Y-87852553D01*
X175476501Y-87846146D01*
X175476499Y-87846145D01*
X175476491Y-87846145D01*
X175476482Y-87846145D01*
X173580747Y-87846145D01*
X173580741Y-87846146D01*
X173521134Y-87852553D01*
X173386289Y-87902847D01*
X173386282Y-87902851D01*
X173271073Y-87989097D01*
X173271070Y-87989100D01*
X173184824Y-88104309D01*
X173184821Y-88104314D01*
X173155016Y-88184226D01*
X173113144Y-88240159D01*
X173047680Y-88264576D01*
X172979407Y-88249724D01*
X172951153Y-88228573D01*
X172900981Y-88178401D01*
X172900976Y-88178397D01*
X172722643Y-88048832D01*
X172722642Y-88048831D01*
X172722640Y-88048830D01*
X172647418Y-88010502D01*
X172526224Y-87948749D01*
X172526221Y-87948748D01*
X172316570Y-87880630D01*
X172140201Y-87852696D01*
X172098840Y-87846145D01*
X171878396Y-87846145D01*
X171837035Y-87852696D01*
X171660665Y-87880630D01*
X171451014Y-87948748D01*
X171451011Y-87948749D01*
X171254592Y-88048832D01*
X171076259Y-88178397D01*
X171076254Y-88178401D01*
X170920374Y-88334281D01*
X170920370Y-88334286D01*
X170790805Y-88512619D01*
X170690722Y-88709038D01*
X170690721Y-88709041D01*
X170622603Y-88918692D01*
X170605168Y-89028775D01*
X170588118Y-89136423D01*
X170588118Y-89356867D01*
X170591231Y-89376522D01*
X170622603Y-89574597D01*
X170634165Y-89610181D01*
X170645428Y-89644847D01*
X170645429Y-89644848D01*
X170647424Y-89714689D01*
X170615179Y-89770847D01*
X169342335Y-91043691D01*
X169281012Y-91077176D01*
X169211320Y-91072192D01*
X169155387Y-91030320D01*
X169130970Y-90964856D01*
X169138360Y-90912977D01*
X169179604Y-90801526D01*
X169188650Y-90782324D01*
X169194777Y-90771771D01*
X169204619Y-90735381D01*
X169208016Y-90724749D01*
X169221103Y-90689389D01*
X169222231Y-90677235D01*
X169225998Y-90656341D01*
X169267057Y-90504546D01*
X169272613Y-90488481D01*
X169281570Y-90467393D01*
X169285334Y-90440642D01*
X169288426Y-90425549D01*
X169295478Y-90399479D01*
X169295478Y-90399478D01*
X169295479Y-90399475D01*
X169295532Y-90376549D01*
X169296740Y-90359585D01*
X169321332Y-90184834D01*
X169324947Y-90167868D01*
X169331043Y-90146672D01*
X169331550Y-90118799D01*
X169332737Y-90103795D01*
X169336625Y-90076174D01*
X169333940Y-90054282D01*
X169333040Y-90036950D01*
X169348758Y-89173928D01*
X169350809Y-89158036D01*
X169350636Y-89158018D01*
X169351508Y-89149938D01*
X169351072Y-89131357D01*
X169350265Y-89097044D01*
X169350253Y-89091890D01*
X169351216Y-89039047D01*
X169351212Y-89039034D01*
X169350301Y-89030970D01*
X169350473Y-89030950D01*
X169348341Y-89015076D01*
X169327356Y-88121250D01*
X169328139Y-88104144D01*
X169330733Y-88081674D01*
X169326736Y-88054668D01*
X169325435Y-88039428D01*
X169324795Y-88012127D01*
X169318427Y-87990415D01*
X169314754Y-87973686D01*
X169284234Y-87767409D01*
X169282929Y-87746612D01*
X169283213Y-87733416D01*
X169282966Y-87732408D01*
X169274477Y-87697768D01*
X169272248Y-87686403D01*
X169266879Y-87650112D01*
X169265581Y-87647114D01*
X169261634Y-87637999D01*
X169254986Y-87618237D01*
X169200970Y-87397828D01*
X169197501Y-87373158D01*
X169197391Y-87370335D01*
X169183460Y-87325436D01*
X169181462Y-87318229D01*
X169179034Y-87308321D01*
X169170276Y-87272583D01*
X169168915Y-87270104D01*
X169159176Y-87247166D01*
X169158933Y-87246384D01*
X169073616Y-86971399D01*
X169006024Y-86753542D01*
X169001317Y-86731393D01*
X169000787Y-86726921D01*
X169000301Y-86722818D01*
X168999984Y-86722023D01*
X168985012Y-86684516D01*
X168981749Y-86675305D01*
X168969533Y-86635928D01*
X168964930Y-86628629D01*
X168954648Y-86608451D01*
X168951942Y-86601671D01*
X170003835Y-86601671D01*
X170097207Y-86902618D01*
X170112158Y-86941030D01*
X170114852Y-86948681D01*
X170129628Y-86995491D01*
X170131815Y-87003302D01*
X170144479Y-87054980D01*
X170160251Y-87105812D01*
X170162400Y-87113637D01*
X170173853Y-87161389D01*
X170175487Y-87169338D01*
X170182446Y-87209898D01*
X170210359Y-87323792D01*
X170215188Y-87337305D01*
X170217666Y-87345030D01*
X170235587Y-87407882D01*
X170237555Y-87415752D01*
X170247900Y-87463739D01*
X170249350Y-87471722D01*
X170253521Y-87499920D01*
X170260306Y-87527603D01*
X170261978Y-87535539D01*
X170268849Y-87574422D01*
X170384409Y-87458863D01*
X170387913Y-87455493D01*
X170409518Y-87435519D01*
X170413157Y-87432285D01*
X170442964Y-87406824D01*
X170446727Y-87403735D01*
X170469885Y-87385476D01*
X170473775Y-87382531D01*
X170683847Y-87229907D01*
X170687841Y-87227124D01*
X170712336Y-87210757D01*
X170716437Y-87208132D01*
X170749859Y-87187651D01*
X170754063Y-87185187D01*
X170779758Y-87170798D01*
X170784049Y-87168504D01*
X171015393Y-87050627D01*
X171019773Y-87048503D01*
X171046531Y-87036167D01*
X171050996Y-87034214D01*
X171087214Y-87019213D01*
X171091745Y-87017439D01*
X171119377Y-87007245D01*
X171123979Y-87005650D01*
X171229393Y-86971399D01*
X171229393Y-86601671D01*
X170003835Y-86601671D01*
X168951942Y-86601671D01*
X168930913Y-86548991D01*
X168793060Y-86203646D01*
X168788692Y-86190657D01*
X168787541Y-86186486D01*
X168787541Y-86186484D01*
X168764314Y-86131567D01*
X168763396Y-86129332D01*
X168741313Y-86074009D01*
X168741307Y-86074001D01*
X168739197Y-86070235D01*
X168733166Y-86057920D01*
X168563590Y-85656969D01*
X168556073Y-85632314D01*
X168555958Y-85631721D01*
X168534393Y-85587482D01*
X168531667Y-85581488D01*
X168512493Y-85536153D01*
X168512121Y-85535675D01*
X168498475Y-85513799D01*
X168381448Y-85273727D01*
X168236736Y-84976860D01*
X168231538Y-84962262D01*
X168231271Y-84962364D01*
X168228396Y-84954763D01*
X168202986Y-84907412D01*
X168200786Y-84903113D01*
X168177249Y-84854829D01*
X168177249Y-84854828D01*
X168177246Y-84854824D01*
X168172764Y-84848049D01*
X168173001Y-84847891D01*
X168164202Y-84835138D01*
X167898995Y-84340922D01*
X167889933Y-84319373D01*
X167887916Y-84312935D01*
X167881966Y-84303559D01*
X167864818Y-84276536D01*
X167860254Y-84268728D01*
X167839874Y-84230750D01*
X167839872Y-84230746D01*
X167839869Y-84230742D01*
X167839865Y-84230737D01*
X167835252Y-84225828D01*
X167820918Y-84207354D01*
X167717329Y-84044109D01*
X167698030Y-83976958D01*
X167718100Y-83910033D01*
X167771166Y-83864582D01*
X167840381Y-83855037D01*
X167858683Y-83859212D01*
G37*
%TD.AperFunction*%
%TA.AperFunction,Conductor*%
G36*
X132505032Y-105719507D02*
G01*
X132508875Y-105723350D01*
X132542360Y-105784673D01*
X132537376Y-105854365D01*
X132512241Y-105893475D01*
X132510918Y-105896670D01*
X132510918Y-106016975D01*
X132529049Y-106131446D01*
X132520095Y-106200740D01*
X132475099Y-106254192D01*
X132408347Y-106274832D01*
X132406576Y-106274845D01*
X132215123Y-106274845D01*
X132148084Y-106255160D01*
X132102329Y-106202356D01*
X132092385Y-106133198D01*
X132121410Y-106069642D01*
X132134415Y-106057705D01*
X132134539Y-106056119D01*
X131455065Y-105376645D01*
X131461279Y-105376645D01*
X131563012Y-105349386D01*
X131654224Y-105296725D01*
X131728698Y-105222251D01*
X131781359Y-105131039D01*
X131808618Y-105029306D01*
X131808618Y-105023091D01*
X132505032Y-105719507D01*
G37*
%TD.AperFunction*%
%TA.AperFunction,Conductor*%
G36*
X132599566Y-103990775D02*
G01*
X132611527Y-104001290D01*
X133267596Y-104657359D01*
X133301081Y-104718682D01*
X133296097Y-104788374D01*
X133254225Y-104844307D01*
X133222400Y-104860814D01*
X133222547Y-104861169D01*
X133218433Y-104862872D01*
X133218259Y-104862963D01*
X133218055Y-104863029D01*
X133057094Y-104945042D01*
X133057090Y-104945045D01*
X133041730Y-104956203D01*
X133041730Y-104956204D01*
X133618471Y-105532945D01*
X133606786Y-105532945D01*
X133506656Y-105559775D01*
X133416881Y-105611607D01*
X133343580Y-105684908D01*
X133291748Y-105774683D01*
X133264918Y-105874813D01*
X133264918Y-105886498D01*
X132666051Y-105287632D01*
X132632566Y-105226309D01*
X132637550Y-105156618D01*
X132666051Y-105112269D01*
X132708618Y-105069702D01*
X132708618Y-104874327D01*
X132676608Y-104672227D01*
X132613373Y-104477613D01*
X132520477Y-104295295D01*
X132423528Y-104161857D01*
X132400048Y-104096051D01*
X132415873Y-104027997D01*
X132465979Y-103979302D01*
X132534457Y-103965426D01*
X132599566Y-103990775D01*
G37*
%TD.AperFunction*%
%TA.AperFunction,Conductor*%
G36*
X147528618Y-103546644D02*
G01*
X147878590Y-103546644D01*
X147878604Y-103546643D01*
X147981315Y-103536150D01*
X148147737Y-103481003D01*
X148147742Y-103481001D01*
X148296963Y-103388960D01*
X148365730Y-103320194D01*
X148427053Y-103286709D01*
X148496745Y-103291693D01*
X148526292Y-103307554D01*
X148597008Y-103358932D01*
X148779399Y-103451865D01*
X148887918Y-103487125D01*
X148891196Y-103488190D01*
X148948872Y-103527628D01*
X148976070Y-103591986D01*
X148964155Y-103660833D01*
X148940559Y-103693802D01*
X147430203Y-105204158D01*
X147368880Y-105237643D01*
X147299188Y-105232659D01*
X147243255Y-105190787D01*
X147242238Y-105189409D01*
X147234416Y-105178643D01*
X147106620Y-105050847D01*
X147106614Y-105050841D01*
X146960409Y-104944619D01*
X146960408Y-104944618D01*
X146960406Y-104944617D01*
X146799374Y-104862567D01*
X146627489Y-104806718D01*
X146627487Y-104806717D01*
X146627485Y-104806717D01*
X146502308Y-104786891D01*
X146448983Y-104778445D01*
X146268253Y-104778445D01*
X146229884Y-104784522D01*
X146153816Y-104796570D01*
X146084522Y-104787615D01*
X146031070Y-104742619D01*
X146010431Y-104675867D01*
X146010418Y-104674097D01*
X146010418Y-103438468D01*
X146030103Y-103371429D01*
X146082907Y-103325674D01*
X146152065Y-103315730D01*
X146215621Y-103344755D01*
X146222099Y-103350787D01*
X146260272Y-103388960D01*
X146409493Y-103481001D01*
X146409498Y-103481003D01*
X146575920Y-103536150D01*
X146575927Y-103536151D01*
X146678637Y-103546644D01*
X147028617Y-103546644D01*
X147028618Y-103546643D01*
X147028618Y-102562331D01*
X147033012Y-102566725D01*
X147124224Y-102619386D01*
X147225957Y-102646645D01*
X147331279Y-102646645D01*
X147433012Y-102619386D01*
X147524224Y-102566725D01*
X147528618Y-102562331D01*
X147528618Y-103546644D01*
G37*
%TD.AperFunction*%
%TA.AperFunction,Conductor*%
G36*
X150830281Y-99265830D02*
G01*
X150876036Y-99318634D01*
X150884859Y-99345953D01*
X150911351Y-99479136D01*
X150911354Y-99479146D01*
X150971692Y-99624817D01*
X150971699Y-99624830D01*
X151059300Y-99755933D01*
X151059303Y-99755937D01*
X151170797Y-99867431D01*
X151170801Y-99867434D01*
X151301904Y-99955035D01*
X151301917Y-99955042D01*
X151437178Y-100011068D01*
X151447593Y-100015382D01*
X151579213Y-100041563D01*
X151602243Y-100046144D01*
X151602246Y-100046145D01*
X151602248Y-100046145D01*
X151759931Y-100046145D01*
X151759932Y-100046145D01*
X151760776Y-100045977D01*
X151761228Y-100046017D01*
X151765997Y-100045548D01*
X151766086Y-100046452D01*
X151830367Y-100052203D01*
X151872651Y-100079913D01*
X153747202Y-101954464D01*
X153780687Y-102015787D01*
X153775703Y-102085479D01*
X153733831Y-102141412D01*
X153668367Y-102165829D01*
X153659521Y-102166145D01*
X150803622Y-102166145D01*
X150803606Y-102166144D01*
X150796010Y-102166144D01*
X150688484Y-102166144D01*
X150621445Y-102146459D01*
X150575690Y-102093655D01*
X150566011Y-102061542D01*
X150547095Y-101942111D01*
X150483838Y-101747426D01*
X150483836Y-101747423D01*
X150483836Y-101747421D01*
X150432483Y-101646636D01*
X150390905Y-101565035D01*
X150379133Y-101548832D01*
X150270589Y-101399431D01*
X150125831Y-101254673D01*
X149960231Y-101134360D01*
X149960230Y-101134359D01*
X149960228Y-101134358D01*
X149900516Y-101103933D01*
X149777841Y-101041426D01*
X149583152Y-100978167D01*
X149408613Y-100950523D01*
X149380970Y-100946145D01*
X149176266Y-100946145D01*
X149151947Y-100949996D01*
X148974083Y-100978167D01*
X148779394Y-101041426D01*
X148597009Y-101134357D01*
X148597007Y-101134358D01*
X148526294Y-101185733D01*
X148460487Y-101209212D01*
X148392433Y-101193385D01*
X148365729Y-101173095D01*
X148296963Y-101104329D01*
X148147742Y-101012288D01*
X148147737Y-101012286D01*
X147981315Y-100957139D01*
X147981308Y-100957138D01*
X147878604Y-100946645D01*
X147841054Y-100946645D01*
X147774015Y-100926960D01*
X147728260Y-100874156D01*
X147718316Y-100804998D01*
X147747341Y-100741442D01*
X147753359Y-100734978D01*
X149205874Y-99282464D01*
X149267197Y-99248979D01*
X149293555Y-99246145D01*
X150763242Y-99246145D01*
X150830281Y-99265830D01*
G37*
%TD.AperFunction*%
%TA.AperFunction,Conductor*%
G36*
X173082166Y-90236215D02*
G01*
X173138100Y-90278086D01*
X173155016Y-90309064D01*
X173184820Y-90388973D01*
X173184824Y-90388980D01*
X173271070Y-90504189D01*
X173271073Y-90504192D01*
X173386282Y-90590438D01*
X173386289Y-90590442D01*
X173521135Y-90640736D01*
X173521134Y-90640736D01*
X173528062Y-90641480D01*
X173580745Y-90647145D01*
X175258519Y-90647144D01*
X175325558Y-90666829D01*
X175346200Y-90683463D01*
X183597201Y-98934464D01*
X183630686Y-98995787D01*
X183625702Y-99065479D01*
X183583830Y-99121412D01*
X183518366Y-99145829D01*
X183509520Y-99146145D01*
X172553117Y-99146145D01*
X172486078Y-99126460D01*
X172440323Y-99073656D01*
X172429117Y-99022145D01*
X172429117Y-98798774D01*
X172429116Y-98798768D01*
X172429115Y-98798761D01*
X172422709Y-98739162D01*
X172418342Y-98727454D01*
X172372415Y-98604316D01*
X172372411Y-98604309D01*
X172286165Y-98489100D01*
X172286162Y-98489097D01*
X172170953Y-98402851D01*
X172170946Y-98402847D01*
X172036100Y-98352553D01*
X172036101Y-98352553D01*
X171976501Y-98346146D01*
X171976499Y-98346145D01*
X171976491Y-98346145D01*
X171976483Y-98346145D01*
X170528715Y-98346145D01*
X170461676Y-98326460D01*
X170441034Y-98309826D01*
X170315208Y-98184000D01*
X170315206Y-98183997D01*
X170196335Y-98065126D01*
X170196334Y-98065125D01*
X170103710Y-98011649D01*
X170059403Y-97986068D01*
X169906675Y-97945144D01*
X169748561Y-97945144D01*
X169740965Y-97945144D01*
X169740949Y-97945145D01*
X168077817Y-97945145D01*
X168077801Y-97945144D01*
X168070205Y-97945144D01*
X167912090Y-97945144D01*
X167797988Y-97975718D01*
X167759361Y-97986068D01*
X167715055Y-98011649D01*
X167715054Y-98011649D01*
X167622434Y-98065122D01*
X167622429Y-98065126D01*
X167557414Y-98130142D01*
X167510627Y-98176929D01*
X167510625Y-98176931D01*
X165718417Y-99969140D01*
X163958731Y-101728826D01*
X163897408Y-101762311D01*
X163871050Y-101765145D01*
X155307715Y-101765145D01*
X155240676Y-101745460D01*
X155220034Y-101728826D01*
X154648633Y-101157425D01*
X154615148Y-101096102D01*
X154620132Y-101026410D01*
X154662004Y-100970477D01*
X154693508Y-100954142D01*
X154693337Y-100953729D01*
X154697837Y-100951865D01*
X154709063Y-100946145D01*
X154880228Y-100858932D01*
X154973208Y-100791377D01*
X155045831Y-100738616D01*
X155045833Y-100738613D01*
X155045837Y-100738611D01*
X155190584Y-100593864D01*
X155190586Y-100593860D01*
X155190589Y-100593858D01*
X155310902Y-100428259D01*
X155310901Y-100428259D01*
X155310905Y-100428255D01*
X155358134Y-100335562D01*
X155406107Y-100284768D01*
X155473928Y-100267973D01*
X155540063Y-100290510D01*
X155579101Y-100335562D01*
X155620543Y-100416896D01*
X155626333Y-100428259D01*
X155746646Y-100593858D01*
X155891404Y-100738616D01*
X156046367Y-100851201D01*
X156057008Y-100858932D01*
X156173225Y-100918148D01*
X156239394Y-100951863D01*
X156239396Y-100951863D01*
X156239399Y-100951865D01*
X156329077Y-100981003D01*
X156434083Y-101015122D01*
X156505352Y-101026410D01*
X156636266Y-101047145D01*
X156636267Y-101047145D01*
X156840969Y-101047145D01*
X156840970Y-101047145D01*
X157043152Y-101015122D01*
X157237837Y-100951865D01*
X157420228Y-100858932D01*
X157513208Y-100791377D01*
X157585831Y-100738616D01*
X157585833Y-100738613D01*
X157585837Y-100738611D01*
X157730584Y-100593864D01*
X157730586Y-100593860D01*
X157730589Y-100593858D01*
X157850902Y-100428259D01*
X157850901Y-100428259D01*
X157850905Y-100428255D01*
X157898134Y-100335562D01*
X157946107Y-100284768D01*
X158013928Y-100267973D01*
X158080063Y-100290510D01*
X158119101Y-100335562D01*
X158160543Y-100416896D01*
X158166333Y-100428259D01*
X158286646Y-100593858D01*
X158431404Y-100738616D01*
X158586367Y-100851201D01*
X158597008Y-100858932D01*
X158713225Y-100918148D01*
X158779394Y-100951863D01*
X158779396Y-100951863D01*
X158779399Y-100951865D01*
X158869077Y-100981003D01*
X158974083Y-101015122D01*
X159045352Y-101026410D01*
X159176266Y-101047145D01*
X159176267Y-101047145D01*
X159380969Y-101047145D01*
X159380970Y-101047145D01*
X159583152Y-101015122D01*
X159777837Y-100951865D01*
X159960228Y-100858932D01*
X160053208Y-100791377D01*
X160125831Y-100738616D01*
X160125833Y-100738613D01*
X160125837Y-100738611D01*
X160270584Y-100593864D01*
X160339001Y-100499695D01*
X160394330Y-100457030D01*
X160463943Y-100451051D01*
X160525739Y-100483656D01*
X160557025Y-100533577D01*
X160584259Y-100615764D01*
X160584261Y-100615769D01*
X160676302Y-100764990D01*
X160800272Y-100888960D01*
X160949493Y-100981001D01*
X160949498Y-100981003D01*
X161115920Y-101036150D01*
X161115927Y-101036151D01*
X161218637Y-101046644D01*
X161568617Y-101046644D01*
X161568618Y-101046643D01*
X161568618Y-100062331D01*
X161573012Y-100066725D01*
X161664224Y-100119386D01*
X161765957Y-100146645D01*
X161871279Y-100146645D01*
X161973012Y-100119386D01*
X162064224Y-100066725D01*
X162068618Y-100062331D01*
X162068618Y-101046644D01*
X162418590Y-101046644D01*
X162418604Y-101046643D01*
X162521315Y-101036150D01*
X162687737Y-100981003D01*
X162687742Y-100981001D01*
X162836963Y-100888960D01*
X162960933Y-100764990D01*
X163052974Y-100615769D01*
X163052976Y-100615764D01*
X163108123Y-100449342D01*
X163108124Y-100449335D01*
X163118617Y-100346631D01*
X163118618Y-100346618D01*
X163118618Y-99996645D01*
X162134304Y-99996645D01*
X162138698Y-99992251D01*
X162191359Y-99901039D01*
X162218618Y-99799306D01*
X162218618Y-99693984D01*
X162191359Y-99592251D01*
X162138698Y-99501039D01*
X162134304Y-99496645D01*
X163118617Y-99496645D01*
X163118617Y-99146673D01*
X163118616Y-99146658D01*
X163107848Y-99041253D01*
X163120617Y-98972560D01*
X163143519Y-98940977D01*
X164711959Y-97372537D01*
X172227393Y-97372537D01*
X172227647Y-97372581D01*
X172235237Y-97374126D01*
X172295948Y-97388471D01*
X172303427Y-97390487D01*
X172348290Y-97404095D01*
X172355630Y-97406574D01*
X172553120Y-97480232D01*
X172561300Y-97483620D01*
X172610037Y-97505878D01*
X172617951Y-97509840D01*
X172680541Y-97544017D01*
X172688155Y-97548535D01*
X172733222Y-97577499D01*
X172740492Y-97582547D01*
X172912791Y-97711531D01*
X172919682Y-97717084D01*
X172960167Y-97752164D01*
X172966646Y-97758196D01*
X173017067Y-97808617D01*
X173023099Y-97815096D01*
X173058179Y-97855581D01*
X173063732Y-97862472D01*
X173192716Y-98034771D01*
X173197764Y-98042041D01*
X173226728Y-98087108D01*
X173231246Y-98094722D01*
X173236133Y-98103671D01*
X173729393Y-98103671D01*
X174727393Y-98103671D01*
X176229393Y-98103671D01*
X177227393Y-98103671D01*
X178729393Y-98103671D01*
X179727393Y-98103671D01*
X181229393Y-98103671D01*
X181229393Y-97978040D01*
X179853024Y-96601671D01*
X179727393Y-96601671D01*
X179727393Y-98103671D01*
X178729393Y-98103671D01*
X178729393Y-96601671D01*
X177227393Y-96601671D01*
X177227393Y-98103671D01*
X176229393Y-98103671D01*
X176229393Y-96601671D01*
X174727393Y-96601671D01*
X174727393Y-98103671D01*
X173729393Y-98103671D01*
X173729393Y-96601671D01*
X172227393Y-96601671D01*
X172227393Y-97372537D01*
X164711959Y-97372537D01*
X164943687Y-97140809D01*
X167227393Y-97140809D01*
X167288663Y-97105435D01*
X167295818Y-97101610D01*
X167339865Y-97079888D01*
X167347259Y-97076538D01*
X167407644Y-97051527D01*
X167415237Y-97048669D01*
X167461730Y-97032887D01*
X167469494Y-97030532D01*
X167685349Y-96972693D01*
X167693252Y-96970851D01*
X167741404Y-96961273D01*
X167749406Y-96959951D01*
X167814206Y-96951418D01*
X167822283Y-96950623D01*
X167871293Y-96947410D01*
X167879405Y-96947144D01*
X168101133Y-96947144D01*
X168101165Y-96947145D01*
X168729393Y-96947145D01*
X168729393Y-96947144D01*
X169727393Y-96947144D01*
X169939360Y-96947144D01*
X169947472Y-96947410D01*
X169996482Y-96950623D01*
X170004559Y-96951418D01*
X170069359Y-96959951D01*
X170077361Y-96961273D01*
X170125513Y-96970851D01*
X170133416Y-96972693D01*
X170349271Y-97030532D01*
X170357035Y-97032887D01*
X170403528Y-97048669D01*
X170411121Y-97051527D01*
X170471506Y-97076538D01*
X170478900Y-97079888D01*
X170522947Y-97101610D01*
X170530103Y-97105435D01*
X170602706Y-97147353D01*
X170723636Y-97217172D01*
X170723651Y-97217181D01*
X170950484Y-97348145D01*
X171229393Y-97348145D01*
X171229393Y-96601671D01*
X169727393Y-96601671D01*
X169727393Y-96947144D01*
X168729393Y-96947144D01*
X168729393Y-96601671D01*
X167227393Y-96601671D01*
X167227393Y-97140809D01*
X164943687Y-97140809D01*
X166480825Y-95603671D01*
X169727393Y-95603671D01*
X171229393Y-95603671D01*
X172227393Y-95603671D01*
X173729393Y-95603671D01*
X174727393Y-95603671D01*
X176229393Y-95603671D01*
X177227393Y-95603671D01*
X178729393Y-95603671D01*
X178729393Y-95478040D01*
X177353024Y-94101671D01*
X177227393Y-94101671D01*
X177227393Y-95603671D01*
X176229393Y-95603671D01*
X176229393Y-94101671D01*
X174727393Y-94101671D01*
X174727393Y-95603671D01*
X173729393Y-95603671D01*
X173729393Y-94101671D01*
X172227393Y-94101671D01*
X172227393Y-95603671D01*
X171229393Y-95603671D01*
X171229393Y-94101671D01*
X169727393Y-94101671D01*
X169727393Y-95603671D01*
X166480825Y-95603671D01*
X170447506Y-91636990D01*
X172227393Y-91636990D01*
X172227393Y-93103671D01*
X173729393Y-93103671D01*
X174727393Y-93103671D01*
X176229393Y-93103671D01*
X176229393Y-92978040D01*
X174896497Y-91645144D01*
X174727393Y-91645144D01*
X174727393Y-93103671D01*
X173729393Y-93103671D01*
X173729393Y-91645144D01*
X173567370Y-91645145D01*
X173564046Y-91645100D01*
X173543945Y-91644561D01*
X173540625Y-91644428D01*
X173513938Y-91642996D01*
X173510629Y-91642774D01*
X173490636Y-91641164D01*
X173487333Y-91640853D01*
X173383443Y-91629683D01*
X173375775Y-91628616D01*
X173329589Y-91620709D01*
X173321999Y-91619164D01*
X173261288Y-91604819D01*
X173253810Y-91602804D01*
X173250075Y-91601671D01*
X172451866Y-91601671D01*
X172235612Y-91635922D01*
X172230789Y-91636589D01*
X172227393Y-91636990D01*
X170447506Y-91636990D01*
X171464415Y-90620081D01*
X171525736Y-90586598D01*
X171590412Y-90589833D01*
X171607192Y-90595285D01*
X171660667Y-90612660D01*
X171878396Y-90647145D01*
X171878397Y-90647145D01*
X172098839Y-90647145D01*
X172098840Y-90647145D01*
X172316569Y-90612660D01*
X172526224Y-90544540D01*
X172722640Y-90444460D01*
X172900983Y-90314887D01*
X172951154Y-90264715D01*
X173012475Y-90231231D01*
X173082166Y-90236215D01*
G37*
%TD.AperFunction*%
%TD*%
%TA.AperFunction,NonConductor*%
G36*
X119041243Y-83946639D02*
G01*
X119098748Y-83986324D01*
X119125669Y-84050799D01*
X119113459Y-84119593D01*
X119094273Y-84147703D01*
X118734535Y-84544393D01*
X118718818Y-84558388D01*
X118715629Y-84561370D01*
X118683377Y-84600590D01*
X118679460Y-84605124D01*
X118645347Y-84642743D01*
X118642874Y-84646314D01*
X118631294Y-84663930D01*
X118280937Y-85090003D01*
X118264383Y-85106638D01*
X118259385Y-85110788D01*
X118259380Y-85110793D01*
X118234326Y-85146181D01*
X118228903Y-85153283D01*
X118201364Y-85186773D01*
X118201362Y-85186777D01*
X118198674Y-85192695D01*
X118186985Y-85213050D01*
X117861251Y-85673148D01*
X117846579Y-85690314D01*
X117840292Y-85696439D01*
X117840286Y-85696446D01*
X117819270Y-85731771D01*
X117813911Y-85740016D01*
X117790171Y-85773549D01*
X117790169Y-85773552D01*
X117787127Y-85781778D01*
X117777395Y-85802158D01*
X117655199Y-86007550D01*
X117648094Y-86018022D01*
X117616424Y-86072708D01*
X117615688Y-86073962D01*
X117583402Y-86128232D01*
X117577726Y-86139533D01*
X117550535Y-86186486D01*
X117467960Y-86329078D01*
X117450290Y-86359590D01*
X117437023Y-86378273D01*
X117431858Y-86384283D01*
X117431857Y-86384284D01*
X117431856Y-86384286D01*
X117431855Y-86384287D01*
X117413669Y-86422100D01*
X117409229Y-86430493D01*
X117388209Y-86466791D01*
X117386152Y-86474428D01*
X117378169Y-86495915D01*
X117211755Y-86841941D01*
X117198733Y-86863000D01*
X117198178Y-86863951D01*
X117178803Y-86910089D01*
X117176224Y-86915818D01*
X117154526Y-86960936D01*
X117154192Y-86961953D01*
X117147052Y-86985701D01*
X116991241Y-87356752D01*
X116979460Y-87378456D01*
X116977563Y-87381246D01*
X116977560Y-87381251D01*
X116962269Y-87425126D01*
X116959508Y-87432322D01*
X116941523Y-87475154D01*
X116941522Y-87475159D01*
X116941067Y-87478490D01*
X116935302Y-87502510D01*
X116824073Y-87821674D01*
X116815316Y-87841195D01*
X116809578Y-87851497D01*
X116800283Y-87888453D01*
X116797123Y-87899009D01*
X116784583Y-87934991D01*
X116784582Y-87934996D01*
X116783717Y-87946742D01*
X116780307Y-87967874D01*
X116732453Y-88158136D01*
X116724611Y-88180228D01*
X116721833Y-88186193D01*
X116721830Y-88186201D01*
X116714340Y-88228815D01*
X116712469Y-88237588D01*
X116701915Y-88279553D01*
X116701914Y-88279557D01*
X116702016Y-88286138D01*
X116700159Y-88309508D01*
X116664670Y-88511426D01*
X116659698Y-88530588D01*
X116654501Y-88545572D01*
X116654500Y-88545578D01*
X116652046Y-88579550D01*
X116650496Y-88592077D01*
X116644603Y-88625607D01*
X116644602Y-88625615D01*
X116645992Y-88641397D01*
X116646148Y-88661203D01*
X116607151Y-89201138D01*
X116605060Y-89216551D01*
X116599828Y-89242676D01*
X116601321Y-89265922D01*
X116601254Y-89282793D01*
X116599577Y-89306020D01*
X116599577Y-89306029D01*
X116604596Y-89332170D01*
X116606565Y-89347603D01*
X116640326Y-89873417D01*
X116640135Y-89891868D01*
X116638500Y-89911085D01*
X116638501Y-89911090D01*
X116641795Y-89929516D01*
X116643891Y-89941234D01*
X116645571Y-89955107D01*
X116647535Y-89985680D01*
X116647535Y-89985683D01*
X116653711Y-90003957D01*
X116658302Y-90021829D01*
X116691885Y-90209638D01*
X116693821Y-90231264D01*
X116693838Y-90242260D01*
X116703960Y-90279797D01*
X116706299Y-90290250D01*
X116713146Y-90328540D01*
X116713149Y-90328548D01*
X116717818Y-90338498D01*
X116725286Y-90358890D01*
X116767234Y-90514467D01*
X116771127Y-90528903D01*
X116774664Y-90547670D01*
X116776588Y-90565217D01*
X116776588Y-90565218D01*
X116776588Y-90565220D01*
X116776589Y-90565222D01*
X116786399Y-90590442D01*
X116788283Y-90595285D01*
X116792440Y-90607951D01*
X116800840Y-90639102D01*
X116800844Y-90639112D01*
X116809691Y-90654381D01*
X116817964Y-90671592D01*
X116912577Y-90914825D01*
X116918872Y-90936838D01*
X116921345Y-90949975D01*
X116914402Y-91019499D01*
X116870974Y-91074233D01*
X116804849Y-91096799D01*
X116737021Y-91080033D01*
X116711804Y-91060596D01*
X115422056Y-89770848D01*
X115388571Y-89709525D01*
X115391805Y-89644850D01*
X115414633Y-89574596D01*
X115449118Y-89356867D01*
X115449118Y-89136423D01*
X115414633Y-88918694D01*
X115346513Y-88709039D01*
X115346513Y-88709038D01*
X115308757Y-88634939D01*
X115246433Y-88512623D01*
X115209635Y-88461974D01*
X115116865Y-88334286D01*
X115116861Y-88334281D01*
X114960981Y-88178401D01*
X114960976Y-88178397D01*
X114782643Y-88048832D01*
X114782642Y-88048831D01*
X114782640Y-88048830D01*
X114707418Y-88010502D01*
X114586224Y-87948749D01*
X114586221Y-87948748D01*
X114376570Y-87880630D01*
X114200201Y-87852696D01*
X114158840Y-87846145D01*
X113938396Y-87846145D01*
X113897035Y-87852696D01*
X113720665Y-87880630D01*
X113511014Y-87948748D01*
X113511011Y-87948749D01*
X113314592Y-88048832D01*
X113136259Y-88178397D01*
X113136254Y-88178401D01*
X113086081Y-88228574D01*
X113024758Y-88262058D01*
X112955066Y-88257073D01*
X112899133Y-88215202D01*
X112882219Y-88184225D01*
X112852415Y-88104316D01*
X112852411Y-88104309D01*
X112766165Y-87989100D01*
X112766162Y-87989097D01*
X112650953Y-87902851D01*
X112650946Y-87902847D01*
X112516100Y-87852553D01*
X112516101Y-87852553D01*
X112456501Y-87846146D01*
X112456499Y-87846145D01*
X112456491Y-87846145D01*
X112456482Y-87846145D01*
X110560747Y-87846145D01*
X110560741Y-87846146D01*
X110501134Y-87852553D01*
X110366289Y-87902847D01*
X110366282Y-87902851D01*
X110251073Y-87989097D01*
X110251070Y-87989100D01*
X110164824Y-88104309D01*
X110164820Y-88104316D01*
X110114526Y-88239162D01*
X110109476Y-88286138D01*
X110108119Y-88298768D01*
X110108118Y-88298780D01*
X110108118Y-88522145D01*
X110088433Y-88589184D01*
X110035629Y-88634939D01*
X109984118Y-88646145D01*
X108428896Y-88646145D01*
X108361857Y-88626460D01*
X108316102Y-88573656D01*
X108306158Y-88504498D01*
X108335183Y-88440942D01*
X108365041Y-88415850D01*
X108380932Y-88406304D01*
X109370352Y-87811925D01*
X109374321Y-87809642D01*
X110099992Y-87410135D01*
X110103387Y-87408335D01*
X110788873Y-87058742D01*
X110789520Y-87058416D01*
X111016543Y-86945260D01*
X114727393Y-86945260D01*
X114913257Y-87005650D01*
X114917859Y-87007245D01*
X114945491Y-87017439D01*
X114950022Y-87019213D01*
X114986240Y-87034214D01*
X114990705Y-87036167D01*
X115017463Y-87048503D01*
X115021843Y-87050627D01*
X115253187Y-87168504D01*
X115257478Y-87170798D01*
X115283173Y-87185187D01*
X115287377Y-87187651D01*
X115320799Y-87208132D01*
X115324900Y-87210757D01*
X115349395Y-87227124D01*
X115353389Y-87229907D01*
X115563461Y-87382531D01*
X115567351Y-87385476D01*
X115590509Y-87403735D01*
X115594272Y-87406824D01*
X115624079Y-87432285D01*
X115627718Y-87435519D01*
X115649323Y-87455493D01*
X115652827Y-87458863D01*
X115831410Y-87637446D01*
X115831415Y-87637433D01*
X115841912Y-87607310D01*
X115849699Y-87576356D01*
X115851935Y-87568558D01*
X115866998Y-87521835D01*
X115869738Y-87514201D01*
X115893806Y-87453466D01*
X115897036Y-87446033D01*
X115901111Y-87437435D01*
X115975819Y-87223065D01*
X115987411Y-87180636D01*
X115989803Y-87172887D01*
X116005807Y-87126482D01*
X116008700Y-87118906D01*
X116028806Y-87071019D01*
X116045914Y-87021935D01*
X116048834Y-87014365D01*
X116067993Y-86969152D01*
X116071400Y-86961791D01*
X116091161Y-86922524D01*
X116208355Y-86643438D01*
X116216575Y-86618419D01*
X116219356Y-86610803D01*
X116223033Y-86601671D01*
X114727393Y-86601671D01*
X114727393Y-86945260D01*
X111016543Y-86945260D01*
X111329579Y-86789232D01*
X111334401Y-86787199D01*
X111338906Y-86784926D01*
X111338909Y-86784926D01*
X111396563Y-86755846D01*
X111396851Y-86755702D01*
X111454596Y-86726921D01*
X111454598Y-86726918D01*
X111459116Y-86724667D01*
X111463618Y-86722026D01*
X111965174Y-86469061D01*
X111971233Y-86466209D01*
X112284387Y-86329072D01*
X112286854Y-86328178D01*
X112292870Y-86325526D01*
X112292872Y-86325526D01*
X112352605Y-86299199D01*
X112412443Y-86272995D01*
X112412444Y-86272993D01*
X112418468Y-86270356D01*
X112420803Y-86269140D01*
X113028446Y-86001329D01*
X113601650Y-85751073D01*
X113607665Y-85748633D01*
X114055155Y-85580723D01*
X114069959Y-85576992D01*
X114069872Y-85576670D01*
X114077711Y-85574534D01*
X114077717Y-85574534D01*
X114127657Y-85553610D01*
X114131903Y-85551924D01*
X114182620Y-85532896D01*
X114182628Y-85532889D01*
X114189790Y-85529072D01*
X114189947Y-85529367D01*
X114203284Y-85521928D01*
X114790075Y-85276097D01*
X114796159Y-85273736D01*
X115198161Y-85129869D01*
X115200368Y-85129104D01*
X116374936Y-84734821D01*
X116377022Y-84734143D01*
X117978656Y-84229130D01*
X117981239Y-84228348D01*
X118870059Y-83970573D01*
X118873484Y-83969634D01*
X118971413Y-83944343D01*
X119041243Y-83946639D01*
G37*
%TD.AperFunction*%
%TA.AperFunction,NonConductor*%
G36*
X139317711Y-89569558D02*
G01*
X139374558Y-89610181D01*
X139392014Y-89640425D01*
X139470001Y-89834444D01*
X139470580Y-89835911D01*
X139801166Y-90689571D01*
X139804247Y-90699231D01*
X139828397Y-90759907D01*
X139828818Y-90760978D01*
X139832998Y-90771771D01*
X139851548Y-90819669D01*
X139851549Y-90819670D01*
X139852379Y-90821813D01*
X139856682Y-90830965D01*
X140202915Y-91700822D01*
X140203481Y-91702269D01*
X140261404Y-91853274D01*
X140384841Y-92175072D01*
X140411953Y-92245751D01*
X140414109Y-92251844D01*
X140471331Y-92427962D01*
X140476045Y-92447999D01*
X140478091Y-92461729D01*
X140478093Y-92461734D01*
X140492445Y-92494780D01*
X140496640Y-92505860D01*
X140507764Y-92540099D01*
X140507768Y-92540108D01*
X140515324Y-92551743D01*
X140525062Y-92569876D01*
X140779958Y-93156743D01*
X140783293Y-93165909D01*
X140809959Y-93225825D01*
X140810337Y-93226683D01*
X140835538Y-93284706D01*
X140835540Y-93284708D01*
X140836541Y-93287013D01*
X140841036Y-93295653D01*
X140903056Y-93435006D01*
X140909528Y-93453272D01*
X140913922Y-93469639D01*
X140913922Y-93469640D01*
X140930420Y-93498182D01*
X140936349Y-93509815D01*
X140949752Y-93539931D01*
X140949756Y-93539938D01*
X140960413Y-93553102D01*
X140971387Y-93569063D01*
X140979868Y-93583736D01*
X140979869Y-93583737D01*
X140979870Y-93583738D01*
X141003191Y-93607037D01*
X141011917Y-93616723D01*
X141032675Y-93642365D01*
X141046389Y-93652332D01*
X141061107Y-93664898D01*
X141073098Y-93676878D01*
X141073099Y-93676879D01*
X141078850Y-93682624D01*
X141076912Y-93684563D01*
X141110226Y-93730144D01*
X141114413Y-93799889D01*
X141080228Y-93860824D01*
X141018525Y-93893605D01*
X140993556Y-93896145D01*
X140699558Y-93896145D01*
X140658637Y-93907109D01*
X140658637Y-93907110D01*
X140621369Y-93917096D01*
X140546832Y-93937068D01*
X140546827Y-93937071D01*
X140409908Y-94016120D01*
X140409900Y-94016126D01*
X140340872Y-94085155D01*
X140298098Y-94127929D01*
X140298096Y-94127931D01*
X140222001Y-94204026D01*
X140156200Y-94269827D01*
X140094877Y-94303311D01*
X140068519Y-94306145D01*
X138620747Y-94306145D01*
X138620741Y-94306146D01*
X138561133Y-94312554D01*
X138425366Y-94363191D01*
X138355675Y-94368175D01*
X138294352Y-94334689D01*
X138260868Y-94273366D01*
X138260336Y-94223228D01*
X138571305Y-92632081D01*
X138846269Y-91250229D01*
X138847503Y-91245588D01*
X138848509Y-91240409D01*
X138848512Y-91240405D01*
X138860856Y-91176919D01*
X138873528Y-91113240D01*
X138873527Y-91113238D01*
X138874553Y-91108087D01*
X138875173Y-91103289D01*
X139155241Y-89663000D01*
X139187360Y-89600953D01*
X139247927Y-89566118D01*
X139317711Y-89569558D01*
G37*
%TD.AperFunction*%
%TA.AperFunction,NonConductor*%
G36*
X147216110Y-89732068D02*
G01*
X147265885Y-89781100D01*
X147279298Y-89818070D01*
X147300482Y-89928934D01*
X147300592Y-89929516D01*
X147656277Y-91840421D01*
X147656296Y-91840574D01*
X147669816Y-91913155D01*
X147669817Y-91913174D01*
X147669819Y-91913174D01*
X147683177Y-91984947D01*
X147683214Y-91985094D01*
X148025832Y-93824486D01*
X148025876Y-93824852D01*
X148039180Y-93896145D01*
X148039187Y-93896183D01*
X148052841Y-93969486D01*
X148052932Y-93969841D01*
X148142817Y-94451514D01*
X148135764Y-94521027D01*
X148092250Y-94575692D01*
X148026089Y-94598153D01*
X147964626Y-94584746D01*
X147776224Y-94488749D01*
X147776221Y-94488748D01*
X147566570Y-94420630D01*
X147457704Y-94403387D01*
X147348840Y-94386145D01*
X147128396Y-94386145D01*
X147055819Y-94397640D01*
X146910665Y-94420630D01*
X146701014Y-94488748D01*
X146701011Y-94488749D01*
X146504592Y-94588832D01*
X146326259Y-94718397D01*
X146326254Y-94718401D01*
X146276081Y-94768574D01*
X146214758Y-94802058D01*
X146145066Y-94797073D01*
X146089133Y-94755202D01*
X146072219Y-94724225D01*
X146042415Y-94644316D01*
X146042411Y-94644309D01*
X145956165Y-94529100D01*
X145956162Y-94529097D01*
X145840953Y-94442851D01*
X145840946Y-94442847D01*
X145706100Y-94392553D01*
X145706101Y-94392553D01*
X145646501Y-94386146D01*
X145646499Y-94386145D01*
X145646491Y-94386145D01*
X145646483Y-94386145D01*
X144198715Y-94386145D01*
X144131676Y-94366460D01*
X144111034Y-94349826D01*
X143896208Y-94135000D01*
X143896206Y-94134997D01*
X143777335Y-94016126D01*
X143777327Y-94016120D01*
X143761475Y-94006968D01*
X143713259Y-93956402D01*
X143700035Y-93887795D01*
X143726003Y-93822930D01*
X143782917Y-93782401D01*
X143823414Y-93775581D01*
X145153463Y-93774954D01*
X145171070Y-93776202D01*
X145192184Y-93779222D01*
X145220581Y-93775802D01*
X145235324Y-93774915D01*
X145263920Y-93774903D01*
X145284531Y-93769369D01*
X145301837Y-93766022D01*
X145323023Y-93763473D01*
X145349550Y-93752827D01*
X145363571Y-93748150D01*
X145391198Y-93740735D01*
X145409669Y-93730058D01*
X145425539Y-93722337D01*
X145445330Y-93714397D01*
X145468218Y-93697234D01*
X145480546Y-93689093D01*
X145505295Y-93674789D01*
X145520375Y-93659693D01*
X145533687Y-93648143D01*
X145550765Y-93635339D01*
X145568417Y-93612854D01*
X145578227Y-93601787D01*
X145598437Y-93581559D01*
X145609093Y-93563080D01*
X145618978Y-93548455D01*
X145632147Y-93531684D01*
X145643384Y-93505383D01*
X145649982Y-93492181D01*
X145664275Y-93467400D01*
X145669786Y-93446788D01*
X145675543Y-93430119D01*
X145750681Y-93254272D01*
X145763239Y-93231723D01*
X145763548Y-93231284D01*
X145780471Y-93184998D01*
X145782899Y-93178870D01*
X145787465Y-93168185D01*
X145802250Y-93133586D01*
X145802326Y-93133055D01*
X145808619Y-93108018D01*
X146008142Y-92562350D01*
X146010822Y-92556237D01*
X146012241Y-92552281D01*
X146012244Y-92552277D01*
X146033948Y-92491775D01*
X146034125Y-92491290D01*
X146036620Y-92484469D01*
X146056084Y-92431238D01*
X146056084Y-92431236D01*
X146057524Y-92427299D01*
X146059384Y-92420875D01*
X146383752Y-91516728D01*
X146384520Y-91514649D01*
X146702404Y-90678095D01*
X146702720Y-90677273D01*
X146704929Y-90671592D01*
X146963209Y-90007390D01*
X146968818Y-89995023D01*
X146971140Y-89990565D01*
X146971144Y-89990560D01*
X146991422Y-89934917D01*
X146992339Y-89932479D01*
X147013816Y-89877253D01*
X147013816Y-89877245D01*
X147015012Y-89872361D01*
X147018953Y-89859371D01*
X147040999Y-89798881D01*
X147082448Y-89742637D01*
X147147727Y-89717729D01*
X147216110Y-89732068D01*
G37*
%TD.AperFunction*%
%TA.AperFunction,NonConductor*%
G36*
X106464617Y-89730902D02*
G01*
X106513240Y-89781077D01*
X106527018Y-89849575D01*
X106501575Y-89914648D01*
X106491169Y-89926468D01*
X98852113Y-97565524D01*
X98790790Y-97599009D01*
X98721098Y-97594025D01*
X98665165Y-97552153D01*
X98640748Y-97486689D01*
X98655600Y-97418416D01*
X98661741Y-97408340D01*
X98813999Y-97183430D01*
X98817138Y-97179008D01*
X99291491Y-96540921D01*
X99292296Y-96539852D01*
X99827058Y-95836764D01*
X99829676Y-95833442D01*
X100099500Y-95503023D01*
X100101165Y-95501030D01*
X100365001Y-95191935D01*
X100367452Y-95189412D01*
X100384125Y-95169753D01*
X100413550Y-95135058D01*
X100455735Y-95085638D01*
X100455736Y-95085635D01*
X100459653Y-95081047D01*
X100461736Y-95078244D01*
X100803566Y-94675211D01*
X100806856Y-94671489D01*
X100828759Y-94647685D01*
X101297021Y-94138770D01*
X101300163Y-94135481D01*
X102489887Y-92935530D01*
X102493409Y-92932117D01*
X103718812Y-91791679D01*
X103722286Y-91788569D01*
X104255318Y-91329600D01*
X104259399Y-91326237D01*
X104710152Y-90970943D01*
X105084918Y-90677239D01*
X105168505Y-90611732D01*
X105168755Y-90611536D01*
X105226715Y-90566352D01*
X105737081Y-90168485D01*
X105740509Y-90165909D01*
X106330748Y-89738364D01*
X106396586Y-89714979D01*
X106464617Y-89730902D01*
G37*
%TD.AperFunction*%
%TA.AperFunction,NonConductor*%
G36*
X164684674Y-95508121D02*
G01*
X164724234Y-95565712D01*
X164726377Y-95635549D01*
X164694065Y-95691961D01*
X162377202Y-98008826D01*
X162315879Y-98042311D01*
X162289521Y-98045145D01*
X156306163Y-98045145D01*
X156239124Y-98025460D01*
X156193369Y-97972656D01*
X156183425Y-97903498D01*
X156212450Y-97839942D01*
X156271228Y-97802168D01*
X156285627Y-97798857D01*
X157220225Y-97641907D01*
X157232648Y-97640576D01*
X157233662Y-97640393D01*
X157233669Y-97640394D01*
X157295092Y-97629340D01*
X157296208Y-97629147D01*
X157357755Y-97618812D01*
X157357759Y-97618810D01*
X157358784Y-97618638D01*
X157370930Y-97615694D01*
X158985219Y-97325220D01*
X159009055Y-97323275D01*
X159014444Y-97323357D01*
X159057590Y-97312492D01*
X159065839Y-97310714D01*
X159109621Y-97302837D01*
X159114492Y-97300544D01*
X159137010Y-97292494D01*
X160671744Y-96906059D01*
X160687577Y-96903886D01*
X160687549Y-96903709D01*
X160695576Y-96902435D01*
X160695581Y-96902435D01*
X160746360Y-96887380D01*
X160751292Y-96886030D01*
X160802608Y-96873110D01*
X160802619Y-96873103D01*
X160810162Y-96870113D01*
X160810228Y-96870281D01*
X160824963Y-96864078D01*
X161864618Y-96555874D01*
X161880747Y-96552955D01*
X161880729Y-96552863D01*
X161888682Y-96551241D01*
X161888693Y-96551241D01*
X161938113Y-96534209D01*
X161943238Y-96532568D01*
X161993347Y-96517714D01*
X161993349Y-96517713D01*
X162000777Y-96514404D01*
X162000815Y-96514489D01*
X162015637Y-96507492D01*
X162815565Y-96231822D01*
X162840276Y-96226053D01*
X162841920Y-96225844D01*
X162886494Y-96207589D01*
X162893074Y-96205111D01*
X162938587Y-96189427D01*
X162939963Y-96188498D01*
X162962333Y-96176531D01*
X163665030Y-95888761D01*
X163678279Y-95884226D01*
X163678513Y-95884126D01*
X163678516Y-95884126D01*
X163728121Y-95863048D01*
X163735415Y-95859949D01*
X163736877Y-95859338D01*
X163794083Y-95835912D01*
X163794086Y-95835909D01*
X163794334Y-95835808D01*
X163806861Y-95829590D01*
X164189672Y-95666930D01*
X164213848Y-95659466D01*
X164215622Y-95659112D01*
X164258676Y-95637829D01*
X164265044Y-95634904D01*
X164309286Y-95616107D01*
X164310711Y-95614992D01*
X164332137Y-95601518D01*
X164551440Y-95493118D01*
X164620258Y-95481059D01*
X164684674Y-95508121D01*
G37*
%TD.AperFunction*%
%TA.AperFunction,NonConductor*%
G36*
X185025560Y-100366830D02*
G01*
X185046202Y-100383464D01*
X185416202Y-100753464D01*
X185449687Y-100814787D01*
X185444703Y-100884479D01*
X185402831Y-100940412D01*
X185337367Y-100964829D01*
X185328521Y-100965145D01*
X172522598Y-100965145D01*
X172455559Y-100945460D01*
X172409804Y-100892656D01*
X172399860Y-100823498D01*
X172406416Y-100797812D01*
X172408727Y-100791613D01*
X172422709Y-100754128D01*
X172429118Y-100694518D01*
X172429118Y-100471145D01*
X172448803Y-100404106D01*
X172501607Y-100358351D01*
X172553118Y-100347145D01*
X184958521Y-100347145D01*
X185025560Y-100366830D01*
G37*
%TD.AperFunction*%
%TA.AperFunction,NonConductor*%
G36*
X148527012Y-96636977D02*
G01*
X148561370Y-96697816D01*
X148562498Y-96703204D01*
X148607842Y-96946722D01*
X148609618Y-96960531D01*
X148609842Y-96963653D01*
X148617895Y-97002856D01*
X148620797Y-97016984D01*
X148621937Y-97022531D01*
X148622357Y-97024675D01*
X148628980Y-97060244D01*
X148633384Y-97083893D01*
X148634355Y-97086872D01*
X148637919Y-97100332D01*
X148757173Y-97680845D01*
X148757374Y-97681849D01*
X148808798Y-97943099D01*
X148811029Y-97961984D01*
X148811685Y-97978040D01*
X148811783Y-97980426D01*
X148794850Y-98048213D01*
X148749885Y-98092873D01*
X148743528Y-98096543D01*
X148734828Y-98101567D01*
X148734827Y-98101566D01*
X148624745Y-98165122D01*
X148624740Y-98165126D01*
X145579499Y-101210368D01*
X145518176Y-101243853D01*
X145448484Y-101238869D01*
X145392551Y-101196997D01*
X145368134Y-101131533D01*
X145367818Y-101122687D01*
X145367818Y-99878803D01*
X145387503Y-99811764D01*
X145440307Y-99766009D01*
X145467627Y-99757186D01*
X145483609Y-99754006D01*
X145600815Y-99730693D01*
X145746497Y-99670350D01*
X145877607Y-99582745D01*
X145989107Y-99471245D01*
X146076712Y-99340135D01*
X146137055Y-99194453D01*
X146167818Y-99039798D01*
X146167818Y-98882114D01*
X146167818Y-98882111D01*
X146167817Y-98882109D01*
X146151242Y-98798780D01*
X146137055Y-98727459D01*
X146119147Y-98684225D01*
X146076715Y-98581783D01*
X146076708Y-98581770D01*
X145988716Y-98450081D01*
X145967838Y-98383403D01*
X145967818Y-98381190D01*
X145967818Y-97069895D01*
X145987503Y-97002856D01*
X145992551Y-96995584D01*
X145999413Y-96986418D01*
X146042414Y-96928976D01*
X146051838Y-96903709D01*
X146072219Y-96849065D01*
X146114089Y-96793131D01*
X146179554Y-96768713D01*
X146247827Y-96783564D01*
X146276082Y-96804716D01*
X146326254Y-96854888D01*
X146326259Y-96854892D01*
X146453236Y-96947145D01*
X146504596Y-96984460D01*
X146621074Y-97043809D01*
X146701011Y-97084540D01*
X146701014Y-97084541D01*
X146765321Y-97105435D01*
X146910667Y-97152660D01*
X147128396Y-97187145D01*
X147128397Y-97187145D01*
X147348839Y-97187145D01*
X147348840Y-97187145D01*
X147566569Y-97152660D01*
X147776224Y-97084540D01*
X147972640Y-96984460D01*
X148150983Y-96854887D01*
X148306860Y-96699010D01*
X148307728Y-96697816D01*
X148340274Y-96653019D01*
X148395603Y-96610353D01*
X148465216Y-96604372D01*
X148527012Y-96636977D01*
G37*
%TD.AperFunction*%
%TA.AperFunction,NonConductor*%
G36*
X167171030Y-100317508D02*
G01*
X167226964Y-100359380D01*
X167238181Y-100377394D01*
X167290803Y-100480668D01*
X167420370Y-100659003D01*
X167420374Y-100659008D01*
X167576254Y-100814888D01*
X167576259Y-100814892D01*
X167678206Y-100888960D01*
X167754596Y-100944460D01*
X167876145Y-101006393D01*
X167951011Y-101044540D01*
X167951014Y-101044541D01*
X168018143Y-101066352D01*
X168160667Y-101112660D01*
X168378396Y-101147145D01*
X168378397Y-101147145D01*
X168598839Y-101147145D01*
X168598840Y-101147145D01*
X168816569Y-101112660D01*
X168886823Y-101089832D01*
X168956662Y-101087837D01*
X169012821Y-101120083D01*
X169822757Y-101930019D01*
X169822778Y-101930042D01*
X169847200Y-101954464D01*
X169880685Y-102015787D01*
X169875701Y-102085479D01*
X169833829Y-102141412D01*
X169768365Y-102165829D01*
X169759519Y-102166145D01*
X165519244Y-102166145D01*
X165452205Y-102146460D01*
X165406450Y-102093656D01*
X165396506Y-102024498D01*
X165425531Y-101960942D01*
X165431563Y-101954464D01*
X165820996Y-101565031D01*
X167040018Y-100346007D01*
X167101339Y-100312524D01*
X167171030Y-100317508D01*
G37*
%TD.AperFunction*%
%TA.AperFunction,NonConductor*%
G36*
X138497512Y-103291633D02*
G01*
X138527064Y-103307498D01*
X138597263Y-103358502D01*
X138628900Y-103374621D01*
X138679697Y-103422595D01*
X138696493Y-103490416D01*
X138673957Y-103556551D01*
X138660288Y-103572788D01*
X138090799Y-104142278D01*
X138029476Y-104175763D01*
X137959785Y-104170779D01*
X137903851Y-104128908D01*
X137879434Y-104063443D01*
X137879118Y-104054597D01*
X137879118Y-103658807D01*
X137898803Y-103591768D01*
X137951607Y-103546013D01*
X137977170Y-103537552D01*
X137981406Y-103536644D01*
X137981415Y-103536644D01*
X138147952Y-103481459D01*
X138297274Y-103389357D01*
X138366497Y-103320134D01*
X138427820Y-103286649D01*
X138497512Y-103291633D01*
G37*
%TD.AperFunction*%
%TA.AperFunction,NonConductor*%
G36*
X120487559Y-94505953D02*
G01*
X120487926Y-94504676D01*
X120488550Y-94504855D01*
X120493674Y-94507000D01*
X120497407Y-94507640D01*
X120503244Y-94510182D01*
X120502939Y-94510880D01*
X120515292Y-94516052D01*
X120742610Y-94644316D01*
X120824969Y-94690787D01*
X120843561Y-94703644D01*
X120850263Y-94709246D01*
X120869999Y-94718403D01*
X120887557Y-94726550D01*
X120896303Y-94731038D01*
X120930010Y-94750057D01*
X120932126Y-94751251D01*
X120940599Y-94753431D01*
X120961871Y-94761032D01*
X121129415Y-94838773D01*
X121293043Y-94914697D01*
X121301748Y-94919400D01*
X121361371Y-94946407D01*
X121362348Y-94946854D01*
X121419597Y-94973418D01*
X121419599Y-94973418D01*
X121421812Y-94974445D01*
X121431037Y-94977962D01*
X121885384Y-95183766D01*
X121898074Y-95190425D01*
X121898981Y-95190970D01*
X121898982Y-95190970D01*
X121898983Y-95190971D01*
X121955181Y-95215396D01*
X121956640Y-95216044D01*
X122012430Y-95241315D01*
X122012442Y-95241317D01*
X122013427Y-95241616D01*
X122026882Y-95246560D01*
X122440478Y-95426323D01*
X122462249Y-95438526D01*
X122464463Y-95440079D01*
X122508741Y-95456236D01*
X122515637Y-95458990D01*
X122558860Y-95477777D01*
X122561523Y-95478174D01*
X122585721Y-95484328D01*
X123102422Y-95672880D01*
X123110109Y-95676236D01*
X123113168Y-95677325D01*
X123113169Y-95677326D01*
X123173137Y-95698687D01*
X123173676Y-95698882D01*
X123233520Y-95720721D01*
X123233522Y-95720721D01*
X123236569Y-95721833D01*
X123244619Y-95724152D01*
X123794613Y-95920077D01*
X123806936Y-95926161D01*
X123807228Y-95925548D01*
X123814571Y-95929034D01*
X123814574Y-95929036D01*
X123851322Y-95940905D01*
X123868407Y-95946424D01*
X123871875Y-95947601D01*
X123925228Y-95966607D01*
X123925232Y-95966607D01*
X123925234Y-95966608D01*
X123933179Y-95968313D01*
X123933036Y-95968975D01*
X123946525Y-95971656D01*
X124312922Y-96090002D01*
X124551742Y-96167141D01*
X124565942Y-96173543D01*
X124566048Y-96173297D01*
X124573515Y-96176489D01*
X124573518Y-96176491D01*
X124625136Y-96190947D01*
X124629788Y-96192349D01*
X124680813Y-96208831D01*
X124680817Y-96208831D01*
X124688811Y-96210299D01*
X124688762Y-96210563D01*
X124704130Y-96213069D01*
X125412618Y-96411491D01*
X125418163Y-96413428D01*
X125484553Y-96431640D01*
X125485140Y-96431802D01*
X125547086Y-96449152D01*
X125547088Y-96449152D01*
X125551573Y-96450408D01*
X125557319Y-96451602D01*
X126504594Y-96711470D01*
X126521765Y-96718233D01*
X126528037Y-96720534D01*
X126528040Y-96720536D01*
X126542070Y-96723685D01*
X126578028Y-96731757D01*
X126583674Y-96733164D01*
X126633084Y-96746719D01*
X126633091Y-96746719D01*
X126639711Y-96747631D01*
X126658050Y-96749718D01*
X127712537Y-96986419D01*
X127725845Y-96990198D01*
X127729288Y-96991387D01*
X127729289Y-96991387D01*
X127729291Y-96991388D01*
X127787969Y-97003375D01*
X127790288Y-97003873D01*
X127821589Y-97010899D01*
X127848704Y-97016986D01*
X127848713Y-97016985D01*
X127852323Y-97017311D01*
X127866001Y-97019318D01*
X129574212Y-97368304D01*
X129588154Y-97372849D01*
X129588291Y-97372403D01*
X129596056Y-97374786D01*
X129596058Y-97374786D01*
X129596062Y-97374788D01*
X129650417Y-97383948D01*
X129654597Y-97384727D01*
X129708587Y-97395757D01*
X129708594Y-97395756D01*
X129716695Y-97396330D01*
X129716661Y-97396797D01*
X129731301Y-97397578D01*
X130886847Y-97592314D01*
X130899527Y-97595234D01*
X130900294Y-97595353D01*
X130900297Y-97595355D01*
X130961693Y-97604936D01*
X130962948Y-97605139D01*
X131024378Y-97615492D01*
X131024382Y-97615491D01*
X131025151Y-97615621D01*
X131038088Y-97616858D01*
X132611916Y-97862472D01*
X132612224Y-97862520D01*
X132625271Y-97865282D01*
X132631429Y-97866935D01*
X132631433Y-97866937D01*
X132689580Y-97874626D01*
X132692385Y-97875030D01*
X132750298Y-97884068D01*
X132750305Y-97884067D01*
X132756660Y-97884219D01*
X132769945Y-97885252D01*
X134211047Y-98075814D01*
X134223738Y-98079052D01*
X134223934Y-98078240D01*
X134231832Y-98080138D01*
X134231838Y-98080141D01*
X134289194Y-98086190D01*
X134292308Y-98086560D01*
X134349580Y-98094134D01*
X134357703Y-98094138D01*
X134357702Y-98094985D01*
X134370810Y-98094800D01*
X135943833Y-98260728D01*
X135957579Y-98262965D01*
X135960579Y-98263627D01*
X135960591Y-98263632D01*
X136020513Y-98268837D01*
X136022779Y-98269055D01*
X136031870Y-98270013D01*
X136082582Y-98275364D01*
X136082590Y-98275362D01*
X136085642Y-98275284D01*
X136099578Y-98275706D01*
X136669486Y-98325219D01*
X136692138Y-98329334D01*
X136699486Y-98331390D01*
X136741722Y-98331850D01*
X136751068Y-98332307D01*
X136793166Y-98335965D01*
X136800679Y-98334635D01*
X136823630Y-98332746D01*
X136943689Y-98334057D01*
X136946223Y-98334112D01*
X137005419Y-98336030D01*
X137005425Y-98336028D01*
X137010461Y-98335531D01*
X137010733Y-98335519D01*
X137010872Y-98335504D01*
X137011134Y-98335458D01*
X137016173Y-98334849D01*
X137016182Y-98334850D01*
X137073619Y-98320129D01*
X137076071Y-98319529D01*
X137085877Y-98317239D01*
X137108628Y-98314110D01*
X137116428Y-98313768D01*
X137156542Y-98301106D01*
X137165643Y-98298611D01*
X137206607Y-98289045D01*
X137211147Y-98286615D01*
X137213488Y-98285364D01*
X137234667Y-98276448D01*
X137242101Y-98274102D01*
X137277586Y-98251479D01*
X137285726Y-98246719D01*
X137322802Y-98226885D01*
X137322805Y-98226884D01*
X137322805Y-98226883D01*
X137322808Y-98226882D01*
X137328500Y-98221546D01*
X137346641Y-98207458D01*
X137353226Y-98203261D01*
X137381643Y-98172228D01*
X137388268Y-98165526D01*
X137418961Y-98136761D01*
X137423079Y-98130132D01*
X137436963Y-98111820D01*
X137442228Y-98106073D01*
X137461646Y-98068742D01*
X137466302Y-98060569D01*
X137488513Y-98024825D01*
X137490775Y-98017356D01*
X137499448Y-97996072D01*
X137503044Y-97989161D01*
X137512134Y-97948096D01*
X137514519Y-97938983D01*
X137526723Y-97898702D01*
X137526975Y-97890910D01*
X137529840Y-97868115D01*
X137649622Y-97327044D01*
X137653298Y-97313913D01*
X137654826Y-97309417D01*
X137654829Y-97309413D01*
X137666441Y-97251203D01*
X137666975Y-97248666D01*
X137673947Y-97217172D01*
X137679802Y-97190725D01*
X137679802Y-97190722D01*
X137680215Y-97185987D01*
X137682142Y-97172498D01*
X137685510Y-97155617D01*
X137844842Y-96356922D01*
X137846229Y-96351714D01*
X137847173Y-96346853D01*
X137847175Y-96346851D01*
X137859540Y-96283247D01*
X137872168Y-96219950D01*
X137872167Y-96219947D01*
X137873133Y-96215110D01*
X137873828Y-96209756D01*
X137877780Y-96189427D01*
X137922397Y-95959934D01*
X137954514Y-95897885D01*
X138015079Y-95863048D01*
X138084864Y-95866486D01*
X138141713Y-95907106D01*
X138167575Y-95972013D01*
X138168118Y-95983600D01*
X138168118Y-96654515D01*
X138168119Y-96654521D01*
X138174526Y-96714128D01*
X138224820Y-96848973D01*
X138224824Y-96848980D01*
X138311070Y-96964189D01*
X138311073Y-96964192D01*
X138426282Y-97050438D01*
X138426289Y-97050442D01*
X138561135Y-97100736D01*
X138561134Y-97100736D01*
X138568062Y-97101480D01*
X138620745Y-97107145D01*
X139804118Y-97107144D01*
X139871157Y-97126829D01*
X139916912Y-97179632D01*
X139928118Y-97231144D01*
X139928118Y-100920108D01*
X139908433Y-100987147D01*
X139855629Y-101032902D01*
X139786471Y-101042846D01*
X139765799Y-101038039D01*
X139583035Y-100978654D01*
X139380935Y-100946645D01*
X139176301Y-100946645D01*
X138974200Y-100978654D01*
X138779586Y-101041889D01*
X138597269Y-101134784D01*
X138527062Y-101185793D01*
X138461255Y-101209272D01*
X138393201Y-101193446D01*
X138366496Y-101173155D01*
X138297275Y-101103934D01*
X138297274Y-101103933D01*
X138182114Y-101032902D01*
X138147954Y-101011832D01*
X138147949Y-101011830D01*
X138124890Y-101004189D01*
X137981415Y-100956646D01*
X137981413Y-100956645D01*
X137878628Y-100946145D01*
X136678616Y-100946145D01*
X136678599Y-100946146D01*
X136575821Y-100956645D01*
X136575818Y-100956646D01*
X136409286Y-101011830D01*
X136409281Y-101011832D01*
X136259960Y-101103934D01*
X136135907Y-101227987D01*
X136043805Y-101377308D01*
X136043803Y-101377313D01*
X136020132Y-101448748D01*
X135988619Y-101543848D01*
X135988619Y-101543849D01*
X135988618Y-101543849D01*
X135978118Y-101646628D01*
X135978118Y-102846646D01*
X135978119Y-102846663D01*
X135988618Y-102949441D01*
X135988619Y-102949444D01*
X136043803Y-103115976D01*
X136043805Y-103115981D01*
X136078687Y-103172533D01*
X136135906Y-103265301D01*
X136259962Y-103389357D01*
X136409284Y-103481459D01*
X136575821Y-103536644D01*
X136575827Y-103536644D01*
X136580066Y-103537552D01*
X136641502Y-103570830D01*
X136675194Y-103632039D01*
X136678118Y-103658807D01*
X136678118Y-104477643D01*
X136658433Y-104544682D01*
X136605629Y-104590437D01*
X136536471Y-104600381D01*
X136472915Y-104571356D01*
X136466437Y-104565324D01*
X132504784Y-100603671D01*
X134727393Y-100603671D01*
X135357268Y-100603671D01*
X135371082Y-100586201D01*
X135375720Y-100580674D01*
X135404731Y-100548076D01*
X135409679Y-100542832D01*
X135574805Y-100377706D01*
X135580049Y-100372758D01*
X135612647Y-100343747D01*
X135618174Y-100339109D01*
X135663741Y-100303079D01*
X135669525Y-100298773D01*
X135705285Y-100273732D01*
X135711315Y-100269766D01*
X135910086Y-100147164D01*
X135916333Y-100143557D01*
X135954758Y-100122839D01*
X135961205Y-100119601D01*
X136013850Y-100095054D01*
X136020472Y-100092198D01*
X136061022Y-100076089D01*
X136067798Y-100073623D01*
X136229393Y-100020075D01*
X136229393Y-99310803D01*
X137227393Y-99310803D01*
X137227393Y-99948145D01*
X137891322Y-99948145D01*
X137894475Y-99948185D01*
X137913545Y-99948670D01*
X137916698Y-99948790D01*
X137942069Y-99950082D01*
X137945220Y-99950283D01*
X137964269Y-99951740D01*
X137967414Y-99952021D01*
X138109937Y-99966581D01*
X138116646Y-99967452D01*
X138157075Y-99973826D01*
X138163726Y-99975061D01*
X138216977Y-99986463D01*
X138223544Y-99988058D01*
X138263018Y-99998789D01*
X138269493Y-100000740D01*
X138489436Y-100073622D01*
X138496214Y-100076089D01*
X138508002Y-100080772D01*
X138684452Y-100023440D01*
X138689115Y-100022026D01*
X138717494Y-100014023D01*
X138722213Y-100012792D01*
X138729393Y-100011068D01*
X138729393Y-99101671D01*
X137803297Y-99101671D01*
X137785914Y-99110968D01*
X137751038Y-99133205D01*
X137744050Y-99137344D01*
X137700987Y-99160986D01*
X137693747Y-99164658D01*
X137634499Y-99192305D01*
X137627030Y-99195497D01*
X137611620Y-99201492D01*
X137596574Y-99208318D01*
X137589073Y-99211429D01*
X137527905Y-99234476D01*
X137520223Y-99237086D01*
X137473233Y-99251359D01*
X137465391Y-99253464D01*
X137425086Y-99262875D01*
X137385670Y-99275318D01*
X137377854Y-99277507D01*
X137330163Y-99289193D01*
X137322224Y-99290865D01*
X137269527Y-99300174D01*
X137232281Y-99309720D01*
X137227393Y-99310803D01*
X136229393Y-99310803D01*
X136229393Y-99288742D01*
X136049261Y-99273093D01*
X136018518Y-99271876D01*
X136010414Y-99271289D01*
X135926100Y-99262394D01*
X135841657Y-99255059D01*
X135833596Y-99254092D01*
X135803169Y-99249426D01*
X134727393Y-99135949D01*
X134727393Y-100603671D01*
X132504784Y-100603671D01*
X131022613Y-99121500D01*
X131022611Y-99121497D01*
X131002785Y-99101671D01*
X132414168Y-99101671D01*
X133729393Y-100416896D01*
X133729393Y-99101671D01*
X132414168Y-99101671D01*
X131002785Y-99101671D01*
X130903740Y-99002626D01*
X130903735Y-99002622D01*
X130810220Y-98948632D01*
X130766808Y-98923568D01*
X130614080Y-98882644D01*
X130455966Y-98882644D01*
X130448370Y-98882644D01*
X130448354Y-98882645D01*
X124585215Y-98882645D01*
X124518176Y-98862960D01*
X124497534Y-98846326D01*
X123316009Y-97664801D01*
X124727393Y-97664801D01*
X124947237Y-97884645D01*
X126229393Y-97884645D01*
X126229393Y-97673243D01*
X126222641Y-97671256D01*
X126214939Y-97668713D01*
X126195149Y-97661452D01*
X125321928Y-97421899D01*
X125317359Y-97420938D01*
X125309450Y-97419000D01*
X125218161Y-97393431D01*
X125127040Y-97368436D01*
X125119259Y-97366024D01*
X125114859Y-97364500D01*
X124727393Y-97255984D01*
X124727393Y-97664801D01*
X123316009Y-97664801D01*
X120360216Y-94709008D01*
X120326731Y-94647685D01*
X120331715Y-94577993D01*
X120373587Y-94522060D01*
X120439051Y-94497643D01*
X120487559Y-94505953D01*
G37*
%TD.AperFunction*%
%TA.AperFunction,NonConductor*%
G36*
X155381059Y-103386830D02*
G01*
X155426814Y-103439634D01*
X155436758Y-103508792D01*
X155407733Y-103572348D01*
X155401701Y-103578826D01*
X153199499Y-105781028D01*
X153138176Y-105814513D01*
X153068484Y-105809529D01*
X153012551Y-105767657D01*
X152988134Y-105702193D01*
X152987818Y-105693347D01*
X152987818Y-104898890D01*
X152987818Y-104898888D01*
X152946895Y-104746161D01*
X152913022Y-104687490D01*
X152867842Y-104609235D01*
X152867836Y-104609227D01*
X152756035Y-104497426D01*
X152756027Y-104497420D01*
X152619108Y-104418371D01*
X152619104Y-104418369D01*
X152619102Y-104418368D01*
X152466375Y-104377445D01*
X152466374Y-104377445D01*
X150254750Y-104377445D01*
X150187711Y-104357760D01*
X150141956Y-104304956D01*
X150132012Y-104235798D01*
X150161037Y-104172242D01*
X150167069Y-104165764D01*
X150929369Y-103403464D01*
X150990692Y-103369979D01*
X151017050Y-103367145D01*
X155314020Y-103367145D01*
X155381059Y-103386830D01*
G37*
%TD.AperFunction*%
%TA.AperFunction,NonConductor*%
G36*
X150203048Y-105936077D02*
G01*
X150261281Y-105974686D01*
X150289395Y-106038650D01*
X150290418Y-106054543D01*
X150290419Y-106569145D01*
X150270735Y-106636184D01*
X150217931Y-106681939D01*
X150166419Y-106693145D01*
X149999071Y-106693145D01*
X149932032Y-106673460D01*
X149886277Y-106620656D01*
X149876333Y-106551498D01*
X149888586Y-106512850D01*
X149901375Y-106487750D01*
X149962696Y-106367401D01*
X150018545Y-106195516D01*
X150043945Y-106035142D01*
X150073874Y-105972011D01*
X150133185Y-105935079D01*
X150203048Y-105936077D01*
G37*
%TD.AperFunction*%
%TA.AperFunction,NonConductor*%
G36*
X97629268Y-99206551D02*
G01*
X97670663Y-99262837D01*
X97678118Y-99305184D01*
X97678118Y-101222145D01*
X97658433Y-101289184D01*
X97605629Y-101334939D01*
X97554119Y-101346145D01*
X97330748Y-101346145D01*
X97330741Y-101346146D01*
X97271134Y-101352553D01*
X97136289Y-101402847D01*
X97136282Y-101402851D01*
X97021073Y-101489097D01*
X97021070Y-101489100D01*
X96934824Y-101604309D01*
X96934820Y-101604316D01*
X96884526Y-101739162D01*
X96878119Y-101798761D01*
X96878118Y-101798780D01*
X96878118Y-103694515D01*
X96878119Y-103694521D01*
X96884526Y-103754128D01*
X96934820Y-103888973D01*
X96934824Y-103888980D01*
X97021070Y-104004189D01*
X97021073Y-104004192D01*
X97136282Y-104090438D01*
X97136289Y-104090442D01*
X97271135Y-104140736D01*
X97271134Y-104140736D01*
X97278062Y-104141480D01*
X97330745Y-104147145D01*
X99226490Y-104147144D01*
X99286101Y-104140736D01*
X99420949Y-104090441D01*
X99536164Y-104004191D01*
X99622414Y-103888976D01*
X99625791Y-103879923D01*
X99652219Y-103809065D01*
X99694089Y-103753131D01*
X99759554Y-103728713D01*
X99827827Y-103743564D01*
X99856082Y-103764716D01*
X99906254Y-103814888D01*
X99906259Y-103814892D01*
X100035752Y-103908973D01*
X100084596Y-103944460D01*
X100212993Y-104009882D01*
X100281011Y-104044540D01*
X100281014Y-104044541D01*
X100374652Y-104074965D01*
X100490667Y-104112660D01*
X100708396Y-104147145D01*
X100708397Y-104147145D01*
X100928839Y-104147145D01*
X100928840Y-104147145D01*
X101146569Y-104112660D01*
X101356224Y-104044540D01*
X101552640Y-103944460D01*
X101730983Y-103814887D01*
X101886860Y-103659010D01*
X102016433Y-103480667D01*
X102037935Y-103438468D01*
X102049970Y-103414849D01*
X102097944Y-103364054D01*
X102160454Y-103347145D01*
X109290873Y-103347145D01*
X109357912Y-103366830D01*
X109378554Y-103383464D01*
X112526572Y-106531482D01*
X112560057Y-106592805D01*
X112555073Y-106662497D01*
X112513201Y-106718430D01*
X112447737Y-106742847D01*
X112388387Y-106732412D01*
X112299022Y-106692559D01*
X112285294Y-106684519D01*
X112285199Y-106684690D01*
X112278099Y-106680725D01*
X112244861Y-106667513D01*
X112228813Y-106661134D01*
X112224120Y-106659156D01*
X112175663Y-106637546D01*
X112167875Y-106635234D01*
X112167930Y-106635047D01*
X112152580Y-106630831D01*
X111709164Y-106454573D01*
X111695829Y-106447447D01*
X111695662Y-106447775D01*
X111688425Y-106444078D01*
X111637201Y-106425877D01*
X111632915Y-106424265D01*
X111619068Y-106418761D01*
X111582412Y-106404190D01*
X111582409Y-106404189D01*
X111582408Y-106404189D01*
X111574527Y-106402198D01*
X111574616Y-106401841D01*
X111559898Y-106398410D01*
X111093296Y-106232616D01*
X111079843Y-106226047D01*
X111079675Y-106226409D01*
X111072303Y-106222974D01*
X111020243Y-106206573D01*
X111015987Y-106205147D01*
X110964558Y-106186873D01*
X110964555Y-106186872D01*
X110964554Y-106186872D01*
X110964552Y-106186871D01*
X110956610Y-106185175D01*
X110956693Y-106184786D01*
X110941989Y-106181920D01*
X110504960Y-106044241D01*
X110467197Y-106032344D01*
X110453096Y-106026100D01*
X110452980Y-106026377D01*
X110445480Y-106023228D01*
X110393526Y-106009038D01*
X110388940Y-106007690D01*
X110337597Y-105991515D01*
X110329590Y-105990105D01*
X110329641Y-105989811D01*
X110314404Y-105987428D01*
X109846420Y-105859614D01*
X109831004Y-105853542D01*
X109830985Y-105853596D01*
X109823356Y-105850786D01*
X109772650Y-105839339D01*
X109767289Y-105838002D01*
X109717177Y-105824316D01*
X109717172Y-105824315D01*
X109717171Y-105824315D01*
X109717169Y-105824314D01*
X109709120Y-105823216D01*
X109709127Y-105823159D01*
X109692666Y-105821283D01*
X109491144Y-105775790D01*
X109248609Y-105721039D01*
X109231273Y-105715110D01*
X109224781Y-105713059D01*
X109174308Y-105704126D01*
X109168617Y-105702981D01*
X109118612Y-105691693D01*
X109111855Y-105691075D01*
X109093555Y-105689834D01*
X109063309Y-105684481D01*
X108988789Y-105671292D01*
X107937961Y-105485312D01*
X107913050Y-105478152D01*
X107912816Y-105478057D01*
X107912813Y-105478056D01*
X107863644Y-105471986D01*
X107857231Y-105471023D01*
X107808448Y-105462390D01*
X107808433Y-105462389D01*
X107808168Y-105462413D01*
X107782272Y-105461942D01*
X106697044Y-105327990D01*
X106672348Y-105322334D01*
X106670685Y-105321769D01*
X106622739Y-105318614D01*
X106615692Y-105317948D01*
X106567995Y-105312061D01*
X106567988Y-105312061D01*
X106566236Y-105312306D01*
X106540932Y-105313231D01*
X105420688Y-105239515D01*
X105401089Y-105236097D01*
X105395747Y-105235295D01*
X105344770Y-105234378D01*
X105338863Y-105234131D01*
X105293319Y-105231135D01*
X105287984Y-105230784D01*
X105287983Y-105230784D01*
X105282603Y-105231135D01*
X105262786Y-105232903D01*
X104003017Y-105210244D01*
X103988478Y-105208319D01*
X103988425Y-105208786D01*
X103980352Y-105207858D01*
X103925257Y-105208771D01*
X103920976Y-105208768D01*
X103865886Y-105207777D01*
X103857814Y-105208693D01*
X103857761Y-105208228D01*
X103843226Y-105210130D01*
X102612884Y-105230515D01*
X102597332Y-105229042D01*
X102597313Y-105229298D01*
X102589207Y-105228691D01*
X102535793Y-105231695D01*
X102530888Y-105231874D01*
X102477348Y-105232762D01*
X102469308Y-105233956D01*
X102469270Y-105233702D01*
X102453866Y-105236302D01*
X101249345Y-105304042D01*
X101233856Y-105303186D01*
X101233846Y-105303468D01*
X101225724Y-105303177D01*
X101172256Y-105308282D01*
X101167438Y-105308647D01*
X101113820Y-105311663D01*
X101105833Y-105313175D01*
X101105780Y-105312899D01*
X101090596Y-105316081D01*
X99771579Y-105442039D01*
X99758040Y-105441757D01*
X99758035Y-105442476D01*
X99749913Y-105442419D01*
X99749912Y-105442419D01*
X99749910Y-105442419D01*
X99693413Y-105449453D01*
X99689882Y-105449841D01*
X99633197Y-105455254D01*
X99625278Y-105457076D01*
X99625116Y-105456374D01*
X99611966Y-105459595D01*
X98033715Y-105656117D01*
X98019262Y-105657064D01*
X98019104Y-105657065D01*
X97958075Y-105665524D01*
X97956376Y-105665747D01*
X97895322Y-105673350D01*
X97895161Y-105673393D01*
X97880964Y-105676213D01*
X96531994Y-105863211D01*
X96513872Y-105863759D01*
X96506907Y-105864132D01*
X96456470Y-105873544D01*
X96450753Y-105874473D01*
X96399953Y-105881515D01*
X96393207Y-105883372D01*
X96375865Y-105888584D01*
X95912873Y-105974978D01*
X95898694Y-105976786D01*
X95897482Y-105976869D01*
X95837635Y-105989002D01*
X95835746Y-105989370D01*
X95807908Y-105994564D01*
X95775764Y-106000563D01*
X95775763Y-106000563D01*
X95775760Y-106000564D01*
X95774604Y-106000941D01*
X95760798Y-106004578D01*
X94689972Y-106221658D01*
X94687071Y-106222210D01*
X94625128Y-106233238D01*
X94555676Y-106225609D01*
X94501374Y-106181642D01*
X94479462Y-106115297D01*
X94484134Y-106077198D01*
X94675065Y-105406785D01*
X94675952Y-105403818D01*
X94900531Y-104687457D01*
X94902777Y-104680940D01*
X95183053Y-103936208D01*
X95183996Y-103933783D01*
X95198675Y-103897168D01*
X95683361Y-102688096D01*
X95686466Y-102681003D01*
X96364688Y-101254547D01*
X96366110Y-101251657D01*
X96714700Y-100566430D01*
X96716940Y-100562231D01*
X96891581Y-100249852D01*
X96898525Y-100239004D01*
X96898924Y-100238268D01*
X96898927Y-100238266D01*
X96928661Y-100183543D01*
X96929255Y-100182465D01*
X96959633Y-100128131D01*
X96959634Y-100128127D01*
X96960036Y-100127408D01*
X96965516Y-100115716D01*
X97158959Y-99759714D01*
X97159412Y-99758891D01*
X97445794Y-99244835D01*
X97495616Y-99195852D01*
X97564013Y-99181579D01*
X97629268Y-99206551D01*
G37*
%TD.AperFunction*%
%TA.AperFunction,NonConductor*%
G36*
X141326003Y-96869156D02*
G01*
X141351098Y-96887388D01*
X141374596Y-96904460D01*
X141502192Y-96969474D01*
X141571011Y-97004540D01*
X141571014Y-97004541D01*
X141632982Y-97024675D01*
X141780667Y-97072660D01*
X141998396Y-97107145D01*
X141998397Y-97107145D01*
X142218839Y-97107145D01*
X142218840Y-97107145D01*
X142436569Y-97072660D01*
X142506823Y-97049832D01*
X142576662Y-97047837D01*
X142632821Y-97080083D01*
X144130499Y-98577761D01*
X144163984Y-98639084D01*
X144166818Y-98665442D01*
X144166818Y-104674097D01*
X144147133Y-104741136D01*
X144094329Y-104786891D01*
X144025171Y-104796835D01*
X144023420Y-104796570D01*
X143947351Y-104784522D01*
X143908983Y-104778445D01*
X143728253Y-104778445D01*
X143686872Y-104784999D01*
X143549750Y-104806717D01*
X143377859Y-104862568D01*
X143216826Y-104944619D01*
X143070621Y-105050841D01*
X142942814Y-105178648D01*
X142836592Y-105324853D01*
X142754541Y-105485886D01*
X142698690Y-105657777D01*
X142671091Y-105832031D01*
X142641162Y-105895166D01*
X142591307Y-105926207D01*
X142643481Y-105960800D01*
X142671090Y-106021257D01*
X142676363Y-106054543D01*
X142698690Y-106195512D01*
X142698690Y-106195514D01*
X142698691Y-106195516D01*
X142754540Y-106367401D01*
X142835934Y-106527146D01*
X142836592Y-106528436D01*
X142942814Y-106674641D01*
X143070621Y-106802448D01*
X143179535Y-106881577D01*
X143216830Y-106908673D01*
X143377862Y-106990723D01*
X143549747Y-107046572D01*
X143728253Y-107074845D01*
X143728254Y-107074845D01*
X143908981Y-107074845D01*
X143908983Y-107074845D01*
X144026659Y-107056206D01*
X144095950Y-107065160D01*
X144133736Y-107090998D01*
X144727202Y-107684464D01*
X144760687Y-107745787D01*
X144755703Y-107815479D01*
X144713831Y-107871412D01*
X144648367Y-107895829D01*
X144639521Y-107896145D01*
X141608715Y-107896145D01*
X141541676Y-107876460D01*
X141521034Y-107859826D01*
X140920807Y-107259599D01*
X140887322Y-107198276D01*
X140892306Y-107128584D01*
X140934178Y-107072651D01*
X140999642Y-107048234D01*
X141027886Y-107049445D01*
X141188253Y-107074845D01*
X141188254Y-107074845D01*
X141368982Y-107074845D01*
X141368983Y-107074845D01*
X141547489Y-107046572D01*
X141719374Y-106990723D01*
X141880406Y-106908673D01*
X141974375Y-106840401D01*
X142026614Y-106802448D01*
X142026616Y-106802445D01*
X142026620Y-106802443D01*
X142154416Y-106674647D01*
X142154418Y-106674643D01*
X142154421Y-106674641D01*
X142243888Y-106551498D01*
X142260646Y-106528433D01*
X142342696Y-106367401D01*
X142398545Y-106195516D01*
X142426145Y-106021257D01*
X142456074Y-105958123D01*
X142505928Y-105927081D01*
X142453755Y-105892489D01*
X142426145Y-105832031D01*
X142415766Y-105766502D01*
X142398545Y-105657774D01*
X142342696Y-105485889D01*
X142260646Y-105324857D01*
X142248604Y-105308282D01*
X142154421Y-105178648D01*
X142026614Y-105050841D01*
X141880409Y-104944619D01*
X141880408Y-104944618D01*
X141880406Y-104944617D01*
X141719374Y-104862567D01*
X141547489Y-104806718D01*
X141547487Y-104806717D01*
X141547485Y-104806717D01*
X141422308Y-104786891D01*
X141368983Y-104778445D01*
X141188253Y-104778445D01*
X141146872Y-104784999D01*
X141009750Y-104806717D01*
X140837859Y-104862568D01*
X140676826Y-104944619D01*
X140530621Y-105050841D01*
X140402814Y-105178648D01*
X140296592Y-105324853D01*
X140214541Y-105485886D01*
X140158690Y-105657777D01*
X140131091Y-105832031D01*
X140101162Y-105895166D01*
X140041850Y-105932097D01*
X139971988Y-105931099D01*
X139913755Y-105892489D01*
X139886145Y-105832031D01*
X139875766Y-105766502D01*
X139858545Y-105657774D01*
X139802696Y-105485889D01*
X139720646Y-105324857D01*
X139708604Y-105308282D01*
X139614421Y-105178648D01*
X139486614Y-105050841D01*
X139340405Y-104944616D01*
X139340404Y-104944615D01*
X139258311Y-104902786D01*
X139207515Y-104854812D01*
X139190720Y-104786991D01*
X139213258Y-104720856D01*
X139226919Y-104704627D01*
X140827876Y-103103671D01*
X142227393Y-103103671D01*
X143168818Y-103103671D01*
X143168818Y-101601671D01*
X142227393Y-101601671D01*
X142227393Y-103103671D01*
X140827876Y-103103671D01*
X140887124Y-103044423D01*
X140887129Y-103044419D01*
X140897332Y-103034215D01*
X140897334Y-103034215D01*
X141009138Y-102922411D01*
X141088195Y-102785479D01*
X141123685Y-102653029D01*
X141129118Y-102632753D01*
X141129118Y-102474638D01*
X141129118Y-100603671D01*
X142227393Y-100603671D01*
X143168818Y-100603671D01*
X143168818Y-99101671D01*
X142227393Y-99101671D01*
X142227393Y-100603671D01*
X141129118Y-100603671D01*
X141129118Y-96969474D01*
X141148803Y-96902435D01*
X141201607Y-96856680D01*
X141270765Y-96846736D01*
X141326003Y-96869156D01*
G37*
%TD.AperFunction*%
%TA.AperFunction,NonConductor*%
G36*
X138098989Y-106886786D02*
G01*
X138128539Y-106902649D01*
X138136830Y-106908673D01*
X138297862Y-106990723D01*
X138469747Y-107046572D01*
X138648253Y-107074845D01*
X138648254Y-107074845D01*
X138828981Y-107074845D01*
X138828983Y-107074845D01*
X138946659Y-107056206D01*
X139015950Y-107065160D01*
X139053736Y-107090998D01*
X140247202Y-108284464D01*
X140280687Y-108345787D01*
X140275703Y-108415479D01*
X140233831Y-108471412D01*
X140168367Y-108495829D01*
X140159521Y-108496145D01*
X126651666Y-108496145D01*
X126584627Y-108476460D01*
X126563985Y-108459826D01*
X126192685Y-108088526D01*
X126159200Y-108027203D01*
X126164184Y-107957511D01*
X126206056Y-107901578D01*
X126271520Y-107877161D01*
X126280366Y-107876845D01*
X136671014Y-107876845D01*
X136671030Y-107876846D01*
X136678626Y-107876846D01*
X136836737Y-107876846D01*
X136836740Y-107876846D01*
X136989468Y-107835922D01*
X137039587Y-107806984D01*
X137126399Y-107756865D01*
X137238203Y-107645061D01*
X137238203Y-107645059D01*
X137248411Y-107634852D01*
X137248413Y-107634849D01*
X137967976Y-106915285D01*
X138029297Y-106881802D01*
X138098989Y-106886786D01*
G37*
%TD.AperFunction*%
%TA.AperFunction,NonConductor*%
G36*
X156748862Y-112116830D02*
G01*
X156794617Y-112169634D01*
X156804561Y-112238792D01*
X156775536Y-112302348D01*
X156716758Y-112340122D01*
X156713454Y-112341043D01*
X156417945Y-112419002D01*
X156393137Y-112422916D01*
X156390847Y-112423042D01*
X156390845Y-112423042D01*
X156345671Y-112437848D01*
X156338688Y-112439912D01*
X156292732Y-112452037D01*
X156290744Y-112453175D01*
X156267792Y-112463375D01*
X155386495Y-112752240D01*
X155365300Y-112757177D01*
X155354549Y-112758703D01*
X155354546Y-112758703D01*
X155354546Y-112758704D01*
X155340828Y-112764548D01*
X155318637Y-112774001D01*
X155308665Y-112777751D01*
X155271588Y-112789904D01*
X155271586Y-112789905D01*
X155262485Y-112795848D01*
X155243292Y-112806099D01*
X154474102Y-113133793D01*
X154450509Y-113141166D01*
X154447255Y-113141835D01*
X154447244Y-113141839D01*
X154405680Y-113162682D01*
X154398703Y-113165914D01*
X154369924Y-113178176D01*
X154355921Y-113184142D01*
X154355919Y-113184142D01*
X154348449Y-113187326D01*
X154347751Y-113185689D01*
X154289725Y-113200375D01*
X154223476Y-113178176D01*
X154179745Y-113123684D01*
X154172417Y-113054199D01*
X154203818Y-112991783D01*
X154206698Y-112988805D01*
X155062041Y-112133464D01*
X155123364Y-112099979D01*
X155149722Y-112097145D01*
X156681823Y-112097145D01*
X156748862Y-112116830D01*
G37*
%TD.AperFunction*%
%TA.AperFunction,NonConductor*%
G36*
X117988251Y-112535843D02*
G01*
X117999481Y-112541585D01*
X118024833Y-112556222D01*
X118177561Y-112597146D01*
X118177564Y-112597146D01*
X118343271Y-112597146D01*
X118343287Y-112597145D01*
X120601740Y-112597145D01*
X120668779Y-112616830D01*
X120714534Y-112669634D01*
X120724478Y-112738792D01*
X120695453Y-112802348D01*
X120636866Y-112840065D01*
X120622186Y-112844402D01*
X120486018Y-112884622D01*
X120460627Y-112889318D01*
X120460141Y-112889356D01*
X120413653Y-112905815D01*
X120407398Y-112907844D01*
X120360095Y-112921817D01*
X120359674Y-112922075D01*
X120336366Y-112933178D01*
X120040412Y-113037962D01*
X120018827Y-113043106D01*
X120015585Y-113043963D01*
X119968798Y-113063159D01*
X119963118Y-113065328D01*
X119915454Y-113082204D01*
X119912434Y-113083742D01*
X119892937Y-113094285D01*
X119513912Y-113249798D01*
X119492113Y-113256141D01*
X119489349Y-113257020D01*
X119443652Y-113278462D01*
X119438051Y-113280923D01*
X119391360Y-113300081D01*
X119388867Y-113301509D01*
X119369423Y-113313294D01*
X118321375Y-113805091D01*
X118308958Y-113809261D01*
X118309218Y-113810008D01*
X118301537Y-113812675D01*
X118249987Y-113838543D01*
X118247056Y-113839966D01*
X118240815Y-113842895D01*
X118171764Y-113853558D01*
X118107909Y-113825195D01*
X118069526Y-113766813D01*
X118065077Y-113745911D01*
X118063873Y-113736208D01*
X118063872Y-113736206D01*
X118063872Y-113736204D01*
X118062985Y-113734017D01*
X118055958Y-113709926D01*
X118043208Y-113640817D01*
X117999542Y-113404142D01*
X117997519Y-113378765D01*
X117997527Y-113378435D01*
X117997553Y-113377317D01*
X117986116Y-113330299D01*
X117984672Y-113323542D01*
X117975897Y-113275977D01*
X117975274Y-113274668D01*
X117966750Y-113250684D01*
X117891388Y-112940855D01*
X117887933Y-112915302D01*
X117887914Y-112914681D01*
X117887914Y-112914680D01*
X117887914Y-112914678D01*
X117873742Y-112867563D01*
X117872009Y-112861182D01*
X117860394Y-112813427D01*
X117860393Y-112813426D01*
X117860393Y-112813424D01*
X117860088Y-112812866D01*
X117850138Y-112789088D01*
X117840078Y-112755643D01*
X117818736Y-112684687D01*
X117818278Y-112614821D01*
X117855665Y-112555796D01*
X117919029Y-112526354D01*
X117988251Y-112535843D01*
G37*
%TD.AperFunction*%
%TA.AperFunction,NonConductor*%
G36*
X163656048Y-107941724D02*
G01*
X163694919Y-107968032D01*
X164422583Y-108695696D01*
X164456068Y-108757019D01*
X164451084Y-108826711D01*
X164409212Y-108882644D01*
X164407787Y-108883695D01*
X164346259Y-108928397D01*
X164346254Y-108928401D01*
X164190374Y-109084281D01*
X164190370Y-109084286D01*
X164060805Y-109262619D01*
X163960722Y-109459038D01*
X163960721Y-109459041D01*
X163892603Y-109668692D01*
X163864684Y-109844968D01*
X163858118Y-109886423D01*
X163858118Y-110106867D01*
X163875360Y-110215731D01*
X163892603Y-110324597D01*
X163960721Y-110534248D01*
X163960722Y-110534251D01*
X164060805Y-110730670D01*
X164190370Y-110909003D01*
X164190374Y-110909008D01*
X164346254Y-111064888D01*
X164346259Y-111064892D01*
X164448224Y-111138973D01*
X164524596Y-111194460D01*
X164642426Y-111254498D01*
X164721011Y-111294540D01*
X164721014Y-111294541D01*
X164806228Y-111322228D01*
X164930667Y-111362660D01*
X165148396Y-111397145D01*
X165148397Y-111397145D01*
X165368839Y-111397145D01*
X165368840Y-111397145D01*
X165586569Y-111362660D01*
X165796224Y-111294540D01*
X165992640Y-111194460D01*
X166170983Y-111064887D01*
X166221154Y-111014715D01*
X166282475Y-110981231D01*
X166352166Y-110986215D01*
X166408100Y-111028086D01*
X166425016Y-111059064D01*
X166454820Y-111138973D01*
X166454824Y-111138980D01*
X166541070Y-111254189D01*
X166541073Y-111254192D01*
X166656282Y-111340438D01*
X166656289Y-111340442D01*
X166791135Y-111390736D01*
X166791134Y-111390736D01*
X166798062Y-111391480D01*
X166850745Y-111397145D01*
X168746490Y-111397144D01*
X168806101Y-111390736D01*
X168940949Y-111340441D01*
X169018495Y-111282389D01*
X169083956Y-111257973D01*
X169152229Y-111272824D01*
X169201635Y-111322228D01*
X169216488Y-111390501D01*
X169208785Y-111425525D01*
X169161644Y-111550160D01*
X169150366Y-111572725D01*
X169149291Y-111574418D01*
X169149289Y-111574422D01*
X169134986Y-111620054D01*
X169132646Y-111626829D01*
X169115730Y-111671557D01*
X169115728Y-111671562D01*
X169115530Y-111673547D01*
X169110472Y-111698265D01*
X169032555Y-111946856D01*
X169024893Y-111965715D01*
X169018379Y-111978598D01*
X169011115Y-112013297D01*
X169008072Y-112024968D01*
X168997462Y-112058821D01*
X168997462Y-112058825D01*
X168996856Y-112073259D01*
X168994334Y-112093464D01*
X168922577Y-112436254D01*
X168915558Y-112458805D01*
X168913188Y-112464455D01*
X168907285Y-112507781D01*
X168905790Y-112516444D01*
X168896830Y-112559250D01*
X168897170Y-112565361D01*
X168896226Y-112588973D01*
X168835100Y-113037707D01*
X168829631Y-113059911D01*
X168829038Y-113062604D01*
X168824711Y-113112847D01*
X168824034Y-113118940D01*
X168817226Y-113168925D01*
X168817214Y-113171683D01*
X168817675Y-113194549D01*
X168775733Y-113681644D01*
X168770815Y-113707120D01*
X168770769Y-113707268D01*
X168769086Y-113756900D01*
X168768700Y-113763333D01*
X168764441Y-113812796D01*
X168764441Y-113812804D01*
X168764467Y-113812947D01*
X168766307Y-113838837D01*
X168762847Y-113940879D01*
X168740902Y-114007213D01*
X168686577Y-114051152D01*
X168617122Y-114058746D01*
X168578145Y-114044763D01*
X168229026Y-113848464D01*
X168170569Y-113815512D01*
X167713953Y-113558118D01*
X167695733Y-113545583D01*
X167688058Y-113539224D01*
X167688056Y-113539223D01*
X167651794Y-113522587D01*
X167642610Y-113517902D01*
X167607847Y-113498306D01*
X167607841Y-113498304D01*
X167598185Y-113495823D01*
X167577340Y-113488431D01*
X167069600Y-113255500D01*
X167062628Y-113251764D01*
X167001431Y-113224224D01*
X167000614Y-113223853D01*
X166939571Y-113195848D01*
X166932162Y-113193050D01*
X166523446Y-113009114D01*
X166505470Y-112998591D01*
X166501476Y-112996380D01*
X166454169Y-112977779D01*
X166448657Y-112975456D01*
X166402324Y-112954605D01*
X166397942Y-112953288D01*
X166377867Y-112947778D01*
X166212928Y-112882927D01*
X166051885Y-112819607D01*
X166037750Y-112812162D01*
X166037669Y-112812325D01*
X166030392Y-112808683D01*
X165980349Y-112791365D01*
X165975527Y-112789584D01*
X165926276Y-112770219D01*
X165918390Y-112768258D01*
X165918433Y-112768082D01*
X165902851Y-112764548D01*
X165885963Y-112758704D01*
X165754540Y-112713225D01*
X165271699Y-112546138D01*
X165257965Y-112539584D01*
X165257823Y-112539899D01*
X165250424Y-112536536D01*
X165198593Y-112520748D01*
X165194176Y-112519311D01*
X165142966Y-112501590D01*
X165135000Y-112499957D01*
X165135069Y-112499618D01*
X165120101Y-112496840D01*
X164523169Y-112315015D01*
X164503377Y-112307070D01*
X164502492Y-112306622D01*
X164492685Y-112301667D01*
X164492683Y-112301666D01*
X164492682Y-112301666D01*
X164455584Y-112293909D01*
X164444835Y-112291154D01*
X164408561Y-112280106D01*
X164408554Y-112280105D01*
X164396574Y-112279698D01*
X164375408Y-112277145D01*
X163602100Y-112115461D01*
X163588628Y-112111843D01*
X163585750Y-112110893D01*
X163526630Y-112099660D01*
X163524399Y-112099215D01*
X163465534Y-112086907D01*
X163462494Y-112086678D01*
X163448677Y-112084850D01*
X162740309Y-111950260D01*
X162721480Y-111944542D01*
X162716095Y-111943046D01*
X162665560Y-111935915D01*
X162659744Y-111934953D01*
X162614317Y-111926323D01*
X162609617Y-111925430D01*
X162609616Y-111925430D01*
X162604038Y-111925112D01*
X162584371Y-111924461D01*
X162056317Y-111849957D01*
X162034305Y-111844768D01*
X162026072Y-111842014D01*
X162026069Y-111842013D01*
X162026067Y-111842013D01*
X161987881Y-111839677D01*
X161984952Y-111839498D01*
X161975204Y-111838513D01*
X161934427Y-111832760D01*
X161934417Y-111832760D01*
X161925801Y-111833813D01*
X161903195Y-111834497D01*
X161209657Y-111792081D01*
X161184554Y-111787930D01*
X161183152Y-111787547D01*
X161183142Y-111787545D01*
X161134797Y-111787307D01*
X161127841Y-111787078D01*
X161079565Y-111784125D01*
X161079564Y-111784125D01*
X161078132Y-111784417D01*
X161052816Y-111786901D01*
X160311480Y-111783242D01*
X160286646Y-111780605D01*
X160284047Y-111780060D01*
X160284046Y-111780060D01*
X160284043Y-111780060D01*
X160275163Y-111780548D01*
X160236925Y-111782653D01*
X160229500Y-111782838D01*
X160182345Y-111782605D01*
X160179779Y-111783279D01*
X160155100Y-111787158D01*
X160107773Y-111789763D01*
X160039753Y-111773792D01*
X159991165Y-111723583D01*
X159977436Y-111655075D01*
X160002924Y-111590020D01*
X160013269Y-111578277D01*
X163278124Y-108313423D01*
X163278129Y-108313419D01*
X163288332Y-108303215D01*
X163288334Y-108303215D01*
X163400138Y-108191411D01*
X163467754Y-108074296D01*
X163479195Y-108054480D01*
X163487463Y-108023620D01*
X163523826Y-107963961D01*
X163586673Y-107933430D01*
X163656048Y-107941724D01*
G37*
%TD.AperFunction*%
%TA.AperFunction,NonConductor*%
G36*
X132752977Y-112616830D02*
G01*
X132798732Y-112669634D01*
X132808676Y-112738792D01*
X132783954Y-112793444D01*
X132785683Y-112794701D01*
X132676592Y-112944853D01*
X132594541Y-113105886D01*
X132594540Y-113105888D01*
X132594540Y-113105889D01*
X132586065Y-113131971D01*
X132538690Y-113277777D01*
X132510418Y-113456280D01*
X132510418Y-113637009D01*
X132538690Y-113815512D01*
X132538690Y-113815513D01*
X132589681Y-113972447D01*
X132591676Y-114042288D01*
X132555596Y-114102121D01*
X132492895Y-114132949D01*
X132423480Y-114124984D01*
X132412155Y-114119505D01*
X132207511Y-114007349D01*
X132195107Y-113998611D01*
X132194908Y-113998906D01*
X132188175Y-113994349D01*
X132139627Y-113970046D01*
X132135541Y-113967905D01*
X132087979Y-113941839D01*
X132080406Y-113938898D01*
X132080534Y-113938567D01*
X132066292Y-113933337D01*
X131510836Y-113655289D01*
X131489291Y-113641561D01*
X131488355Y-113640819D01*
X131488350Y-113640816D01*
X131443754Y-113621498D01*
X131437543Y-113618601D01*
X131394062Y-113596836D01*
X131394061Y-113596835D01*
X131392880Y-113596593D01*
X131368522Y-113588908D01*
X130954870Y-113409723D01*
X130943216Y-113402965D01*
X130942854Y-113403612D01*
X130935765Y-113399634D01*
X130882764Y-113378435D01*
X130879525Y-113377086D01*
X130827200Y-113354420D01*
X130819388Y-113352191D01*
X130819590Y-113351482D01*
X130806589Y-113347967D01*
X130279540Y-113137165D01*
X130266186Y-113129995D01*
X130266023Y-113130315D01*
X130258793Y-113126604D01*
X130258792Y-113126603D01*
X130207662Y-113108324D01*
X130203369Y-113106699D01*
X130152951Y-113086534D01*
X130145078Y-113084527D01*
X130145166Y-113084181D01*
X130130416Y-113080710D01*
X129588465Y-112886973D01*
X129566807Y-112876775D01*
X129562255Y-112874066D01*
X129562252Y-112874065D01*
X129519384Y-112861971D01*
X129511322Y-112859396D01*
X129469381Y-112844403D01*
X129469377Y-112844402D01*
X129469375Y-112844401D01*
X129461432Y-112842689D01*
X129461943Y-112840317D01*
X129408212Y-112819653D01*
X129366911Y-112763297D01*
X129362633Y-112693559D01*
X129396739Y-112632579D01*
X129458399Y-112599718D01*
X129483526Y-112597145D01*
X132685938Y-112597145D01*
X132752977Y-112616830D01*
G37*
%TD.AperFunction*%
%TA.AperFunction,NonConductor*%
G36*
X145306452Y-117170559D02*
G01*
X145362385Y-117212431D01*
X145386802Y-117277895D01*
X145387118Y-117286741D01*
X145387118Y-118019103D01*
X145367433Y-118086142D01*
X145314629Y-118131897D01*
X145245471Y-118141841D01*
X145190233Y-118119422D01*
X145056171Y-118022021D01*
X144866835Y-117925549D01*
X144664743Y-117859886D01*
X144664268Y-117859772D01*
X144664106Y-117859679D01*
X144660111Y-117858381D01*
X144660383Y-117857541D01*
X144603677Y-117824979D01*
X144571515Y-117762952D01*
X144577994Y-117693383D01*
X144621055Y-117638361D01*
X144661122Y-117619426D01*
X144710404Y-117606221D01*
X144784447Y-117563472D01*
X144847335Y-117527164D01*
X144959139Y-117415360D01*
X144959139Y-117415358D01*
X144969343Y-117405155D01*
X144969346Y-117405150D01*
X145175438Y-117199059D01*
X145236760Y-117165575D01*
X145306452Y-117170559D01*
G37*
%TD.AperFunction*%
%TA.AperFunction,NonConductor*%
G36*
X150715349Y-115199623D02*
G01*
X150761104Y-115252427D01*
X150771048Y-115321585D01*
X150742023Y-115385141D01*
X150724214Y-115401991D01*
X150703029Y-115418391D01*
X150504641Y-115571961D01*
X150493076Y-115578932D01*
X150493461Y-115579550D01*
X150486563Y-115583839D01*
X150442490Y-115620009D01*
X150439730Y-115622209D01*
X150394668Y-115657091D01*
X150388948Y-115662860D01*
X150388431Y-115662347D01*
X150379056Y-115672067D01*
X149684781Y-116241841D01*
X149670950Y-116250876D01*
X149670987Y-116250930D01*
X149664282Y-116255523D01*
X149625550Y-116290295D01*
X149621381Y-116293874D01*
X149581155Y-116326887D01*
X149575601Y-116332817D01*
X149575553Y-116332772D01*
X149564530Y-116345076D01*
X149207729Y-116665394D01*
X149195238Y-116674308D01*
X149195427Y-116674562D01*
X149188906Y-116679405D01*
X149150132Y-116716982D01*
X149146675Y-116720207D01*
X149106522Y-116756254D01*
X149101237Y-116762424D01*
X149100996Y-116762218D01*
X149091238Y-116774058D01*
X148596038Y-117253977D01*
X148586065Y-117262661D01*
X148580578Y-117266945D01*
X148539669Y-117308555D01*
X148537546Y-117310663D01*
X148495648Y-117351268D01*
X148491326Y-117356722D01*
X148482577Y-117366625D01*
X147958703Y-117899474D01*
X147948340Y-117907809D01*
X147948832Y-117908404D01*
X147942569Y-117913577D01*
X147903506Y-117955551D01*
X147901159Y-117958005D01*
X147860969Y-117998883D01*
X147856081Y-118005367D01*
X147855463Y-118004901D01*
X147847599Y-118015625D01*
X147402405Y-118494000D01*
X147392534Y-118503495D01*
X147389264Y-118506309D01*
X147349575Y-118550729D01*
X147347884Y-118552583D01*
X147307308Y-118596185D01*
X147304803Y-118599704D01*
X147296258Y-118610403D01*
X146804586Y-119160693D01*
X146745240Y-119197569D01*
X146675379Y-119196507D01*
X146617182Y-119157844D01*
X146589126Y-119093854D01*
X146588118Y-119078075D01*
X146588118Y-117622120D01*
X146607803Y-117555081D01*
X146660607Y-117509326D01*
X146729765Y-117499382D01*
X146750438Y-117504190D01*
X146784076Y-117515120D01*
X146784079Y-117515120D01*
X146784084Y-117515122D01*
X146986266Y-117547145D01*
X146986267Y-117547145D01*
X147190969Y-117547145D01*
X147190970Y-117547145D01*
X147393152Y-117515122D01*
X147587837Y-117451865D01*
X147770228Y-117358932D01*
X147885106Y-117275469D01*
X147935831Y-117238616D01*
X147935833Y-117238613D01*
X147935837Y-117238611D01*
X148080584Y-117093864D01*
X148080586Y-117093860D01*
X148080589Y-117093858D01*
X148133350Y-117021235D01*
X148200905Y-116928255D01*
X148293838Y-116745864D01*
X148357095Y-116551179D01*
X148389118Y-116348997D01*
X148389118Y-116144293D01*
X148357095Y-115942111D01*
X148352444Y-115927799D01*
X148350450Y-115857960D01*
X148382693Y-115801804D01*
X148968242Y-115216257D01*
X149029565Y-115182772D01*
X149055923Y-115179938D01*
X150648310Y-115179938D01*
X150715349Y-115199623D01*
G37*
%TD.AperFunction*%
M02*
