%TF.GenerationSoftware,KiCad,Pcbnew,9.0.3*%
%TF.CreationDate,2025-12-14T09:52:05-05:00*%
%TF.ProjectId,Blinky,426c696e-6b79-42e6-9b69-6361645f7063,rev?*%
%TF.SameCoordinates,Original*%
%TF.FileFunction,Profile,NP*%
%FSLAX46Y46*%
G04 Gerber Fmt 4.6, Leading zero omitted, Abs format (unit mm)*
G04 Created by KiCad (PCBNEW 9.0.3) date 2025-12-14 09:52:05*
%MOMM*%
%LPD*%
G01*
G04 APERTURE LIST*
%TA.AperFunction,Profile*%
%ADD10C,0.030000*%
%TD*%
G04 APERTURE END LIST*
D10*
X147334410Y-87590334D02*
X147300471Y-87571535D01*
X100430010Y-94341875D02*
X100032278Y-94810818D01*
X131905217Y-114412413D02*
X132623942Y-114806313D01*
X189976880Y-99830575D02*
X189689506Y-99259636D01*
X99746371Y-105947225D02*
X101207710Y-105807675D01*
X146235383Y-90498106D02*
X145914602Y-91342286D01*
X117793074Y-91545135D02*
X117585640Y-91173734D01*
X94716954Y-103753740D02*
X94428188Y-104521032D01*
X189072404Y-98187167D02*
X188755063Y-97684459D01*
X139903053Y-121161376D02*
X140025364Y-121312242D01*
X186473401Y-94652067D02*
X185711443Y-93829539D01*
X177767144Y-105966245D02*
X179143856Y-105758648D01*
X124771946Y-95712306D02*
X124031112Y-95473017D01*
X168728844Y-90577482D02*
X168565410Y-91019122D01*
X162580928Y-112429433D02*
X163427596Y-112590299D01*
X179673023Y-88850492D02*
X178400039Y-88049459D01*
X177640174Y-87614146D02*
X177332464Y-87436240D01*
X137368449Y-96186652D02*
X137176891Y-97146878D01*
X167419473Y-113966663D02*
X167982718Y-114284163D01*
X120144606Y-113532017D02*
X120565069Y-113383150D01*
X96490616Y-99941409D02*
X96274136Y-100328625D01*
X154612706Y-113618772D02*
X155490091Y-113244985D01*
X117665604Y-114691780D02*
X118467133Y-114289561D01*
X117257616Y-112556783D02*
X117389646Y-112995740D01*
X174963436Y-106663788D02*
X175770463Y-106398564D01*
X173860017Y-107098022D02*
X174283351Y-106909692D01*
X165804455Y-113260119D02*
X166257012Y-113438058D01*
X145165566Y-122084667D02*
X145463487Y-121674880D01*
X146533886Y-120266925D02*
X146756454Y-119999167D01*
X158486486Y-112453516D02*
X159432385Y-112328203D01*
X106097559Y-89289268D02*
X105438007Y-89767021D01*
X147416828Y-87897872D02*
X147334410Y-87590334D01*
X103922766Y-105709382D02*
X105320870Y-105734530D01*
X138093130Y-119160907D02*
X139176710Y-120302650D01*
X97025273Y-98971267D02*
X96720645Y-99518075D01*
X110563812Y-86611692D02*
X109867248Y-86966936D01*
X115564440Y-109579339D02*
X116073797Y-110210206D01*
X168547392Y-114601663D02*
X168857696Y-114813330D01*
X184702599Y-105739914D02*
X185493859Y-105819925D01*
X141380223Y-93276233D02*
X141268357Y-93024879D01*
X173217185Y-107442775D02*
X173860017Y-107098022D01*
X117428501Y-87608176D02*
X117634132Y-87118482D01*
X130688721Y-113839874D02*
X131228947Y-114073888D01*
X116073797Y-110210206D02*
X116476513Y-110791661D01*
X110859069Y-106680547D02*
X111458766Y-106893632D01*
X156484120Y-112919170D02*
X157493325Y-112652926D01*
X112151313Y-85840961D02*
X111754941Y-86014541D01*
X140100803Y-121375001D02*
X140171526Y-121439903D01*
X184777777Y-92887130D02*
X183932754Y-92080799D01*
X99716100Y-95181234D02*
X99435219Y-95525193D01*
X136069556Y-97770713D02*
X134349869Y-97589315D01*
X96533941Y-106368228D02*
X98022554Y-106161873D01*
X188755063Y-97684459D02*
X188541703Y-97344734D01*
X129744211Y-96892197D02*
X127894032Y-96514206D01*
X181346143Y-105677950D02*
X182625352Y-105668813D01*
X169268749Y-113790088D02*
X169322040Y-113171193D01*
X155622382Y-97402730D02*
X154731784Y-97522049D01*
X161787919Y-96056583D02*
X160616502Y-96403848D01*
X145463487Y-121674880D02*
X146043315Y-120882796D01*
X140708710Y-122164783D02*
X141033566Y-122565627D01*
X136433675Y-117563973D02*
X136942934Y-118031616D01*
X169248856Y-114376767D02*
X169268749Y-113790088D01*
X136016745Y-117210245D02*
X136433675Y-117563973D01*
X103938978Y-90941515D02*
X103386628Y-91417117D01*
X122158920Y-94758218D02*
X121570486Y-94491677D01*
X168699845Y-87455714D02*
X168781414Y-87788551D01*
X163427596Y-112590299D02*
X164325757Y-112778088D01*
X95226066Y-102483739D02*
X94716954Y-103753740D01*
X178400039Y-88049459D02*
X177640174Y-87614146D01*
X166793944Y-113679696D02*
X167419473Y-113966663D01*
X173719894Y-85591035D02*
X172634849Y-85106490D01*
X171517891Y-84640558D02*
X170410527Y-84209969D01*
X95932345Y-106480484D02*
X96533941Y-106368228D01*
X131042575Y-97111001D02*
X129744211Y-96892197D01*
X162713220Y-95737706D02*
X161787919Y-96056583D01*
X139602700Y-120785857D02*
X139903053Y-121161376D01*
X188541703Y-97344734D02*
X188355912Y-97050358D01*
X113945097Y-85087447D02*
X113416446Y-85285811D01*
X158956134Y-96821917D02*
X157209883Y-97136136D01*
X119159588Y-93019885D02*
X118825523Y-92733848D01*
X142639640Y-124894914D02*
X142991960Y-125450645D01*
X148161763Y-91821024D02*
X147792404Y-89836648D01*
X124031112Y-95473017D02*
X123343195Y-95227960D01*
X135189816Y-116545347D02*
X135538008Y-116796436D01*
X136955761Y-97833660D02*
X136770841Y-97831640D01*
X183436723Y-91666507D02*
X183244900Y-91502889D01*
X183745300Y-105689505D02*
X184702599Y-105739914D01*
X170410527Y-84209969D02*
X169354266Y-83831449D01*
X189689506Y-99259636D02*
X189417950Y-98785126D01*
X140294478Y-90577482D02*
X139935862Y-89651439D01*
X190270423Y-100473973D02*
X189976880Y-99830575D01*
X146756454Y-119999167D02*
X147081204Y-119602291D01*
X136942934Y-118031616D02*
X138093130Y-119160907D01*
X151256755Y-115622691D02*
X151838838Y-115183641D01*
X119894095Y-93560802D02*
X119159588Y-93019885D01*
X147300471Y-87571535D02*
X147288002Y-87606950D01*
X111458766Y-106893632D02*
X112031991Y-107121489D01*
X185493859Y-105819925D02*
X186763860Y-105978252D01*
X186763860Y-105978252D02*
X188351361Y-106188808D01*
X126701951Y-96246620D02*
X125618613Y-95949426D01*
X165327777Y-94533344D02*
X165161835Y-94599151D01*
X167429436Y-92853620D02*
X167136324Y-93135619D01*
X169234185Y-114856279D02*
X169248856Y-114376767D01*
X151705253Y-97774875D02*
X150163919Y-97858714D01*
X168300906Y-86320756D02*
X168511038Y-86847172D01*
X175770463Y-106398564D02*
X176673856Y-106172800D01*
X98891870Y-96239568D02*
X98407252Y-96891462D01*
X164325757Y-112778088D02*
X165041555Y-112996118D01*
X138080232Y-92535399D02*
X137713096Y-94413942D01*
X114983819Y-108991574D02*
X115564440Y-109579339D01*
X138369792Y-91080190D02*
X138080232Y-92535399D01*
X170118363Y-110600281D02*
X170530775Y-109861983D01*
X191701700Y-104848513D02*
X191492867Y-103938948D01*
X187716361Y-96167443D02*
X187241625Y-95560548D01*
X139065858Y-87614146D02*
X138827065Y-88728598D01*
X147071361Y-88239304D02*
X146783812Y-89042897D01*
X94428188Y-104521032D02*
X94195936Y-105261866D01*
X139179536Y-87799024D02*
X139101782Y-87648046D01*
X179932658Y-105715263D02*
X181346143Y-105677950D01*
X143269984Y-124987095D02*
X143671728Y-124359820D01*
X153326975Y-97654376D02*
X151705253Y-97774875D01*
X182108937Y-90577482D02*
X181541617Y-90154148D01*
X170530775Y-109861983D02*
X170736465Y-109552228D01*
X128202324Y-113010458D02*
X129362946Y-113337874D01*
X166584732Y-82965102D02*
X166390931Y-82939432D01*
X139935862Y-89651439D02*
X139414738Y-88354980D01*
X148891286Y-117664819D02*
X149489909Y-117084670D01*
X123343195Y-95227960D02*
X122697936Y-94992494D01*
X149113364Y-96927486D02*
X148822692Y-95366443D01*
X155490091Y-113244985D02*
X156484120Y-112919170D01*
X118825523Y-92733848D02*
X118517533Y-92440640D01*
X120942471Y-82967266D02*
X120622692Y-83022154D01*
X191313250Y-103292785D02*
X191091546Y-102599236D01*
X114162360Y-108315318D02*
X114540873Y-108599745D01*
X169400214Y-112597303D02*
X169494760Y-112145641D01*
X140171526Y-121439903D02*
X140282413Y-121595928D01*
X179143856Y-105758648D02*
X179932658Y-105715263D01*
X163543430Y-95397717D02*
X162713220Y-95737706D01*
X117099928Y-112115805D02*
X117257616Y-112556783D01*
X143671728Y-124359820D02*
X143795500Y-124156779D01*
X120565069Y-113383150D02*
X121665306Y-113058169D01*
X117266930Y-90445190D02*
X117194235Y-90175582D01*
X121120694Y-94282973D02*
X120697360Y-94044107D01*
X167982718Y-114284163D02*
X168547392Y-114601663D01*
X192007902Y-106538895D02*
X191886898Y-105789822D01*
X192024151Y-106871750D02*
X192031656Y-106771349D01*
X167136324Y-93135619D02*
X166368203Y-93787713D01*
X161929745Y-112337557D02*
X162580928Y-112429433D01*
X102551524Y-105732102D02*
X103922766Y-105709382D01*
X141268357Y-93024879D02*
X140963411Y-92322780D01*
X119569666Y-84368534D02*
X120098793Y-83831251D01*
X113421314Y-107829225D02*
X113791943Y-108050682D01*
X139176710Y-120302650D02*
X139602700Y-120785857D01*
X93825599Y-106790279D02*
X93838775Y-106855077D01*
X168795136Y-90332398D02*
X168728844Y-90577482D01*
X147549728Y-88566647D02*
X147416828Y-87897872D01*
X187241625Y-95560548D02*
X186473401Y-94652067D01*
X165041555Y-112996118D02*
X165804455Y-113260119D01*
X188351361Y-106188808D02*
X189458961Y-106352320D01*
X176673856Y-106172800D02*
X177767144Y-105966245D01*
X130028268Y-113575714D02*
X130688721Y-113839874D01*
X107786102Y-105966714D02*
X109072673Y-106194417D01*
X168345462Y-91505078D02*
X168113647Y-91943955D01*
X172028076Y-108229136D02*
X172317601Y-108015862D01*
X168781414Y-87788551D02*
X168825979Y-88089748D01*
X167430015Y-84525464D02*
X167756228Y-85133365D01*
X169071903Y-114962820D02*
X169193241Y-115024997D01*
X176742602Y-87098129D02*
X175844135Y-86626946D01*
X117278889Y-88037480D02*
X117428501Y-87608176D01*
X133291535Y-115206448D02*
X134396568Y-115948406D01*
X96720645Y-99518075D02*
X96490616Y-99941409D01*
X159432385Y-112328203D02*
X160245762Y-112283425D01*
X93871292Y-106875825D02*
X94782141Y-106713655D01*
X149247931Y-97582541D02*
X149113364Y-96927486D01*
X167756228Y-85133365D02*
X168077192Y-85791799D01*
X93838775Y-106855077D02*
X93871292Y-106875825D01*
X116476513Y-110791661D02*
X116709017Y-111232152D01*
X132623942Y-114806313D02*
X133291535Y-115206448D01*
X161114785Y-112287715D02*
X161929745Y-112337557D01*
X166814582Y-83566019D02*
X167004394Y-83857061D01*
X153572092Y-114140613D02*
X154612706Y-113618772D01*
X141309103Y-122937896D02*
X141951313Y-123850027D01*
X149489909Y-117084670D02*
X149949606Y-116671976D01*
X105320870Y-105734530D02*
X106572074Y-105816863D01*
X181541617Y-90154148D02*
X180698561Y-89541452D01*
X160245762Y-112283425D02*
X161114785Y-112287715D01*
X182778479Y-91098923D02*
X182108937Y-90577482D01*
X127591273Y-112873121D02*
X128202324Y-113010458D01*
X115035273Y-84656579D02*
X114611940Y-84808079D01*
X131228947Y-114073888D02*
X131905217Y-114412413D01*
X148822692Y-95366443D02*
X148531386Y-93805400D01*
X172661560Y-107773610D02*
X173217185Y-107442775D01*
X116221031Y-84258540D02*
X115035273Y-84656579D01*
X117495659Y-113431583D02*
X117575294Y-113863221D01*
X117148953Y-88647352D02*
X117203370Y-88337734D01*
X93860358Y-106513207D02*
X93825599Y-106790279D01*
X170736465Y-109552228D02*
X170932030Y-109301421D01*
X122697936Y-94992494D02*
X122158920Y-94758218D01*
X118236734Y-86008971D02*
X118629799Y-85453769D01*
X148531386Y-93805400D02*
X148161763Y-91821024D01*
X145563394Y-92321245D02*
X145316114Y-92997521D01*
X146043315Y-120882796D02*
X146533886Y-120266925D01*
X168565410Y-91019122D02*
X168345462Y-91505078D01*
X137713096Y-94413942D02*
X137368449Y-96186652D01*
X117194235Y-90175582D02*
X117142785Y-89887854D01*
X166257012Y-113438058D02*
X166793944Y-113679696D01*
X102143284Y-92574253D02*
X100936571Y-93791338D01*
X118629799Y-85453769D02*
X119060362Y-84930154D01*
X147792404Y-89836648D02*
X147549728Y-88566647D01*
X148264067Y-118302784D02*
X148891286Y-117664819D01*
X169607173Y-111786990D02*
X169753467Y-111400204D01*
X117634132Y-87118482D02*
X117854348Y-86660588D01*
X170932030Y-109301421D02*
X171289243Y-108914644D01*
X169753467Y-111400204D02*
X170118363Y-110600281D01*
X110250053Y-106488685D02*
X110859069Y-106680547D01*
X138827065Y-88728598D02*
X138369792Y-91080190D01*
X123174903Y-112753216D02*
X123891470Y-112686422D01*
X143288981Y-93275334D02*
X141380223Y-93276233D01*
X111172354Y-86308374D02*
X110563812Y-86611692D01*
X183244900Y-91502889D02*
X182778479Y-91098923D01*
X191492867Y-103938948D02*
X191313250Y-103292785D01*
X165161835Y-94599151D02*
X165038909Y-94646829D01*
X104400816Y-90577482D02*
X103938978Y-90941515D01*
X165609330Y-94356046D02*
X165327777Y-94533344D01*
X105438007Y-89767021D02*
X104860503Y-90217225D01*
X140669393Y-91519399D02*
X140294478Y-90577482D01*
X121665306Y-113058169D02*
X122516901Y-112856100D01*
X107576089Y-88305933D02*
X106097559Y-89289268D01*
X117585640Y-91173734D02*
X117400024Y-90787351D01*
X139101782Y-87648046D02*
X139065858Y-87614146D01*
X175844135Y-86626946D02*
X174786690Y-86099108D01*
X191886898Y-105789822D02*
X191701700Y-104848513D01*
X172634849Y-85106490D02*
X171517891Y-84640558D01*
X112561593Y-107357673D02*
X113030418Y-107595734D01*
X101207710Y-105807675D02*
X102551524Y-105732102D01*
X123891470Y-112686422D02*
X124644845Y-112655127D01*
X112827271Y-85543040D02*
X112151313Y-85840961D01*
X97791785Y-97800611D02*
X97025273Y-98971267D01*
X118047715Y-86326683D02*
X118236734Y-86008971D01*
X164538807Y-94941059D02*
X164052912Y-95181234D01*
X171289243Y-108914644D02*
X171669941Y-108542972D01*
X141951313Y-123850027D02*
X142639640Y-124894914D01*
X111754941Y-86014541D02*
X111172354Y-86308374D01*
X134396568Y-115948406D02*
X135189816Y-116545347D01*
X114611940Y-84808079D02*
X113945097Y-85087447D01*
X190560481Y-101165862D02*
X190270423Y-100473973D01*
X183624843Y-91808651D02*
X183436723Y-91666507D01*
X117103523Y-89276359D02*
X117148953Y-88647352D01*
X118238579Y-92142670D02*
X117991624Y-91842349D01*
X98407252Y-96891462D02*
X97791785Y-97800611D01*
X137176891Y-97146878D02*
X137028618Y-97816645D01*
X151838838Y-115183641D02*
X152163212Y-114957717D01*
X132762368Y-97379394D02*
X131042575Y-97111001D01*
X149309156Y-97893586D02*
X149247931Y-97582541D01*
X190120419Y-106477944D02*
X191277628Y-106736561D01*
X119642307Y-113738109D02*
X120144606Y-113532017D01*
X140282413Y-121595928D02*
X140708710Y-122164783D01*
X121570486Y-94491677D02*
X121120694Y-94282973D01*
X146523462Y-89757273D02*
X146235383Y-90498106D01*
X98022554Y-106161873D02*
X99746371Y-105947225D01*
X134349869Y-97589315D02*
X132762368Y-97379394D01*
X104860503Y-90217225D02*
X104400816Y-90577482D01*
X137028618Y-97816645D02*
X136955761Y-97833660D01*
X166390931Y-82939432D02*
X166560608Y-83216233D01*
X185711443Y-93829539D02*
X184777777Y-92887130D01*
X99435219Y-95525193D02*
X98891870Y-96239568D01*
X177332464Y-87436240D02*
X176742602Y-87098129D01*
X109867248Y-86966936D02*
X109122653Y-87376860D01*
X143945360Y-123897170D02*
X144937178Y-122400103D01*
X117991624Y-91842349D02*
X117793074Y-91545135D01*
X127894032Y-96514206D02*
X126701951Y-96246620D01*
X119060362Y-84930154D02*
X119569666Y-84368534D01*
X145197792Y-93274434D02*
X143288981Y-93275334D01*
X125413270Y-112658741D02*
X126174988Y-112696672D01*
X160616502Y-96403848D02*
X158956134Y-96821917D01*
X169216784Y-114981985D02*
X169234185Y-114856279D01*
X117575294Y-113863221D02*
X117628192Y-114289561D01*
X109648870Y-106324492D02*
X110250053Y-106488685D01*
X113791943Y-108050682D02*
X114162360Y-108315318D01*
X172317601Y-108015862D02*
X172661560Y-107773610D01*
X126174988Y-112696672D02*
X126908241Y-112768329D01*
X106572074Y-105816863D02*
X107786102Y-105966714D01*
X174283351Y-106909692D02*
X174963436Y-106663788D01*
X144937178Y-122400103D02*
X145165566Y-122084667D01*
X150163919Y-97858714D02*
X149309156Y-97893586D01*
X109122653Y-87376860D02*
X107576089Y-88305933D01*
X117854348Y-86660588D02*
X118047715Y-86326683D01*
X116709017Y-111232152D02*
X116916942Y-111673897D01*
X169193241Y-115024997D02*
X169216784Y-114981985D01*
X94195936Y-105261866D02*
X93981745Y-106013953D01*
X120976503Y-82992701D02*
X120942471Y-82967266D01*
X117628192Y-114289561D02*
X117665604Y-114691780D01*
X142991960Y-125450645D02*
X143269984Y-124987095D01*
X167611560Y-92641233D02*
X167429436Y-92853620D01*
X189458961Y-106352320D02*
X190120419Y-106477944D01*
X166560608Y-83216233D02*
X166814582Y-83566019D01*
X191091546Y-102599236D02*
X190560481Y-101165862D01*
X145316114Y-92997521D02*
X145197792Y-93274434D01*
X140025364Y-121312242D02*
X140100803Y-121375001D01*
X124644845Y-112655127D02*
X125413270Y-112658741D01*
X189417950Y-98785126D02*
X189072404Y-98187167D01*
X93981745Y-106013953D02*
X93860358Y-106513207D01*
X167068688Y-83090774D02*
X166584732Y-82965102D01*
X119976787Y-83167768D02*
X118739442Y-83487332D01*
X126908241Y-112768329D02*
X127591273Y-112873121D01*
X113416446Y-85285811D02*
X112827271Y-85543040D01*
X129362946Y-113337874D02*
X130028268Y-113575714D01*
X141033566Y-122565627D02*
X141309103Y-122937896D01*
X180698561Y-89541452D02*
X179673023Y-88850492D01*
X165038909Y-94646829D02*
X164538807Y-94941059D01*
X117389646Y-112995740D02*
X117495659Y-113431583D01*
X152577664Y-114699305D02*
X153572092Y-114140613D01*
X145914602Y-91342286D02*
X145563394Y-92321245D01*
X143795500Y-124156779D02*
X143945360Y-123897170D01*
X157493325Y-112652926D02*
X158486486Y-112453516D01*
X191277628Y-106736561D02*
X192024151Y-106871750D01*
X120697360Y-94044107D02*
X119894095Y-93560802D01*
X169494760Y-112145641D02*
X169607173Y-111786990D01*
X118739442Y-83487332D02*
X117834990Y-83749640D01*
X120098793Y-83831251D02*
X120588828Y-83380652D01*
X147081204Y-119602291D02*
X147718585Y-118888921D01*
X168831826Y-90071677D02*
X168795136Y-90332398D01*
X192031656Y-106771349D02*
X192007902Y-106538895D01*
X139414738Y-88354980D02*
X139179536Y-87799024D01*
X125618613Y-95949426D02*
X124771946Y-95712306D01*
X112031991Y-107121489D02*
X112561593Y-107357673D01*
X169354266Y-83831449D02*
X168322390Y-83478812D01*
X120937953Y-83059500D02*
X120976503Y-82992701D01*
X122516901Y-112856100D02*
X123174903Y-112753216D01*
X140963411Y-92322780D02*
X140885081Y-92081692D01*
X135667706Y-116880409D02*
X135762163Y-116969897D01*
X100032278Y-94810818D02*
X99716100Y-95181234D01*
X103386628Y-91417117D02*
X102143284Y-92574253D01*
X152163212Y-114957717D02*
X152577664Y-114699305D01*
X136770841Y-97831640D02*
X136069556Y-97770713D01*
X140885081Y-92081692D02*
X140669393Y-91519399D01*
X118517533Y-92440640D02*
X118238579Y-92142670D01*
X169322040Y-113171193D02*
X169400214Y-112597303D01*
X171669941Y-108542972D02*
X172028076Y-108229136D01*
X113030418Y-107595734D02*
X113421314Y-107829225D01*
X168825979Y-88089748D02*
X168849599Y-89095814D01*
X183932754Y-92080799D02*
X183624843Y-91808651D01*
X117142785Y-89887854D02*
X117103523Y-89276359D01*
X100936571Y-93791338D02*
X100430010Y-94341875D01*
X117203370Y-88337734D02*
X117278889Y-88037480D01*
X157209883Y-97136136D02*
X155622382Y-97402730D01*
X168857696Y-114813330D02*
X169071903Y-114962820D01*
X154731784Y-97522049D02*
X153326975Y-97654376D01*
X168322390Y-83478812D02*
X167068688Y-83090774D01*
X174786690Y-86099108D02*
X173719894Y-85591035D01*
X96274136Y-100328625D02*
X95916265Y-101032095D01*
X94782141Y-106713655D02*
X95932345Y-106480484D01*
X147288002Y-87606950D02*
X147071361Y-88239304D01*
X149949606Y-116671976D02*
X150753140Y-116012535D01*
X150753140Y-116012535D02*
X151256755Y-115622691D01*
X167914614Y-92244358D02*
X167611560Y-92641233D01*
X120622692Y-83022154D02*
X119976787Y-83167768D01*
X109072673Y-106194417D02*
X109648870Y-106324492D01*
X116916942Y-111673897D02*
X117099928Y-112115805D01*
X168113647Y-91943955D02*
X167914614Y-92244358D01*
X147718585Y-118888921D02*
X148264067Y-118302784D01*
X95916265Y-101032095D02*
X95226066Y-102483739D01*
X168511038Y-86847172D02*
X168699845Y-87455714D01*
X182625352Y-105668813D02*
X183745300Y-105689505D01*
X120588828Y-83380652D02*
X120937953Y-83059500D01*
X146783812Y-89042897D02*
X146523462Y-89757273D01*
X117834990Y-83749640D02*
X116221031Y-84258540D01*
X167190555Y-84148102D02*
X167430015Y-84525464D01*
X166368203Y-93787713D02*
X165609330Y-94356046D01*
X118467133Y-114289561D02*
X119642307Y-113738109D01*
X168077192Y-85791799D02*
X168300906Y-86320756D01*
X167004394Y-83857061D02*
X167190555Y-84148102D01*
X135762163Y-116969897D02*
X136016745Y-117210245D01*
X164052912Y-95181234D02*
X163543430Y-95397717D01*
X114540873Y-108599745D02*
X114983819Y-108991574D01*
X188355912Y-97050358D02*
X187716361Y-96167443D01*
X117400024Y-90787351D02*
X117266930Y-90445190D01*
X168849599Y-89095814D02*
X168831826Y-90071677D01*
X135538008Y-116796436D02*
X135667706Y-116880409D01*
M02*
