%TF.GenerationSoftware,KiCad,Pcbnew,9.0.3*%
%TF.CreationDate,2025-12-14T09:52:05-05:00*%
%TF.ProjectId,Blinky,426c696e-6b79-42e6-9b69-6361645f7063,rev?*%
%TF.SameCoordinates,Original*%
%TF.FileFunction,Legend,Top*%
%TF.FilePolarity,Positive*%
%FSLAX46Y46*%
G04 Gerber Fmt 4.6, Leading zero omitted, Abs format (unit mm)*
G04 Created by KiCad (PCBNEW 9.0.3) date 2025-12-14 09:52:05*
%MOMM*%
%LPD*%
G01*
G04 APERTURE LIST*
%ADD10C,0.300000*%
%ADD11C,0.150000*%
%ADD12C,0.120000*%
%ADD13C,0.000000*%
%ADD14C,0.152400*%
G04 APERTURE END LIST*
D10*
X152217190Y-108236402D02*
X152074333Y-108164973D01*
X152074333Y-108164973D02*
X151860047Y-108164973D01*
X151860047Y-108164973D02*
X151645761Y-108236402D01*
X151645761Y-108236402D02*
X151502904Y-108379259D01*
X151502904Y-108379259D02*
X151431475Y-108522116D01*
X151431475Y-108522116D02*
X151360047Y-108807830D01*
X151360047Y-108807830D02*
X151360047Y-109022116D01*
X151360047Y-109022116D02*
X151431475Y-109307830D01*
X151431475Y-109307830D02*
X151502904Y-109450687D01*
X151502904Y-109450687D02*
X151645761Y-109593545D01*
X151645761Y-109593545D02*
X151860047Y-109664973D01*
X151860047Y-109664973D02*
X152002904Y-109664973D01*
X152002904Y-109664973D02*
X152217190Y-109593545D01*
X152217190Y-109593545D02*
X152288618Y-109522116D01*
X152288618Y-109522116D02*
X152288618Y-109022116D01*
X152288618Y-109022116D02*
X152002904Y-109022116D01*
X153145761Y-108164973D02*
X153145761Y-108522116D01*
X152788618Y-108379259D02*
X153145761Y-108522116D01*
X153145761Y-108522116D02*
X153502904Y-108379259D01*
X152931475Y-108807830D02*
X153145761Y-108522116D01*
X153145761Y-108522116D02*
X153360047Y-108807830D01*
X154288618Y-108164973D02*
X154288618Y-108522116D01*
X153931475Y-108379259D02*
X154288618Y-108522116D01*
X154288618Y-108522116D02*
X154645761Y-108379259D01*
X154074332Y-108807830D02*
X154288618Y-108522116D01*
X154288618Y-108522116D02*
X154502904Y-108807830D01*
X155431475Y-108164973D02*
X155431475Y-108522116D01*
X155074332Y-108379259D02*
X155431475Y-108522116D01*
X155431475Y-108522116D02*
X155788618Y-108379259D01*
X155217189Y-108807830D02*
X155431475Y-108522116D01*
X155431475Y-108522116D02*
X155645761Y-108807830D01*
D11*
X143093798Y-108974740D02*
X142284275Y-108974740D01*
X142284275Y-108974740D02*
X142189037Y-109022359D01*
X142189037Y-109022359D02*
X142141418Y-109069978D01*
X142141418Y-109069978D02*
X142093798Y-109165216D01*
X142093798Y-109165216D02*
X142093798Y-109355692D01*
X142093798Y-109355692D02*
X142141418Y-109450930D01*
X142141418Y-109450930D02*
X142189037Y-109498549D01*
X142189037Y-109498549D02*
X142284275Y-109546168D01*
X142284275Y-109546168D02*
X143093798Y-109546168D01*
X142998560Y-109974740D02*
X143046179Y-110022359D01*
X143046179Y-110022359D02*
X143093798Y-110117597D01*
X143093798Y-110117597D02*
X143093798Y-110355692D01*
X143093798Y-110355692D02*
X143046179Y-110450930D01*
X143046179Y-110450930D02*
X142998560Y-110498549D01*
X142998560Y-110498549D02*
X142903322Y-110546168D01*
X142903322Y-110546168D02*
X142808084Y-110546168D01*
X142808084Y-110546168D02*
X142665227Y-110498549D01*
X142665227Y-110498549D02*
X142093798Y-109927121D01*
X142093798Y-109927121D02*
X142093798Y-110546168D01*
X152303137Y-105926644D02*
X152541232Y-105926644D01*
X152445994Y-106164739D02*
X152541232Y-105926644D01*
X152541232Y-105926644D02*
X152445994Y-105688549D01*
X152731708Y-106069501D02*
X152541232Y-105926644D01*
X152541232Y-105926644D02*
X152731708Y-105783787D01*
X153393498Y-105926645D02*
X153155403Y-105926645D01*
X153250641Y-105688550D02*
X153155403Y-105926645D01*
X153155403Y-105926645D02*
X153250641Y-106164740D01*
X152964927Y-105783788D02*
X153155403Y-105926645D01*
X153155403Y-105926645D02*
X152964927Y-106069502D01*
D12*
%TO.C,D8*%
X97988618Y-101510645D02*
X97988618Y-101666645D01*
X97988618Y-103826645D02*
X97988618Y-103982645D01*
X97988618Y-101511129D02*
G75*
G02*
X101220055Y-101666645I1560000J-1235516D01*
G01*
X98507657Y-101666645D02*
G75*
G02*
X100589579Y-101666645I1040961J-1080000D01*
G01*
X100589579Y-103826645D02*
G75*
G02*
X98507657Y-103826645I-1040961J1080000D01*
G01*
X101220055Y-103826645D02*
G75*
G02*
X97988618Y-103982161I-1671437J1080000D01*
G01*
%TO.C,D6*%
X168088618Y-108916645D02*
X168088618Y-108760645D01*
X168088618Y-111232645D02*
X168088618Y-111076645D01*
X164857181Y-108916645D02*
G75*
G02*
X168088618Y-108761129I1671437J-1080000D01*
G01*
X165487657Y-108916645D02*
G75*
G02*
X167569579Y-108916645I1040961J-1080000D01*
G01*
X167569579Y-111076645D02*
G75*
G02*
X165487657Y-111076645I-1040961J1080000D01*
G01*
X168088618Y-111232161D02*
G75*
G02*
X164857181Y-111076645I-1560000J1235516D01*
G01*
%TO.C,D11*%
X139278618Y-94470645D02*
X139278618Y-94626645D01*
X139278618Y-96786645D02*
X139278618Y-96942645D01*
X139278618Y-94471129D02*
G75*
G02*
X142510055Y-94626645I1560000J-1235516D01*
G01*
X139797657Y-94626645D02*
G75*
G02*
X141879579Y-94626645I1040961J-1080000D01*
G01*
X141879579Y-96786645D02*
G75*
G02*
X139797657Y-96786645I-1040961J1080000D01*
G01*
X142510055Y-96786645D02*
G75*
G02*
X139278618Y-96942161I-1671437J1080000D01*
G01*
%TO.C,D1*%
X144408618Y-94550645D02*
X144408618Y-94706645D01*
X144408618Y-96866645D02*
X144408618Y-97022645D01*
X144408618Y-94551129D02*
G75*
G02*
X147640055Y-94706645I1560000J-1235516D01*
G01*
X144927657Y-94706645D02*
G75*
G02*
X147009579Y-94706645I1040961J-1080000D01*
G01*
X147009579Y-96866645D02*
G75*
G02*
X144927657Y-96866645I-1040961J1080000D01*
G01*
X147640055Y-96866645D02*
G75*
G02*
X144408618Y-97022161I-1671437J1080000D01*
G01*
%TO.C,R1*%
X140008618Y-114876645D02*
X146548618Y-114876645D01*
X140008618Y-115206645D02*
X140008618Y-114876645D01*
X140008618Y-117286645D02*
X140008618Y-117616645D01*
X140008618Y-117616645D02*
X146548618Y-117616645D01*
X146548618Y-114876645D02*
X146548618Y-115206645D01*
X146548618Y-117616645D02*
X146548618Y-117286645D01*
D13*
%TO.C,G\u002A\u002A\u002A*%
G36*
X145275029Y-100227379D02*
G01*
X145309058Y-101346741D01*
X145379260Y-102261491D01*
X145490086Y-102993637D01*
X145645987Y-103565187D01*
X145851414Y-103998149D01*
X146099542Y-104304018D01*
X146523791Y-104624221D01*
X147010349Y-104818676D01*
X147619969Y-104906892D01*
X148009088Y-104917252D01*
X148792729Y-104834712D01*
X149458213Y-104600149D01*
X149981194Y-104229443D01*
X150337324Y-103738474D01*
X150479316Y-103306061D01*
X150478307Y-102907315D01*
X150370198Y-102380500D01*
X150173937Y-101788532D01*
X149908474Y-101194324D01*
X149763392Y-100929094D01*
X149465467Y-100420724D01*
X149801376Y-100503073D01*
X150246997Y-100640427D01*
X150831527Y-100860258D01*
X151492887Y-101135653D01*
X152168997Y-101439697D01*
X152797778Y-101745477D01*
X153317149Y-102026081D01*
X153324988Y-102030662D01*
X153967399Y-102457488D01*
X154626811Y-102983937D01*
X155256526Y-103564902D01*
X155809845Y-104155275D01*
X156240069Y-104709948D01*
X156433004Y-105032784D01*
X156827942Y-105974785D01*
X157021835Y-106859315D01*
X157019405Y-107729015D01*
X156829467Y-108613337D01*
X156425930Y-109552563D01*
X155813256Y-110462996D01*
X155010976Y-111324373D01*
X154038624Y-112116428D01*
X152915730Y-112818896D01*
X152630930Y-112969391D01*
X152264215Y-113156776D01*
X152544002Y-112555816D01*
X152782674Y-111840782D01*
X152821855Y-111184961D01*
X152675127Y-110612422D01*
X152356072Y-110147231D01*
X151878269Y-109813457D01*
X151255300Y-109635167D01*
X150882763Y-109611874D01*
X150101359Y-109723147D01*
X149394610Y-110039017D01*
X148865155Y-110474000D01*
X148485121Y-110876954D01*
X148316962Y-110474491D01*
X148015572Y-110034052D01*
X147555878Y-109742632D01*
X146965835Y-109616326D01*
X146819267Y-109612301D01*
X146094217Y-109725851D01*
X145394825Y-110047146D01*
X144749634Y-110555124D01*
X144187190Y-111228720D01*
X143849942Y-111803534D01*
X143656597Y-112215947D01*
X143513253Y-112571136D01*
X143446047Y-112803104D01*
X143444041Y-112828337D01*
X143393058Y-113005743D01*
X143329627Y-113041793D01*
X143234536Y-112946677D01*
X143215213Y-112828337D01*
X143147159Y-112521911D01*
X142966320Y-112101036D01*
X142707681Y-111625980D01*
X142406226Y-111157011D01*
X142096939Y-110754400D01*
X141883969Y-110534955D01*
X141258657Y-110051762D01*
X140677302Y-109757313D01*
X140090439Y-109631461D01*
X139666282Y-109631664D01*
X139113952Y-109722507D01*
X138724548Y-109923799D01*
X138445132Y-110270049D01*
X138333386Y-110500590D01*
X138174133Y-110876954D01*
X137794099Y-110474000D01*
X137186901Y-109991922D01*
X136469294Y-109699163D01*
X135776491Y-109611874D01*
X135084162Y-109700822D01*
X134529993Y-109957643D01*
X134127572Y-110358258D01*
X133890490Y-110878591D01*
X133832335Y-111494562D01*
X133966696Y-112182095D01*
X134115121Y-112555532D01*
X134259162Y-112876635D01*
X134346500Y-113094593D01*
X134359802Y-113156208D01*
X134253710Y-113100700D01*
X133995408Y-112950979D01*
X133627889Y-112732248D01*
X133335186Y-112555532D01*
X132173549Y-111760547D01*
X131232549Y-110918208D01*
X130508007Y-110023812D01*
X129995742Y-109072660D01*
X129829787Y-108613337D01*
X129635401Y-107670098D01*
X129650889Y-106750546D01*
X129879754Y-105823995D01*
X130240621Y-105015644D01*
X130576895Y-104505394D01*
X131063881Y-103929865D01*
X131652891Y-103336033D01*
X132295237Y-102770878D01*
X132942229Y-102281378D01*
X133334266Y-102030662D01*
X133841496Y-101755879D01*
X134459491Y-101454372D01*
X135126823Y-101152834D01*
X135782063Y-100877958D01*
X136363784Y-100656438D01*
X136810557Y-100514965D01*
X136838526Y-100507930D01*
X137155082Y-100430439D01*
X136758054Y-101215620D01*
X136438827Y-101936431D01*
X136238202Y-102588435D01*
X136166598Y-103131162D01*
X136194127Y-103405947D01*
X136437702Y-103949010D01*
X136864608Y-104388122D01*
X137446270Y-104705702D01*
X138154115Y-104884165D01*
X138650166Y-104917252D01*
X139348560Y-104876928D01*
X139892046Y-104740593D01*
X140341378Y-104488736D01*
X140559712Y-104304018D01*
X140801290Y-104021004D01*
X140987407Y-103662500D01*
X141126773Y-103194633D01*
X141228094Y-102583528D01*
X141300080Y-101795314D01*
X141328297Y-101314316D01*
X141358191Y-100758611D01*
X141386339Y-100293498D01*
X141409885Y-99962313D01*
X141425973Y-99808388D01*
X141427896Y-99802810D01*
X141494213Y-99881337D01*
X141649751Y-100111464D01*
X141865096Y-100449117D01*
X141943333Y-100575107D01*
X142434779Y-101371523D01*
X143327311Y-101371523D01*
X144219843Y-101371523D01*
X144743786Y-100542018D01*
X145267728Y-99712514D01*
X145275029Y-100227379D01*
G37*
D12*
%TO.C,C4*%
X145473843Y-100771645D02*
X145973843Y-100771645D01*
X145723843Y-100521645D02*
X145723843Y-101021645D01*
X148278618Y-99666645D02*
X148278618Y-101206645D01*
X148278618Y-103286645D02*
X148278618Y-104826645D01*
X148318618Y-99666645D02*
X148318618Y-101206645D01*
X148318618Y-103286645D02*
X148318618Y-104826645D01*
X148358618Y-99667645D02*
X148358618Y-101206645D01*
X148358618Y-103286645D02*
X148358618Y-104825645D01*
X148398618Y-99669645D02*
X148398618Y-101206645D01*
X148398618Y-103286645D02*
X148398618Y-104823645D01*
X148438618Y-99671645D02*
X148438618Y-101206645D01*
X148438618Y-103286645D02*
X148438618Y-104821645D01*
X148478618Y-99674645D02*
X148478618Y-101206645D01*
X148478618Y-103286645D02*
X148478618Y-104818645D01*
X148518618Y-99677645D02*
X148518618Y-101206645D01*
X148518618Y-103286645D02*
X148518618Y-104815645D01*
X148558618Y-99681645D02*
X148558618Y-101206645D01*
X148558618Y-103286645D02*
X148558618Y-104811645D01*
X148598618Y-99686645D02*
X148598618Y-101206645D01*
X148598618Y-103286645D02*
X148598618Y-104806645D01*
X148638618Y-99691645D02*
X148638618Y-101206645D01*
X148638618Y-103286645D02*
X148638618Y-104801645D01*
X148678618Y-99697645D02*
X148678618Y-101206645D01*
X148678618Y-103286645D02*
X148678618Y-104795645D01*
X148718618Y-99703645D02*
X148718618Y-101206645D01*
X148718618Y-103286645D02*
X148718618Y-104789645D01*
X148758618Y-99710645D02*
X148758618Y-101206645D01*
X148758618Y-103286645D02*
X148758618Y-104782645D01*
X148798618Y-99718645D02*
X148798618Y-101206645D01*
X148798618Y-103286645D02*
X148798618Y-104774645D01*
X148838618Y-99727645D02*
X148838618Y-101206645D01*
X148838618Y-103286645D02*
X148838618Y-104765645D01*
X148878618Y-99736645D02*
X148878618Y-101206645D01*
X148878618Y-103286645D02*
X148878618Y-104756645D01*
X148918618Y-99745645D02*
X148918618Y-101206645D01*
X148918618Y-103286645D02*
X148918618Y-104747645D01*
X148958618Y-99756645D02*
X148958618Y-101206645D01*
X148958618Y-103286645D02*
X148958618Y-104736645D01*
X148998618Y-99767645D02*
X148998618Y-101206645D01*
X148998618Y-103286645D02*
X148998618Y-104725645D01*
X149038618Y-99779645D02*
X149038618Y-101206645D01*
X149038618Y-103286645D02*
X149038618Y-104713645D01*
X149078618Y-99791645D02*
X149078618Y-101206645D01*
X149078618Y-103286645D02*
X149078618Y-104701645D01*
X149118618Y-99804645D02*
X149118618Y-101206645D01*
X149118618Y-103286645D02*
X149118618Y-104688645D01*
X149158618Y-99818645D02*
X149158618Y-101206645D01*
X149158618Y-103286645D02*
X149158618Y-104674645D01*
X149198618Y-99833645D02*
X149198618Y-101206645D01*
X149198618Y-103286645D02*
X149198618Y-104659645D01*
X149238618Y-99848645D02*
X149238618Y-101206645D01*
X149238618Y-103286645D02*
X149238618Y-104644645D01*
X149278618Y-99864645D02*
X149278618Y-101206645D01*
X149278618Y-103286645D02*
X149278618Y-104628645D01*
X149318618Y-99881645D02*
X149318618Y-101206645D01*
X149318618Y-103286645D02*
X149318618Y-104611645D01*
X149358618Y-99899645D02*
X149358618Y-101206645D01*
X149358618Y-103286645D02*
X149358618Y-104593645D01*
X149398618Y-99917645D02*
X149398618Y-101206645D01*
X149398618Y-103286645D02*
X149398618Y-104575645D01*
X149438618Y-99937645D02*
X149438618Y-101206645D01*
X149438618Y-103286645D02*
X149438618Y-104555645D01*
X149478618Y-99957645D02*
X149478618Y-101206645D01*
X149478618Y-103286645D02*
X149478618Y-104535645D01*
X149518618Y-99978645D02*
X149518618Y-101206645D01*
X149518618Y-103286645D02*
X149518618Y-104514645D01*
X149558618Y-100000645D02*
X149558618Y-101206645D01*
X149558618Y-103286645D02*
X149558618Y-104492645D01*
X149598618Y-100023645D02*
X149598618Y-101206645D01*
X149598618Y-103286645D02*
X149598618Y-104469645D01*
X149638618Y-100047645D02*
X149638618Y-101206645D01*
X149638618Y-103286645D02*
X149638618Y-104445645D01*
X149678618Y-100071645D02*
X149678618Y-101206645D01*
X149678618Y-103286645D02*
X149678618Y-104421645D01*
X149718618Y-100097645D02*
X149718618Y-101206645D01*
X149718618Y-103286645D02*
X149718618Y-104395645D01*
X149758618Y-100124645D02*
X149758618Y-101206645D01*
X149758618Y-103286645D02*
X149758618Y-104368645D01*
X149798618Y-100152645D02*
X149798618Y-101206645D01*
X149798618Y-103286645D02*
X149798618Y-104340645D01*
X149838618Y-100181645D02*
X149838618Y-101206645D01*
X149838618Y-103286645D02*
X149838618Y-104311645D01*
X149878618Y-100211645D02*
X149878618Y-101206645D01*
X149878618Y-103286645D02*
X149878618Y-104281645D01*
X149918618Y-100243645D02*
X149918618Y-101206645D01*
X149918618Y-103286645D02*
X149918618Y-104249645D01*
X149958618Y-100276645D02*
X149958618Y-101206645D01*
X149958618Y-103286645D02*
X149958618Y-104216645D01*
X149998618Y-100310645D02*
X149998618Y-101206645D01*
X149998618Y-103286645D02*
X149998618Y-104182645D01*
X150038618Y-100345645D02*
X150038618Y-101206645D01*
X150038618Y-103286645D02*
X150038618Y-104147645D01*
X150078618Y-100382645D02*
X150078618Y-101206645D01*
X150078618Y-103286645D02*
X150078618Y-104110645D01*
X150118618Y-100421645D02*
X150118618Y-101206645D01*
X150118618Y-103286645D02*
X150118618Y-104071645D01*
X150158618Y-100461645D02*
X150158618Y-101206645D01*
X150158618Y-103286645D02*
X150158618Y-104031645D01*
X150198618Y-100503645D02*
X150198618Y-101206645D01*
X150198618Y-103286645D02*
X150198618Y-103989645D01*
X150238618Y-100547645D02*
X150238618Y-101206645D01*
X150238618Y-103286645D02*
X150238618Y-103945645D01*
X150278618Y-100594645D02*
X150278618Y-101206645D01*
X150278618Y-103286645D02*
X150278618Y-103898645D01*
X150318618Y-100642645D02*
X150318618Y-103850645D01*
X150358618Y-100693645D02*
X150358618Y-103799645D01*
X150398618Y-100747645D02*
X150398618Y-103745645D01*
X150438618Y-100803645D02*
X150438618Y-103689645D01*
X150478618Y-100863645D02*
X150478618Y-103629645D01*
X150518618Y-100927645D02*
X150518618Y-103565645D01*
X150558618Y-100995645D02*
X150558618Y-103497645D01*
X150598618Y-101069645D02*
X150598618Y-103423645D01*
X150638618Y-101148645D02*
X150638618Y-103344645D01*
X150678618Y-101235645D02*
X150678618Y-103257645D01*
X150718618Y-101332645D02*
X150718618Y-103160645D01*
X150758618Y-101441645D02*
X150758618Y-103051645D01*
X150798618Y-101569645D02*
X150798618Y-102923645D01*
X150838618Y-101729645D02*
X150838618Y-102763645D01*
X150878618Y-101963645D02*
X150878618Y-102529645D01*
X150898618Y-102246645D02*
G75*
G02*
X145658618Y-102246645I-2620000J0D01*
G01*
X145658618Y-102246645D02*
G75*
G02*
X150898618Y-102246645I2620000J0D01*
G01*
%TO.C,D7*%
X174818618Y-88166645D02*
X174818618Y-88010645D01*
X174818618Y-90482645D02*
X174818618Y-90326645D01*
X171587181Y-88166645D02*
G75*
G02*
X174818618Y-88011129I1671437J-1080000D01*
G01*
X172217657Y-88166645D02*
G75*
G02*
X174299579Y-88166645I1040961J-1080000D01*
G01*
X174299579Y-90326645D02*
G75*
G02*
X172217657Y-90326645I-1040961J1080000D01*
G01*
X174818618Y-90482161D02*
G75*
G02*
X171587181Y-90326645I-1560000J1235516D01*
G01*
%TO.C,U1*%
X152868618Y-100906645D02*
X152868618Y-106206645D01*
X152868618Y-106206645D02*
X163148618Y-106206645D01*
X163148618Y-100906645D02*
X152868618Y-100906645D01*
X163148618Y-102556645D02*
X163148618Y-100906645D01*
X163148618Y-106206645D02*
X163148618Y-104556645D01*
X163148618Y-104556645D02*
G75*
G02*
X163148618Y-102556645I0J1000000D01*
G01*
%TO.C,C3*%
X135473843Y-100771645D02*
X135973843Y-100771645D01*
X135723843Y-100521645D02*
X135723843Y-101021645D01*
X138278618Y-99666645D02*
X138278618Y-101206645D01*
X138278618Y-103286645D02*
X138278618Y-104826645D01*
X138318618Y-99666645D02*
X138318618Y-101206645D01*
X138318618Y-103286645D02*
X138318618Y-104826645D01*
X138358618Y-99667645D02*
X138358618Y-101206645D01*
X138358618Y-103286645D02*
X138358618Y-104825645D01*
X138398618Y-99669645D02*
X138398618Y-101206645D01*
X138398618Y-103286645D02*
X138398618Y-104823645D01*
X138438618Y-99671645D02*
X138438618Y-101206645D01*
X138438618Y-103286645D02*
X138438618Y-104821645D01*
X138478618Y-99674645D02*
X138478618Y-101206645D01*
X138478618Y-103286645D02*
X138478618Y-104818645D01*
X138518618Y-99677645D02*
X138518618Y-101206645D01*
X138518618Y-103286645D02*
X138518618Y-104815645D01*
X138558618Y-99681645D02*
X138558618Y-101206645D01*
X138558618Y-103286645D02*
X138558618Y-104811645D01*
X138598618Y-99686645D02*
X138598618Y-101206645D01*
X138598618Y-103286645D02*
X138598618Y-104806645D01*
X138638618Y-99691645D02*
X138638618Y-101206645D01*
X138638618Y-103286645D02*
X138638618Y-104801645D01*
X138678618Y-99697645D02*
X138678618Y-101206645D01*
X138678618Y-103286645D02*
X138678618Y-104795645D01*
X138718618Y-99703645D02*
X138718618Y-101206645D01*
X138718618Y-103286645D02*
X138718618Y-104789645D01*
X138758618Y-99710645D02*
X138758618Y-101206645D01*
X138758618Y-103286645D02*
X138758618Y-104782645D01*
X138798618Y-99718645D02*
X138798618Y-101206645D01*
X138798618Y-103286645D02*
X138798618Y-104774645D01*
X138838618Y-99727645D02*
X138838618Y-101206645D01*
X138838618Y-103286645D02*
X138838618Y-104765645D01*
X138878618Y-99736645D02*
X138878618Y-101206645D01*
X138878618Y-103286645D02*
X138878618Y-104756645D01*
X138918618Y-99745645D02*
X138918618Y-101206645D01*
X138918618Y-103286645D02*
X138918618Y-104747645D01*
X138958618Y-99756645D02*
X138958618Y-101206645D01*
X138958618Y-103286645D02*
X138958618Y-104736645D01*
X138998618Y-99767645D02*
X138998618Y-101206645D01*
X138998618Y-103286645D02*
X138998618Y-104725645D01*
X139038618Y-99779645D02*
X139038618Y-101206645D01*
X139038618Y-103286645D02*
X139038618Y-104713645D01*
X139078618Y-99791645D02*
X139078618Y-101206645D01*
X139078618Y-103286645D02*
X139078618Y-104701645D01*
X139118618Y-99804645D02*
X139118618Y-101206645D01*
X139118618Y-103286645D02*
X139118618Y-104688645D01*
X139158618Y-99818645D02*
X139158618Y-101206645D01*
X139158618Y-103286645D02*
X139158618Y-104674645D01*
X139198618Y-99833645D02*
X139198618Y-101206645D01*
X139198618Y-103286645D02*
X139198618Y-104659645D01*
X139238618Y-99848645D02*
X139238618Y-101206645D01*
X139238618Y-103286645D02*
X139238618Y-104644645D01*
X139278618Y-99864645D02*
X139278618Y-101206645D01*
X139278618Y-103286645D02*
X139278618Y-104628645D01*
X139318618Y-99881645D02*
X139318618Y-101206645D01*
X139318618Y-103286645D02*
X139318618Y-104611645D01*
X139358618Y-99899645D02*
X139358618Y-101206645D01*
X139358618Y-103286645D02*
X139358618Y-104593645D01*
X139398618Y-99917645D02*
X139398618Y-101206645D01*
X139398618Y-103286645D02*
X139398618Y-104575645D01*
X139438618Y-99937645D02*
X139438618Y-101206645D01*
X139438618Y-103286645D02*
X139438618Y-104555645D01*
X139478618Y-99957645D02*
X139478618Y-101206645D01*
X139478618Y-103286645D02*
X139478618Y-104535645D01*
X139518618Y-99978645D02*
X139518618Y-101206645D01*
X139518618Y-103286645D02*
X139518618Y-104514645D01*
X139558618Y-100000645D02*
X139558618Y-101206645D01*
X139558618Y-103286645D02*
X139558618Y-104492645D01*
X139598618Y-100023645D02*
X139598618Y-101206645D01*
X139598618Y-103286645D02*
X139598618Y-104469645D01*
X139638618Y-100047645D02*
X139638618Y-101206645D01*
X139638618Y-103286645D02*
X139638618Y-104445645D01*
X139678618Y-100071645D02*
X139678618Y-101206645D01*
X139678618Y-103286645D02*
X139678618Y-104421645D01*
X139718618Y-100097645D02*
X139718618Y-101206645D01*
X139718618Y-103286645D02*
X139718618Y-104395645D01*
X139758618Y-100124645D02*
X139758618Y-101206645D01*
X139758618Y-103286645D02*
X139758618Y-104368645D01*
X139798618Y-100152645D02*
X139798618Y-101206645D01*
X139798618Y-103286645D02*
X139798618Y-104340645D01*
X139838618Y-100181645D02*
X139838618Y-101206645D01*
X139838618Y-103286645D02*
X139838618Y-104311645D01*
X139878618Y-100211645D02*
X139878618Y-101206645D01*
X139878618Y-103286645D02*
X139878618Y-104281645D01*
X139918618Y-100243645D02*
X139918618Y-101206645D01*
X139918618Y-103286645D02*
X139918618Y-104249645D01*
X139958618Y-100276645D02*
X139958618Y-101206645D01*
X139958618Y-103286645D02*
X139958618Y-104216645D01*
X139998618Y-100310645D02*
X139998618Y-101206645D01*
X139998618Y-103286645D02*
X139998618Y-104182645D01*
X140038618Y-100345645D02*
X140038618Y-101206645D01*
X140038618Y-103286645D02*
X140038618Y-104147645D01*
X140078618Y-100382645D02*
X140078618Y-101206645D01*
X140078618Y-103286645D02*
X140078618Y-104110645D01*
X140118618Y-100421645D02*
X140118618Y-101206645D01*
X140118618Y-103286645D02*
X140118618Y-104071645D01*
X140158618Y-100461645D02*
X140158618Y-101206645D01*
X140158618Y-103286645D02*
X140158618Y-104031645D01*
X140198618Y-100503645D02*
X140198618Y-101206645D01*
X140198618Y-103286645D02*
X140198618Y-103989645D01*
X140238618Y-100547645D02*
X140238618Y-101206645D01*
X140238618Y-103286645D02*
X140238618Y-103945645D01*
X140278618Y-100594645D02*
X140278618Y-101206645D01*
X140278618Y-103286645D02*
X140278618Y-103898645D01*
X140318618Y-100642645D02*
X140318618Y-103850645D01*
X140358618Y-100693645D02*
X140358618Y-103799645D01*
X140398618Y-100747645D02*
X140398618Y-103745645D01*
X140438618Y-100803645D02*
X140438618Y-103689645D01*
X140478618Y-100863645D02*
X140478618Y-103629645D01*
X140518618Y-100927645D02*
X140518618Y-103565645D01*
X140558618Y-100995645D02*
X140558618Y-103497645D01*
X140598618Y-101069645D02*
X140598618Y-103423645D01*
X140638618Y-101148645D02*
X140638618Y-103344645D01*
X140678618Y-101235645D02*
X140678618Y-103257645D01*
X140718618Y-101332645D02*
X140718618Y-103160645D01*
X140758618Y-101441645D02*
X140758618Y-103051645D01*
X140798618Y-101569645D02*
X140798618Y-102923645D01*
X140838618Y-101729645D02*
X140838618Y-102763645D01*
X140878618Y-101963645D02*
X140878618Y-102529645D01*
X140898618Y-102246645D02*
G75*
G02*
X135658618Y-102246645I-2620000J0D01*
G01*
X135658618Y-102246645D02*
G75*
G02*
X140898618Y-102246645I2620000J0D01*
G01*
%TO.C,D9*%
X111218618Y-88010645D02*
X111218618Y-88166645D01*
X111218618Y-90326645D02*
X111218618Y-90482645D01*
X111218618Y-88011129D02*
G75*
G02*
X114450055Y-88166645I1560000J-1235516D01*
G01*
X111737657Y-88166645D02*
G75*
G02*
X113819579Y-88166645I1040961J-1080000D01*
G01*
X113819579Y-90326645D02*
G75*
G02*
X111737657Y-90326645I-1040961J1080000D01*
G01*
X114450055Y-90326645D02*
G75*
G02*
X111218618Y-90482161I-1671437J1080000D01*
G01*
%TO.C,RV1*%
X122568618Y-97999145D02*
X122568618Y-103219145D01*
X122568618Y-97999145D02*
X124688618Y-97999145D01*
X122568618Y-103219145D02*
X132488618Y-103219145D01*
X125388618Y-97999145D02*
X132488618Y-97999145D01*
X132488618Y-97999145D02*
X132488618Y-103219145D01*
X124988618Y-97999145D02*
X124748618Y-97669145D01*
X125228618Y-97669145D01*
X124988618Y-97999145D01*
G36*
X124988618Y-97999145D02*
G01*
X124748618Y-97669145D01*
X125228618Y-97669145D01*
X124988618Y-97999145D01*
G37*
%TO.C,TP3*%
X141578618Y-123966645D02*
X141578618Y-124086645D01*
X141578618Y-124086645D02*
X144238618Y-124086645D01*
X142908618Y-121426645D02*
X144238618Y-121426645D01*
X144238618Y-121426645D02*
X144238618Y-122756645D01*
X144238618Y-123966645D02*
X144238618Y-124086645D01*
%TO.C,J1*%
X140428618Y-120556645D02*
X140428618Y-119176645D01*
X141808618Y-120556645D02*
X140428618Y-120556645D01*
X143078618Y-117796645D02*
X145728618Y-117796645D01*
X143078618Y-120556645D02*
X143078618Y-117796645D01*
X143078618Y-120556645D02*
X145728618Y-120556645D01*
X145728618Y-120556645D02*
X145728618Y-117796645D01*
%TO.C,D10*%
X171318618Y-98666645D02*
X171318618Y-98510645D01*
X171318618Y-100982645D02*
X171318618Y-100826645D01*
X168087181Y-98666645D02*
G75*
G02*
X171318618Y-98511129I1671437J-1080000D01*
G01*
X168717657Y-98666645D02*
G75*
G02*
X170799579Y-98666645I1040961J-1080000D01*
G01*
X170799579Y-100826645D02*
G75*
G02*
X168717657Y-100826645I-1040961J1080000D01*
G01*
X171318618Y-100982161D02*
G75*
G02*
X168087181Y-100826645I-1560000J1235516D01*
G01*
%TO.C,D2*%
X114968618Y-98510645D02*
X114968618Y-98666645D01*
X114968618Y-100826645D02*
X114968618Y-100982645D01*
X114968618Y-98511129D02*
G75*
G02*
X118200055Y-98666645I1560000J-1235516D01*
G01*
X115487657Y-98666645D02*
G75*
G02*
X117569579Y-98666645I1040961J-1080000D01*
G01*
X117569579Y-100826645D02*
G75*
G02*
X115487657Y-100826645I-1040961J1080000D01*
G01*
X118200055Y-100826645D02*
G75*
G02*
X114968618Y-100982161I-1671437J1080000D01*
G01*
%TO.C,R4*%
X124328618Y-103606645D02*
X130868618Y-103606645D01*
X124328618Y-103936645D02*
X124328618Y-103606645D01*
X124328618Y-106016645D02*
X124328618Y-106346645D01*
X124328618Y-106346645D02*
X130868618Y-106346645D01*
X130868618Y-103606645D02*
X130868618Y-103936645D01*
X130868618Y-106346645D02*
X130868618Y-106016645D01*
%TO.C,D12*%
X188568618Y-101686645D02*
X188568618Y-101530645D01*
X188568618Y-104002645D02*
X188568618Y-103846645D01*
X185337181Y-101686645D02*
G75*
G02*
X188568618Y-101531129I1671437J-1080000D01*
G01*
X185967657Y-101686645D02*
G75*
G02*
X188049579Y-101686645I1040961J-1080000D01*
G01*
X188049579Y-103846645D02*
G75*
G02*
X185967657Y-103846645I-1040961J1080000D01*
G01*
X188568618Y-104002161D02*
G75*
G02*
X185337181Y-103846645I-1560000J1235516D01*
G01*
%TO.C,D5*%
X118468618Y-108860645D02*
X118468618Y-109016645D01*
X118468618Y-111176645D02*
X118468618Y-111332645D01*
X118468618Y-108861129D02*
G75*
G02*
X121700055Y-109016645I1560000J-1235516D01*
G01*
X118987657Y-109016645D02*
G75*
G02*
X121069579Y-109016645I1040961J-1080000D01*
G01*
X121069579Y-111176645D02*
G75*
G02*
X118987657Y-111176645I-1040961J1080000D01*
G01*
X121700055Y-111176645D02*
G75*
G02*
X118468618Y-111332161I-1671437J1080000D01*
G01*
D14*
%TO.C,U2*%
X132706118Y-106434645D02*
X132706118Y-113038645D01*
X134497187Y-113038645D02*
X135360049Y-113038645D01*
X135360049Y-106434645D02*
X134497187Y-106434645D01*
X137037187Y-113038645D02*
X137900049Y-113038645D01*
X137900049Y-106434645D02*
X137037187Y-106434645D01*
X139577187Y-113038645D02*
X140440049Y-113038645D01*
X140440049Y-106434645D02*
X139577187Y-106434645D01*
X142117187Y-113038645D02*
X142980049Y-113038645D01*
X142980049Y-106434645D02*
X142117187Y-106434645D01*
X144657187Y-113038645D02*
X145520049Y-113038645D01*
X145520049Y-106434645D02*
X144657187Y-106434645D01*
X147197187Y-113038645D02*
X148060049Y-113038645D01*
X148060049Y-106434645D02*
X147197187Y-106434645D01*
X149737187Y-113038645D02*
X150600049Y-113038645D01*
X150458178Y-106434645D02*
X149737187Y-106434645D01*
X152391118Y-113038645D02*
X152391118Y-106707810D01*
X152391118Y-110041445D02*
G75*
G02*
X152391118Y-109431845I0J304800D01*
G01*
%TD*%
M02*
